<svg width="19" height="13" viewBox="0 0 19 13" fill="none" xmlns="http://www.w3.org/2000/svg">
<path d="M17.932 7.24976C18.3462 7.24976 18.682 6.91397 18.682 6.49976C18.682 6.08554 18.3462 5.74976 17.932 5.74976V7.24976ZM1.11596 5.96943C0.823069 6.26232 0.823069 6.73719 1.11596 7.03009L5.88893 11.8031C6.18183 12.096 6.6567 12.096 6.94959 11.8031C7.24249 11.5102 7.24249 11.0353 6.94959 10.7424L2.70695 6.49976L6.94959 2.25712C7.24249 1.96422 7.24249 1.48935 6.94959 1.19646C6.6567 0.903562 6.18183 0.903562 5.88893 1.19646L1.11596 5.96943ZM17.932 5.74976H1.64629V7.24976H17.932V5.74976Z" fill="white"/>
</svg>
