<svg width="13" height="12" viewBox="0 0 13 12" fill="none" xmlns="http://www.w3.org/2000/svg">
<path d="M11.557 7.07214C11.9712 7.07214 12.307 6.73636 12.307 6.32214C12.307 5.90793 11.9712 5.57214 11.557 5.57214V7.07214ZM0.556877 5.79181C0.263984 6.08471 0.263984 6.55958 0.556877 6.85247L5.32985 11.6254C5.62274 11.9183 6.09761 11.9183 6.39051 11.6254C6.6834 11.3326 6.6834 10.8577 6.39051 10.5648L2.14787 6.32214L6.39051 2.0795C6.6834 1.78661 6.6834 1.31174 6.39051 1.01884C6.09761 0.725949 5.62274 0.725949 5.32985 1.01884L0.556877 5.79181ZM11.557 5.57214H1.08721V7.07214H11.557V5.57214Z" fill="white"/>
</svg>
