<svg width="13" height="12" viewBox="0 0 13 12" xmlns="http://www.w3.org/2000/svg">
<path d="M1.73157 5.57214C1.31735 5.57214 0.981567 5.90793 0.981567 6.32214C0.981567 6.73636 1.31735 7.07214 1.73157 7.07214L1.73157 5.57214ZM12.7317 6.85247C13.0246 6.55958 13.0246 6.08471 12.7317 5.79181L7.95873 1.01884C7.66583 0.725949 7.19096 0.725949 6.89807 1.01884C6.60517 1.31174 6.60517 1.78661 6.89807 2.0795L11.1407 6.32214L6.89807 10.5648C6.60517 10.8577 6.60517 11.3326 6.89807 11.6254C7.19096 11.9183 7.66583 11.9183 7.95873 11.6254L12.7317 6.85247ZM1.73157 7.07214L12.2014 7.07214L12.2014 5.57214L1.73157 5.57214L1.73157 7.07214Z" fill="currentColor"/>
</svg>
