<svg width="19" height="13" viewBox="0 0 19 13" xmlns="http://www.w3.org/2000/svg">
<path d="M1.64575 5.75024C1.23154 5.75024 0.895752 6.08603 0.895752 6.50024C0.895752 6.91446 1.23154 7.25024 1.64575 7.25024L1.64575 5.75024ZM18.4618 7.03057C18.7547 6.73768 18.7547 6.26281 18.4618 5.96991L13.6888 1.19694C13.3959 0.904049 12.9211 0.904049 12.6282 1.19694C12.3353 1.48984 12.3353 1.96471 12.6282 2.2576L16.8708 6.50024L12.6282 10.7429C12.3353 11.0358 12.3353 11.5107 12.6282 11.8035C12.9211 12.0964 13.3959 12.0964 13.6888 11.8035L18.4618 7.03057ZM1.64575 7.25024L17.9315 7.25024L17.9315 5.75024L1.64575 5.75024L1.64575 7.25024Z" fill="currentColor"/>
</svg>
