<svg width="322" height="322" viewBox="0 0 322 322" fill="none" xmlns="http://www.w3.org/2000/svg">
<mask id="mask0_261_6987" style="mask-type:luminance" maskUnits="userSpaceOnUse" x="0" y="0" width="322" height="322">
<path d="M322 0H0V322H322V0Z" fill="white"/>
</mask>
<g mask="url(#mask0_261_6987)">
<g opacity="0.07">
<path d="M263.58 69.7581H241.89V68.4315H263.052L280.891 50.1161H320.626L328.225 42.5298H362.718L382.991 62.8158L382.063 63.7431L362.151 43.8693H328.779L321.192 51.4556H281.458L263.58 69.7581Z" fill="white"/>
<path d="M381.636 97.321H345.315L319.722 71.78H293.717L269.387 96.0974H185.345L165.69 76.4554H137.831V75.1159H166.244L185.912 94.745H268.846L293.164 70.4404H320.276L345.869 95.9815H381.636V97.321Z" fill="white"/>
<path d="M188.576 115.085H131.531L121.497 105.025H80.2424V103.699H122.064L132.084 113.732H188.009L222.296 79.4714H274.64L298.468 55.6177H361.812L372.451 66.2694H382.961V67.609H371.884L361.258 56.9701H299.035L275.194 80.811H222.837L188.576 115.085Z" fill="white"/>
<path d="M307.952 195.444H284.703L260.811 171.551H230.453L163.026 104.15H138.296V102.798H163.58L230.981 170.225H261.365L285.244 194.091H307.952V195.444Z" fill="white"/>
<path d="M336.632 120.675H302.719L289.105 107.06H214.646V104.368H290.187L303.827 117.983H335.551L352.835 100.672H382.962V103.338H353.943L336.632 120.675Z" fill="white"/>
<path d="M277.408 145.663H223.57V144.336H276.88L293.624 127.579H351.881L362.713 116.747H385.201V118.087H363.267L352.447 128.932H294.165L277.408 145.663Z" fill="white"/>
<path d="M315.653 170.392H291.825L240.885 119.426H207.938L183.492 143.885H103.34L89.7383 157.487H70.4312V154.807H88.6306L102.245 141.206H182.384L206.83 116.747H241.993L292.933 167.713H314.546L325.455 156.804H384.755V159.483H326.576L315.653 170.392Z" fill="white"/>
<path d="M284.855 163.975H196.884L156.48 123.571H109.712V120.879H157.587L198.005 161.296H283.721L302.603 142.427H382.962V145.119H303.711L284.855 163.975Z" fill="white"/>
<path d="M100.158 173.365H70.4312V172.026H99.6172L119.478 152.126H176.691V153.478H120.032L100.158 173.365Z" fill="white"/>
<path d="M363.59 228.259H261.258L232.227 199.254H179.985L159.455 178.723H138.731V177.371H160.008L180.539 197.901H232.78L261.786 226.907H363.049L381.351 208.617H387.869V209.957H381.905L363.59 228.259Z" fill="white"/>
<path d="M346.643 263.991H260.36L251.434 255.065H204.538L143.384 193.898H60.8871L48.5738 206.212L47.6207 205.258L60.3204 192.546H143.912L205.104 253.713H251.975L260.901 262.652H346.076L352.787 255.941H386.545V257.294H353.353L346.643 263.991Z" fill="white"/>
<path d="M192.13 207.293H121.316V205.941H191.589L217.478 180.052H310.356L339.825 150.583H385.201V151.922H340.379L310.922 181.391H218.045L192.13 207.293Z" fill="white"/>
<path d="M244.557 69.0915C244.557 70.5726 243.372 71.7834 241.89 71.7834C240.409 71.7834 239.198 70.5726 239.198 69.0915C239.198 67.6103 240.409 66.4253 241.89 66.4253C243.385 66.4253 244.557 67.6103 244.557 69.0915Z" fill="white"/>
<path d="M140.522 75.9933C140.522 77.4745 139.312 78.6852 137.83 78.6852C136.362 78.6852 135.164 77.4745 135.164 75.9933C135.164 74.5379 136.362 73.3271 137.83 73.3271C139.312 73.3271 140.522 74.5379 140.522 75.9933Z" fill="white"/>
<path d="M141.41 104.15C141.41 105.618 140.199 106.816 138.718 106.816C137.237 106.816 136.026 105.618 136.026 104.15C136.026 102.669 137.237 101.458 138.718 101.458C140.199 101.458 141.41 102.669 141.41 104.15Z" fill="white"/>
<path d="M73.5437 172.685C73.5437 174.153 72.3459 175.364 70.8776 175.364C69.3964 175.364 68.1857 174.153 68.1857 172.685C68.1857 171.204 69.3964 170.006 70.8776 170.006C72.3459 170.006 73.5437 171.204 73.5437 172.685Z" fill="white"/>
<path d="M176.691 155.475C178.171 155.475 179.37 154.275 179.37 152.796C179.37 151.316 178.171 150.117 176.691 150.117C175.211 150.117 174.012 151.316 174.012 152.796C174.012 154.275 175.211 155.475 176.691 155.475Z" fill="white"/>
<path d="M141.849 177.823C141.849 179.304 140.664 180.489 139.183 180.489C137.702 180.489 136.517 179.304 136.517 177.823C136.517 176.342 137.702 175.131 139.183 175.131C140.664 175.131 141.849 176.329 141.849 177.823Z" fill="white"/>
<path d="M146.781 193.898C146.781 195.367 145.57 196.565 144.114 196.565C142.633 196.565 141.422 195.367 141.422 193.898C141.422 192.417 142.633 191.207 144.114 191.207C145.57 191.207 146.781 192.417 146.781 193.898Z" fill="white"/>
<path d="M262.97 170.443C262.97 171.924 261.759 173.122 260.291 173.122C258.823 173.122 257.625 171.924 257.625 170.443C257.625 168.974 258.823 167.764 260.291 167.764C261.759 167.764 262.97 168.974 262.97 170.443Z" fill="white"/>
<path d="M296.473 127.576C296.473 129.045 295.262 130.255 293.794 130.255C292.313 130.255 291.102 129.045 291.102 127.576C291.102 126.095 292.313 124.91 293.794 124.91C295.262 124.91 296.473 126.095 296.473 127.576Z" fill="white"/>
<path d="M188.281 95.4171C188.281 96.9112 187.096 98.1091 185.615 98.1091C184.134 98.1091 182.949 96.9112 182.949 95.4171C182.949 93.9617 184.134 92.751 185.615 92.751C187.096 92.751 188.281 93.9617 188.281 95.4171Z" fill="white"/>
<path d="M226.456 144.554C226.456 146.035 225.271 147.246 223.803 147.246C222.321 147.246 221.124 146.035 221.124 144.554C221.124 143.086 222.321 141.875 223.803 141.875C225.271 141.875 226.456 143.073 226.456 144.554Z" fill="white"/>
<path d="M235.499 198.457C235.499 199.939 234.314 201.149 232.833 201.149C231.378 201.149 230.167 199.939 230.167 198.457C230.167 196.989 231.378 195.778 232.833 195.778C234.314 195.778 235.499 196.989 235.499 198.457Z" fill="white"/>
<path d="M264.21 226.909C264.21 228.403 262.999 229.601 261.531 229.601C260.05 229.601 258.839 228.403 258.839 226.909C258.839 225.454 260.05 224.243 261.531 224.243C262.999 224.243 264.21 225.454 264.21 226.909Z" fill="white"/>
<path d="M50.1044 205.938C50.1044 207.42 48.9066 208.617 47.4383 208.617C45.9571 208.617 44.7463 207.42 44.7463 205.938C44.7463 204.47 45.9571 203.259 47.4383 203.259C48.9066 203.259 50.1044 204.47 50.1044 205.938Z" fill="white"/>
<path d="M124.435 206.379C124.435 207.86 123.237 209.058 121.769 209.058C120.288 209.058 119.09 207.86 119.09 206.379C119.09 204.91 120.288 203.7 121.769 203.7C123.237 203.7 124.435 204.91 124.435 206.379Z" fill="white"/>
<path d="M308.849 194.089C308.849 195.596 307.639 196.768 306.158 196.768C304.676 196.768 303.491 195.596 303.491 194.089C303.491 192.647 304.676 191.436 306.158 191.436C307.639 191.436 308.849 192.647 308.849 194.089Z" fill="white"/>
<path d="M220.444 180.735C220.444 182.216 219.246 183.426 217.778 183.426C216.297 183.426 215.086 182.216 215.086 180.735C215.086 179.266 216.297 178.068 217.778 178.068C219.246 178.068 220.444 179.266 220.444 180.735Z" fill="white"/>
<path d="M225.25 80.1286C225.25 81.6098 224.039 82.8205 222.57 82.8205C221.089 82.8205 219.879 81.6098 219.879 80.1286C219.879 78.6602 221.089 77.4624 222.57 77.4624C224.052 77.4624 225.25 78.6474 225.25 80.1286Z" fill="white"/>
<path d="M284.197 51.02C284.197 52.4884 282.986 53.6862 281.505 53.6862C280.024 53.6862 278.813 52.4884 278.813 51.02C278.813 49.5388 280.024 48.3281 281.505 48.3281C282.999 48.3281 284.197 49.5388 284.197 51.02Z" fill="white"/>
<path d="M322.414 71.2681C322.414 72.7493 321.204 73.9343 319.723 73.9343C318.241 73.9343 317.056 72.7493 317.056 71.2681C317.056 69.7869 318.241 68.5762 319.723 68.5762C321.204 68.5762 322.414 69.7869 322.414 71.2681Z" fill="white"/>
<path d="M271.794 95.4171C271.794 96.9112 270.596 98.1091 269.128 98.1091C267.647 98.1091 266.436 96.9112 266.436 95.4171C266.436 93.9617 267.647 92.751 269.128 92.751C270.596 92.751 271.794 93.9617 271.794 95.4171Z" fill="white"/>
<path d="M83.6066 104.366C83.6066 105.848 82.3958 107.058 80.9146 107.058C79.4334 107.058 78.2356 105.848 78.2356 104.366C78.2356 102.898 79.4334 101.7 80.9146 101.7C82.3958 101.7 83.6066 102.885 83.6066 104.366Z" fill="white"/>
<path d="M113.72 122.22C113.72 124.332 112.033 126.032 109.934 126.032C107.834 126.032 106.147 124.332 106.147 122.22C106.147 120.133 107.834 118.42 109.934 118.42C112.033 118.42 113.72 120.133 113.72 122.22Z" fill="white"/>
<path d="M218.704 105.811C218.704 107.898 217.004 109.611 214.917 109.611C212.831 109.611 211.105 107.898 211.105 105.811C211.105 103.724 212.831 102.037 214.917 102.037C217.004 102.037 218.704 103.724 218.704 105.811Z" fill="white"/>
<path d="M293.72 105.991C293.72 108.09 292.032 109.777 289.92 109.777C287.846 109.777 286.146 108.09 286.146 105.991C286.146 103.891 287.846 102.191 289.92 102.191C292.032 102.191 293.72 103.878 293.72 105.991Z" fill="white"/>
<path d="M73.7787 156.391C73.7787 158.49 72.0657 160.165 69.9791 160.165C67.8925 160.165 66.1924 158.49 66.1924 156.391C66.1924 154.291 67.8925 152.604 69.9791 152.604C72.0657 152.604 73.7787 154.291 73.7787 156.391Z" fill="white"/>
</g>
<g opacity="0.2">
<path d="M251.278 91.2325H235.23V90.2536H250.879L264.068 76.7039H293.46L299.076 71.1011H324.578L339.584 86.1063L338.901 86.7889L324.179 72.0928H299.501L293.872 77.6956H264.48L251.278 91.2325Z" fill="white"/>
<path d="M338.584 111.619H311.716L292.795 92.7242H273.565L255.585 110.718H193.426L178.884 96.1889H158.276V95.1971H179.297L193.825 109.726H255.186L273.153 91.7324H293.22L312.128 110.627H338.584V111.619Z" fill="white"/>
<path d="M195.807 124.759H153.612L146.193 117.314H115.68V116.336H146.605L154.024 123.754H195.382L220.743 98.4195H259.46L277.093 80.7739H323.924L331.807 88.6565H339.573V89.6482H331.382L323.512 81.7786H277.492L259.872 99.4113H221.142L195.807 124.759Z" fill="white"/>
<path d="M284.099 184.187H266.904L249.22 166.529H226.757L176.899 116.67H158.622V115.666H177.324L227.17 165.537H249.645L267.304 183.195H284.099V184.187Z" fill="white"/>
<path d="M305.298 128.892H280.22L270.148 118.82H215.073V116.824H270.947L281.032 126.909H304.499L317.289 114.093H339.571V116.077H318.113L305.298 128.892Z" fill="white"/>
<path d="M261.521 147.363H221.696V146.384H261.108L273.486 133.994H316.583L324.581 125.982H341.235V126.974H325.006L316.995 134.998H273.898L261.521 147.363Z" fill="white"/>
<path d="M289.793 165.666H272.173L234.486 127.979H210.117L192.034 146.062H132.773L122.701 156.122H108.417V154.138H121.876L131.949 144.079H191.235L209.293 125.982H235.311L272.985 163.682H288.969L297.044 155.606H340.901V157.59H297.869L289.793 165.666Z" fill="white"/>
<path d="M267.007 160.91H201.95L172.069 131.028H137.473V129.045H172.893L202.774 158.939H266.17L280.132 144.977H339.573V146.961H280.956L267.007 160.91Z" fill="white"/>
<path d="M130.416 167.855H108.417V166.863H130.017L144.7 152.167H187.011V153.159H145.112L130.416 167.855Z" fill="white"/>
<path d="M325.237 208.465H249.554L228.083 187.007H189.443L174.271 171.821H158.93V170.83H174.67L189.842 186.002H228.482L249.953 207.46H324.838L338.375 193.936H343.205V194.928H338.787L325.237 208.465Z" fill="white"/>
<path d="M312.706 234.88H248.885L242.304 228.286H207.605L162.37 183.038H101.358L92.2516 192.144L91.556 191.436L100.946 182.046H162.782L208.017 227.281H242.703L249.285 233.888H312.281L317.239 228.93H342.214V229.934H317.664L312.706 234.88Z" fill="white"/>
<path d="M198.434 192.956H146.063V191.952H198.034L217.174 172.799H285.863L307.669 151.019H341.234V151.998H308.068L286.301 173.791H217.599L198.434 192.956Z" fill="white"/>
<path d="M237.202 90.7407C237.202 91.8355 236.339 92.7242 235.231 92.7242C234.15 92.7242 233.248 91.8355 233.248 90.7407C233.248 89.6459 234.15 88.77 235.231 88.77C236.339 88.77 237.202 89.6459 237.202 90.7407Z" fill="white"/>
<path d="M160.256 95.8412C160.256 96.936 159.368 97.8248 158.273 97.8248C157.178 97.8248 156.302 96.936 156.302 95.8412C156.302 94.7593 157.178 93.8706 158.273 93.8706C159.368 93.8706 160.256 94.7593 160.256 95.8412Z" fill="white"/>
<path d="M160.917 116.668C160.917 117.763 160.041 118.638 158.933 118.638C157.852 118.638 156.95 117.763 156.95 116.668C156.95 115.573 157.852 114.684 158.933 114.684C160.041 114.671 160.917 115.573 160.917 116.668Z" fill="white"/>
<path d="M110.736 167.351C110.736 168.446 109.86 169.335 108.753 169.335C107.671 169.335 106.782 168.446 106.782 167.351C106.782 166.256 107.671 165.38 108.753 165.38C109.847 165.38 110.736 166.256 110.736 167.351Z" fill="white"/>
<path d="M188.99 152.657C188.99 153.752 188.102 154.641 187.007 154.641C185.899 154.641 185.036 153.752 185.036 152.657C185.036 151.562 185.899 150.673 187.007 150.673C188.102 150.661 188.99 151.562 188.99 152.657Z" fill="white"/>
<path d="M161.249 171.15C161.249 172.245 160.373 173.121 159.278 173.121C158.183 173.121 157.307 172.245 157.307 171.15C157.307 170.055 158.183 169.167 159.278 169.167C160.36 169.167 161.249 170.055 161.249 171.15Z" fill="white"/>
<path d="M164.891 183.039C164.891 184.134 163.989 185.01 162.92 185.01C161.825 185.01 160.924 184.134 160.924 183.039C160.924 181.944 161.825 181.056 162.92 181.056C163.976 181.056 164.891 181.944 164.891 183.039Z" fill="white"/>
<path d="M250.831 165.703C250.831 166.798 249.955 167.674 248.848 167.674C247.766 167.674 246.89 166.798 246.89 165.703C246.89 164.608 247.766 163.72 248.848 163.72C249.942 163.72 250.831 164.608 250.831 165.703Z" fill="white"/>
<path d="M275.597 133.994C275.597 135.089 274.696 135.978 273.614 135.978C272.506 135.978 271.63 135.089 271.63 133.994C271.63 132.899 272.506 132.023 273.614 132.023C274.696 132.023 275.597 132.899 275.597 133.994Z" fill="white"/>
<path d="M195.588 110.215C195.588 111.323 194.712 112.198 193.63 112.198C192.522 112.198 191.646 111.323 191.646 110.215C191.646 109.133 192.522 108.244 193.63 108.244C194.699 108.231 195.588 109.133 195.588 110.215Z" fill="white"/>
<path d="M223.819 146.55C223.819 147.645 222.956 148.534 221.848 148.534C220.766 148.534 219.89 147.645 219.89 146.55C219.89 145.456 220.766 144.567 221.848 144.567C222.956 144.567 223.819 145.456 223.819 146.55Z" fill="white"/>
<path d="M230.504 186.426C230.504 187.521 229.641 188.41 228.546 188.41C227.465 188.41 226.576 187.521 226.576 186.426C226.576 185.331 227.465 184.443 228.546 184.443C229.628 184.43 230.504 185.331 230.504 186.426Z" fill="white"/>
<path d="M251.743 207.459C251.743 208.567 250.855 209.443 249.76 209.443C248.665 209.443 247.763 208.567 247.763 207.459C247.763 206.377 248.665 205.489 249.76 205.489C250.855 205.489 251.743 206.377 251.743 207.459Z" fill="white"/>
<path d="M93.3972 191.951C93.3972 193.046 92.5085 193.922 91.4137 193.922C90.3189 193.922 89.4302 193.046 89.4302 191.951C89.4302 190.856 90.3189 189.968 91.4137 189.968C92.5085 189.968 93.3972 190.856 93.3972 191.951Z" fill="white"/>
<path d="M148.369 192.287C148.369 193.382 147.493 194.258 146.398 194.258C145.304 194.258 144.428 193.382 144.428 192.287C144.428 191.193 145.304 190.304 146.398 190.304C147.48 190.291 148.369 191.193 148.369 192.287Z" fill="white"/>
<path d="M284.754 183.193C284.754 184.314 283.865 185.177 282.771 185.177C281.676 185.177 280.8 184.314 280.8 183.193C280.8 182.124 281.676 181.235 282.771 181.235C283.865 181.223 284.754 182.124 284.754 183.193Z" fill="white"/>
<path d="M219.374 173.316C219.374 174.411 218.498 175.3 217.39 175.3C216.308 175.3 215.406 174.411 215.406 173.316C215.406 172.222 216.308 171.346 217.39 171.346C218.498 171.346 219.374 172.222 219.374 173.316Z" fill="white"/>
<path d="M222.933 98.9073C222.933 100.002 222.044 100.891 220.949 100.891C219.855 100.891 218.966 100.002 218.966 98.9073C218.966 97.8125 219.855 96.9367 220.949 96.9367C222.031 96.9238 222.933 97.8125 222.933 98.9073Z" fill="white"/>
<path d="M266.516 77.3707C266.516 78.4655 265.627 79.3414 264.532 79.3414C263.438 79.3414 262.549 78.4655 262.549 77.3707C262.549 76.2759 263.438 75.3872 264.532 75.3872C265.627 75.3872 266.516 76.2759 266.516 77.3707Z" fill="white"/>
<path d="M301.32 71.5501C301.32 72.6449 300.431 73.5208 299.336 73.5208C298.254 73.5208 297.366 72.6449 297.366 71.5501C297.366 70.4553 298.241 69.5537 299.323 69.5537C300.418 69.5537 301.32 70.4553 301.32 71.5501Z" fill="white"/>
<path d="M325.867 80.9516C325.867 82.0464 324.991 82.9351 323.883 82.9351C322.801 82.9351 321.9 82.0464 321.9 80.9516C321.9 79.8568 322.801 78.981 323.883 78.981C324.978 78.981 325.867 79.8568 325.867 80.9516Z" fill="white"/>
<path d="M294.792 92.3507C294.792 93.4455 293.903 94.3213 292.808 94.3213C291.713 94.3213 290.837 93.4455 290.837 92.3507C290.837 91.2559 291.713 90.3672 292.808 90.3672C293.89 90.3672 294.792 91.2559 294.792 92.3507Z" fill="white"/>
<path d="M257.333 110.215C257.333 111.323 256.457 112.198 255.375 112.198C254.268 112.198 253.392 111.323 253.392 110.215C253.392 109.133 254.268 108.244 255.375 108.244C256.457 108.231 257.333 109.133 257.333 110.215Z" fill="white"/>
<path d="M118.164 116.825C118.164 117.919 117.275 118.808 116.18 118.808C115.085 118.808 114.197 117.919 114.197 116.825C114.197 115.73 115.085 114.854 116.18 114.854C117.275 114.854 118.164 115.73 118.164 116.825Z" fill="white"/>
<path d="M140.435 130.039C140.435 131.597 139.185 132.86 137.64 132.86C136.081 132.86 134.819 131.597 134.819 130.039C134.819 128.493 136.081 127.231 137.64 127.231C139.198 127.231 140.435 128.493 140.435 130.039Z" fill="white"/>
<path d="M218.099 117.891C218.099 119.437 216.836 120.699 215.291 120.699C213.745 120.699 212.457 119.437 212.457 117.891C212.457 116.346 213.745 115.096 215.291 115.096C216.836 115.109 218.099 116.346 218.099 117.891Z" fill="white"/>
<path d="M273.561 118.02C273.561 119.579 272.299 120.828 270.74 120.828C269.208 120.828 267.945 119.579 267.945 118.02C267.945 116.475 269.208 115.212 270.74 115.212C272.312 115.212 273.561 116.475 273.561 118.02Z" fill="white"/>
<path d="M110.888 155.308C110.888 156.854 109.626 158.103 108.08 158.103C106.522 158.103 105.272 156.854 105.272 155.308C105.272 153.75 106.522 152.5 108.08 152.5C109.639 152.5 110.888 153.737 110.888 155.308Z" fill="white"/>
</g>
<path d="M246.841 98.9715H232.828V98.1086H246.493L258.008 86.2847H283.665L288.572 81.3774H310.842L323.941 94.4893L323.335 95.0946L310.481 82.2533H288.933L284.026 87.1606H258.369L246.841 98.9715Z" fill="white"/>
<path d="M323.068 116.77H299.601L283.089 100.271H266.293L250.592 115.984H196.303L183.629 103.297H165.636V102.422H183.977L196.69 115.121H250.245L265.933 99.4077H283.449L299.974 115.907H323.068V116.77Z" fill="white"/>
<path d="M198.387 128.234H161.563L155.071 121.743H128.448V120.893H155.445L161.91 127.371H198.039L220.179 105.244H253.989L269.355 89.8521H310.262L317.127 96.7171H323.915V97.5801H316.779L309.914 90.715H269.729L254.337 106.107H220.527L198.387 128.234Z" fill="white"/>
<path d="M275.501 180.128H260.483L245.027 164.71H225.436L181.889 121.176H165.944V120.313H182.263L225.784 163.847H245.413L260.831 179.265H275.501V180.128Z" fill="white"/>
<path d="M294.011 131.841H272.102L263.318 123.057H215.224V121.318H264.027L272.837 130.115H293.303L304.483 118.936H323.919V120.661H305.178L294.011 131.841Z" fill="white"/>
<path d="M255.767 147.979H221.004V147.129H255.419L266.238 136.31H303.848L310.842 129.316H325.383V130.179H311.215L304.221 137.173H266.586L255.767 147.979Z" fill="white"/>
<path d="M280.449 163.95H265.083L232.175 131.055H210.897L195.119 146.833H143.367L134.57 155.63H122.089V153.891H133.862L142.646 145.107H194.398L210.189 129.316H232.883L265.792 162.224H279.753L286.799 155.179H325.078V156.918H287.52L280.449 163.95Z" fill="white"/>
<path d="M260.572 159.803H203.771L177.689 133.721H147.473V131.982H178.397L204.479 158.077H259.851L272.022 145.893H323.916V147.632H272.756L260.572 159.803Z" fill="white"/>
<path d="M141.319 165.871H122.089V165.008H140.959L153.787 152.167H190.727V153.043H154.148L141.319 165.871Z" fill="white"/>
<path d="M311.423 201.329H245.336L226.596 182.588H192.863L179.596 169.322H166.214V168.459H179.957L193.211 181.712H226.943L245.684 200.466H311.063L322.886 188.642H327.098V189.505H323.247L311.423 201.329Z" fill="white"/>
<path d="M300.477 224.396H244.758L239 218.639H208.707L169.217 179.123H115.932L107.985 187.07L107.38 186.465L115.584 178.26H169.564L209.054 217.763H239.348L245.106 223.521H300.103L304.431 219.206H326.237V220.069H304.804L300.477 224.396Z" fill="white"/>
<path d="M200.706 187.778H154.969V186.916H200.358L217.063 170.184H277.032L296.069 151.161H325.384V152.024H296.43L277.406 171.047H217.437L200.706 187.778Z" fill="white"/>
<path d="M234.544 98.5335C234.544 99.4867 233.784 100.272 232.831 100.272C231.878 100.272 231.092 99.4867 231.092 98.5335C231.092 97.5804 231.865 96.8076 232.831 96.8076C233.784 96.8205 234.544 97.5804 234.544 98.5335Z" fill="white"/>
<path d="M167.377 103.002C167.377 103.955 166.592 104.741 165.639 104.741C164.685 104.741 163.9 103.955 163.9 103.002C163.9 102.062 164.685 101.276 165.639 101.276C166.605 101.276 167.377 102.062 167.377 103.002Z" fill="white"/>
<path d="M167.956 121.178C167.956 122.131 167.17 122.904 166.217 122.904C165.264 122.904 164.479 122.131 164.479 121.178C164.479 120.225 165.264 119.439 166.217 119.439C167.17 119.439 167.956 120.225 167.956 121.178Z" fill="white"/>
<path d="M124.121 165.433C124.121 166.387 123.348 167.172 122.395 167.172C121.442 167.172 120.656 166.387 120.656 165.433C120.656 164.48 121.442 163.708 122.395 163.708C123.348 163.708 124.121 164.467 124.121 165.433Z" fill="white"/>
<path d="M192.452 152.604C192.452 153.557 191.666 154.343 190.713 154.343C189.76 154.343 188.974 153.557 188.974 152.604C188.974 151.651 189.76 150.865 190.713 150.865C191.666 150.865 192.452 151.638 192.452 152.604Z" fill="white"/>
<path d="M168.225 168.754C168.225 169.707 167.453 170.48 166.487 170.48C165.533 170.48 164.774 169.707 164.774 168.754C164.774 167.801 165.533 167.015 166.487 167.015C167.453 167.015 168.225 167.788 168.225 168.754Z" fill="white"/>
<path d="M171.408 179.122C171.408 180.075 170.623 180.848 169.695 180.848C168.742 180.848 167.956 180.075 167.956 179.122C167.956 178.168 168.742 177.383 169.695 177.383C170.623 177.396 171.408 178.168 171.408 179.122Z" fill="white"/>
<path d="M246.443 163.99C246.443 164.943 245.658 165.716 244.705 165.716C243.751 165.716 242.991 164.943 242.991 163.99C242.991 163.037 243.751 162.251 244.705 162.251C245.658 162.251 246.443 163.037 246.443 163.99Z" fill="white"/>
<path d="M268.071 136.309C268.071 137.262 267.285 138.048 266.332 138.048C265.379 138.048 264.594 137.262 264.594 136.309C264.594 135.356 265.379 134.583 266.332 134.583C267.285 134.583 268.071 135.356 268.071 136.309Z" fill="white"/>
<path d="M198.224 115.549C198.224 116.515 197.439 117.287 196.486 117.287C195.533 117.287 194.773 116.515 194.773 115.549C194.773 114.608 195.533 113.823 196.486 113.823C197.439 113.823 198.224 114.596 198.224 115.549Z" fill="white"/>
<path d="M222.877 147.271C222.877 148.224 222.104 149.01 221.138 149.01C220.185 149.01 219.425 148.224 219.425 147.271C219.425 146.318 220.185 145.532 221.138 145.532C222.092 145.532 222.877 146.305 222.877 147.271Z" fill="white"/>
<path d="M228.707 182.087C228.707 183.04 227.935 183.826 226.969 183.826C226.041 183.826 225.256 183.04 225.256 182.087C225.256 181.134 226.041 180.348 226.969 180.348C227.922 180.348 228.707 181.134 228.707 182.087Z" fill="white"/>
<path d="M247.242 200.467C247.242 201.433 246.457 202.205 245.504 202.205C244.55 202.205 243.765 201.433 243.765 200.467C243.765 199.526 244.55 198.741 245.504 198.741C246.457 198.741 247.242 199.514 247.242 200.467Z" fill="white"/>
<path d="M108.99 186.917C108.99 187.87 108.204 188.643 107.251 188.643C106.298 188.643 105.512 187.87 105.512 186.917C105.512 185.964 106.298 185.178 107.251 185.178C108.204 185.178 108.99 185.964 108.99 186.917Z" fill="white"/>
<path d="M156.993 187.2C156.993 188.153 156.208 188.926 155.254 188.926C154.301 188.926 153.541 188.153 153.541 187.2C153.541 186.247 154.301 185.461 155.254 185.461C156.208 185.461 156.993 186.247 156.993 187.2Z" fill="white"/>
<path d="M276.083 179.266C276.083 180.232 275.298 181.005 274.345 181.005C273.391 181.005 272.606 180.245 272.606 179.266C272.606 178.326 273.391 177.54 274.345 177.54C275.298 177.54 276.083 178.326 276.083 179.266Z" fill="white"/>
<path d="M312.906 129.677C312.906 130.63 312.133 131.403 311.167 131.403C310.214 131.403 309.429 130.643 309.429 129.677C309.429 128.724 310.214 127.938 311.167 127.938C312.121 127.951 312.906 128.724 312.906 129.677Z" fill="white"/>
<path d="M218.972 170.634C218.972 171.587 218.212 172.373 217.259 172.373C216.306 172.373 215.52 171.587 215.52 170.634C215.52 169.681 216.293 168.908 217.259 168.908C218.212 168.908 218.972 169.681 218.972 170.634Z" fill="white"/>
<path d="M222.086 105.668C222.086 106.621 221.3 107.407 220.347 107.407C219.394 107.407 218.609 106.621 218.609 105.668C218.609 104.715 219.394 103.942 220.347 103.942C221.3 103.942 222.086 104.715 222.086 105.668Z" fill="white"/>
<path d="M260.148 86.8643C260.148 87.8174 259.362 88.5902 258.409 88.5902C257.456 88.5902 256.67 87.8174 256.67 86.8643C256.67 85.9112 257.456 85.1255 258.409 85.1255C259.362 85.1255 260.148 85.9112 260.148 86.8643Z" fill="white"/>
<path d="M290.523 81.7891C290.523 82.7422 289.737 83.515 288.784 83.515C287.856 83.515 287.071 82.7422 287.071 81.7891C287.071 80.836 287.856 80.0503 288.784 80.0503C289.737 80.0503 290.523 80.8231 290.523 81.7891Z" fill="white"/>
<path d="M312.403 81.7891C312.403 82.7422 311.617 83.515 310.664 83.515C309.711 83.515 308.925 82.7422 308.925 81.7891C308.925 80.836 309.711 80.0503 310.664 80.0503C311.617 80.0503 312.403 80.8231 312.403 81.7891Z" fill="white"/>
<path d="M311.976 89.993C311.976 90.9461 311.19 91.7318 310.237 91.7318C309.284 91.7318 308.498 90.9461 308.498 89.993C308.498 89.0399 309.284 88.2671 310.237 88.2671C311.19 88.28 311.976 89.0399 311.976 89.993Z" fill="white"/>
<path d="M284.826 99.9488C284.826 100.902 284.04 101.675 283.087 101.675C282.134 101.675 281.348 100.902 281.348 99.9488C281.348 98.9956 282.134 98.21 283.087 98.21C284.04 98.21 284.826 98.9956 284.826 99.9488Z" fill="white"/>
<path d="M252.128 115.549C252.128 116.515 251.368 117.287 250.415 117.287C249.461 117.287 248.676 116.515 248.676 115.549C248.676 114.608 249.461 113.823 250.415 113.823C251.368 113.823 252.128 114.596 252.128 115.549Z" fill="white"/>
<path d="M130.617 121.319C130.617 122.272 129.831 123.057 128.878 123.057C127.925 123.057 127.152 122.272 127.152 121.319C127.152 120.366 127.925 119.593 128.878 119.593C129.831 119.593 130.617 120.366 130.617 121.319Z" fill="white"/>
<path d="M150.065 132.845C150.065 134.197 148.971 135.292 147.618 135.292C146.266 135.292 145.171 134.197 145.171 132.845C145.171 131.48 146.279 130.385 147.618 130.385C148.971 130.398 150.065 131.492 150.065 132.845Z" fill="white"/>
<path d="M217.861 122.244C217.861 123.596 216.753 124.691 215.426 124.691C214.074 124.691 212.966 123.596 212.966 122.244C212.966 120.904 214.074 119.81 215.426 119.81C216.753 119.81 217.861 120.904 217.861 122.244Z" fill="white"/>
<path d="M266.292 122.361C266.292 123.713 265.211 124.808 263.858 124.808C262.506 124.808 261.424 123.713 261.424 122.361C261.424 121.021 262.506 119.914 263.858 119.914C265.211 119.914 266.292 121.021 266.292 122.361Z" fill="white"/>
<path d="M124.255 154.91C124.255 156.25 123.16 157.344 121.821 157.344C120.468 157.344 119.373 156.25 119.373 154.91C119.373 153.558 120.468 152.463 121.821 152.463C123.173 152.463 124.255 153.558 124.255 154.91Z" fill="white"/>
</g>
<mask id="mask1_261_6987" style="mask-type:luminance" maskUnits="userSpaceOnUse" x="0" y="0" width="322" height="322">
<path d="M322 0H0V322H322V0Z" fill="white"/>
</mask>
<g mask="url(#mask1_261_6987)">
<g opacity="0.07">
<path d="M58.4061 252.242H80.1089V253.581H58.9599L41.1082 271.884H1.37344L-6.21288 279.47H-40.7055L-60.9786 259.184L-60.0513 258.257L-40.1517 278.131H-6.7796L0.806721 270.544H40.5415L58.4061 252.242Z" fill="white"/>
<path d="M-59.6268 224.677H-23.3052L2.27445 250.218H28.2663L52.5966 225.9H136.639L156.306 245.555H184.166V246.882H155.74L136.085 227.253H53.1505L28.833 251.557H1.70773L-23.872 226.016H-59.6268V224.677Z" fill="white"/>
<path d="M133.419 206.917H190.478L200.498 216.976H241.753V218.302H199.932L189.911 208.269H133.973L99.6994 242.53H47.355L23.5142 266.383H-39.8297L-50.4557 255.732H-60.9786V254.392H-49.889L-39.263 265.031H22.9603L46.8012 241.19H99.1584L133.419 206.917Z" fill="white"/>
<path d="M14.0374 126.558H37.2986L61.2039 150.451H91.5621L158.989 217.852H183.693V219.204H158.409L91.0082 151.777H60.6372L36.7577 127.91H14.0374V126.558Z" fill="white"/>
<path d="M-14.6364 201.326H19.2766L32.9037 214.94H107.363V217.632H31.8089L18.1561 204.018H-13.5416L-30.8523 221.328H-60.9786V218.662H-31.9471L-14.6364 201.326Z" fill="white"/>
<path d="M44.575 176.339H98.4263V177.666H45.1288L28.372 194.422H-29.8843L-40.7035 205.254H-63.2177V203.915H-41.2831L-30.4381 193.07H27.8181L44.575 176.339Z" fill="white"/>
<path d="M6.34913 151.61H30.1642L81.1304 202.564H114.052L138.511 178.117H218.663L232.264 164.516H251.584V167.195H233.372L219.771 180.796H139.618L115.172 205.256H80.0227L29.0566 154.289H7.45681L-3.45255 165.199H-62.765V162.52H-4.57311L6.34913 151.61Z" fill="white"/>
<path d="M37.1412 158.022H125.099L165.503 198.427H212.283V201.118H164.421L123.991 160.701H38.2747L19.3926 179.57H-60.9786V176.878H18.2849L37.1412 158.022Z" fill="white"/>
<path d="M221.828 148.632H251.581V149.972H222.382L202.508 169.871H145.321V168.519H201.98L221.828 148.632Z" fill="white"/>
<path d="M-41.5927 93.7383H60.7518L89.7833 122.744H141.999L162.53 143.275H183.266V144.627H162.001L141.471 124.096H89.2294L60.1979 95.0907H-41.0518L-59.3414 113.38H-65.8844V112.041H-59.8952L-41.5927 93.7383Z" fill="white"/>
<path d="M-24.6556 58.0103H61.6404L70.5662 66.9361H117.475L178.629 128.103H261.113L273.426 115.79L274.379 116.743L261.667 129.456H178.076L116.896 68.2885H70.0253L61.0994 59.3498H-24.076L-30.7865 66.0603H-64.5321V64.7079H-31.3532L-24.6556 58.0103Z" fill="white"/>
<path d="M129.853 114.709H200.668V116.062H130.407L104.519 141.951H11.6408L-17.8286 171.42H-63.2177V170.081H-18.3696L11.0741 140.611H103.939L129.853 114.709Z" fill="white"/>
<path d="M77.4558 252.912C77.4558 251.43 78.6408 250.22 80.1091 250.22C81.5774 250.22 82.7881 251.43 82.7881 252.912C82.7881 254.393 81.5774 255.578 80.1091 255.578C78.6279 255.578 77.4558 254.393 77.4558 252.912Z" fill="white"/>
<path d="M181.477 246.006C181.477 244.525 182.688 243.314 184.169 243.314C185.65 243.314 186.835 244.525 186.835 246.006C186.835 247.462 185.65 248.673 184.169 248.673C182.688 248.673 181.477 247.462 181.477 246.006Z" fill="white"/>
<path d="M180.59 217.85C180.59 216.381 181.801 215.184 183.282 215.184C184.751 215.184 185.961 216.381 185.961 217.85C185.961 219.331 184.751 220.542 183.282 220.542C181.788 220.542 180.59 219.331 180.59 217.85Z" fill="white"/>
<path d="M248.437 149.318C248.437 147.85 249.648 146.639 251.129 146.639C252.61 146.639 253.795 147.85 253.795 149.318C253.795 150.799 252.61 151.997 251.129 151.997C249.648 151.997 248.437 150.799 248.437 149.318Z" fill="white"/>
<path d="M142.63 169.204C142.63 167.723 143.84 166.512 145.321 166.512C146.803 166.512 147.988 167.723 147.988 169.204C147.988 170.685 146.803 171.896 145.321 171.896C143.84 171.896 142.63 170.685 142.63 169.204Z" fill="white"/>
<path d="M180.138 144.176C180.138 142.695 181.348 141.51 182.817 141.51C184.285 141.51 185.483 142.695 185.483 144.176C185.483 145.658 184.285 146.868 182.817 146.868C181.348 146.868 180.138 145.67 180.138 144.176Z" fill="white"/>
<path d="M175.22 128.105C175.22 126.636 176.431 125.438 177.886 125.438C179.367 125.438 180.578 126.636 180.578 128.105C180.578 129.586 179.367 130.797 177.886 130.797C176.431 130.797 175.22 129.586 175.22 128.105Z" fill="white"/>
<path d="M59.0414 151.557C59.0414 150.076 60.2263 148.878 61.7075 148.878C63.1887 148.878 64.3737 150.076 64.3737 151.557C64.3737 153.025 63.1887 154.236 61.7075 154.236C60.2263 154.236 59.0414 153.025 59.0414 151.557Z" fill="white"/>
<path d="M25.5275 194.423C25.5275 192.955 26.7382 191.744 28.2194 191.744C29.7006 191.744 30.9113 192.955 30.9113 194.423C30.9113 195.904 29.7006 197.089 28.2194 197.089C26.7382 197.089 25.5275 195.904 25.5275 194.423Z" fill="white"/>
<path d="M133.718 226.583C133.718 225.088 134.916 223.891 136.384 223.891C137.853 223.891 139.063 225.088 139.063 226.583C139.063 228.038 137.853 229.249 136.384 229.249C134.916 229.249 133.718 228.038 133.718 226.583Z" fill="white"/>
<path d="M95.543 177.446C95.543 175.965 96.7279 174.754 98.2091 174.754C99.6774 174.754 100.875 175.965 100.875 177.446C100.875 178.915 99.6774 180.125 98.2091 180.125C96.7279 180.125 95.543 178.928 95.543 177.446Z" fill="white"/>
<path d="M86.5125 123.543C86.5125 122.061 87.6974 120.851 89.1786 120.851C90.6212 120.851 91.8319 122.061 91.8319 123.543C91.8319 125.011 90.6212 126.222 89.1786 126.222C87.6974 126.222 86.5125 125.011 86.5125 123.543Z" fill="white"/>
<path d="M57.7778 95.0908C57.7778 93.5968 58.9886 92.3989 60.4698 92.3989C61.951 92.3989 63.1617 93.5968 63.1617 95.0908C63.1617 96.5463 61.951 97.757 60.4698 97.757C58.9886 97.757 57.7778 96.5463 57.7778 95.0908Z" fill="white"/>
<path d="M271.883 116.061C271.883 114.58 273.093 113.382 274.575 113.382C276.043 113.382 277.241 114.58 277.241 116.061C277.241 117.53 276.043 118.74 274.575 118.74C273.093 118.74 271.883 117.53 271.883 116.061Z" fill="white"/>
<path d="M197.564 115.621C197.564 114.14 198.762 112.942 200.243 112.942C201.711 112.942 202.909 114.14 202.909 115.621C202.909 117.089 201.711 118.3 200.243 118.3C198.762 118.3 197.564 117.089 197.564 115.621Z" fill="white"/>
<path d="M13.1501 127.91C13.1501 126.403 14.3609 125.231 15.8292 125.231C17.3104 125.231 18.5082 126.403 18.5082 127.91C18.5082 129.353 17.3104 130.563 15.8292 130.563C14.348 130.563 13.1501 129.353 13.1501 127.91Z" fill="white"/>
<path d="M101.556 141.265C101.556 139.784 102.74 138.573 104.222 138.573C105.703 138.573 106.914 139.784 106.914 141.265C106.914 142.733 105.703 143.931 104.222 143.931C102.74 143.931 101.556 142.733 101.556 141.265Z" fill="white"/>
<path d="M96.7511 241.872C96.7511 240.39 97.9618 239.18 99.443 239.18C100.911 239.18 102.122 240.39 102.122 241.872C102.122 243.34 100.911 244.538 99.443 244.538C97.9489 244.538 96.7511 243.353 96.7511 241.872Z" fill="white"/>
<path d="M37.8101 270.98C37.8101 269.511 39.0208 268.313 40.4891 268.313C41.9703 268.313 43.181 269.511 43.181 270.98C43.181 272.461 41.9703 273.672 40.4891 273.672C39.0079 273.672 37.8101 272.461 37.8101 270.98Z" fill="white"/>
<path d="M-0.4021 250.735C-0.4021 249.254 0.80862 248.069 2.27694 248.069C3.74526 248.069 4.95598 249.254 4.95598 250.735C4.95598 252.216 3.74526 253.427 2.27694 253.427C0.80862 253.427 -0.4021 252.216 -0.4021 250.735Z" fill="white"/>
<path d="M50.2059 226.583C50.2059 225.088 51.3909 223.891 52.8721 223.891C54.3533 223.891 55.564 225.088 55.564 226.583C55.564 228.038 54.3533 229.249 52.8721 229.249C51.3909 229.249 50.2059 228.038 50.2059 226.583Z" fill="white"/>
<path d="M238.406 217.633C238.406 216.152 239.617 214.941 241.098 214.941C242.579 214.941 243.764 216.152 243.764 217.633C243.764 219.102 242.579 220.299 241.098 220.299C239.617 220.299 238.406 219.115 238.406 217.633Z" fill="white"/>
<path d="M208.281 199.779C208.281 197.667 209.968 195.967 212.068 195.967C214.167 195.967 215.867 197.667 215.867 199.779C215.867 201.866 214.167 203.579 212.068 203.579C209.968 203.579 208.281 201.866 208.281 199.779Z" fill="white"/>
<path d="M103.292 216.191C103.292 214.104 104.992 212.391 107.065 212.391C109.178 212.391 110.891 214.104 110.891 216.191C110.891 218.277 109.178 219.965 107.065 219.965C104.979 219.965 103.292 218.277 103.292 216.191Z" fill="white"/>
<path d="M28.2693 216.008C28.2693 213.908 29.9694 212.221 32.0689 212.221C34.1554 212.221 35.8556 213.908 35.8556 216.008C35.8556 218.107 34.1554 219.808 32.0689 219.808C29.9694 219.808 28.2693 218.12 28.2693 216.008Z" fill="white"/>
<path d="M248.223 165.61C248.223 163.511 249.923 161.836 252.035 161.836C254.122 161.836 255.809 163.511 255.809 165.61C255.809 167.71 254.122 169.397 252.035 169.397C249.923 169.397 248.223 167.71 248.223 165.61Z" fill="white"/>
</g>
<g opacity="0.2">
<path d="M70.7211 230.771H86.7567V231.749H71.1204L57.9313 245.299H28.552L22.9105 250.902H-2.59185L-17.5842 235.897L-16.9015 235.214L-2.16681 249.91H22.5113L28.1269 244.307H57.5062L70.7211 230.771Z" fill="white"/>
<path d="M-16.5781 210.381H10.2896L29.2103 229.276H48.4402L66.4335 211.283H128.592L143.121 225.812H163.729V226.803H142.709L128.167 212.275H66.8328L48.8523 230.268H28.7853L9.87746 211.373H-16.5781V210.381Z" fill="white"/>
<path d="M126.214 197.244H168.396L175.815 204.688H206.327V205.667H175.39L167.984 198.248H126.613L101.265 223.583H62.535L44.9281 241.229H-1.91647L-9.78615 233.346H-17.5657V232.355H-9.37399L-1.50431 240.224H44.503L62.1358 222.591H100.866L126.214 197.244Z" fill="white"/>
<path d="M37.9041 137.815H55.1117L72.7702 155.474H95.2458L145.104 205.332H163.394V206.337H144.679L94.8337 156.466H72.3709L54.6996 138.807H37.9041V137.815Z" fill="white"/>
<path d="M16.708 193.109H41.7854L51.8446 203.181H106.932V205.177H51.0461L40.961 195.105H17.5066L4.71673 207.908H-17.5657V205.924H3.90528L16.708 193.109Z" fill="white"/>
<path d="M60.4947 174.638H100.32V175.617H60.9068L48.5034 188.007H5.41978L-2.59159 196.018H-19.2197V195.027H-3.00375L5.00762 187.002H48.0912L60.4947 174.638Z" fill="white"/>
<path d="M32.2281 156.336H49.835L87.5219 194.023H111.891L129.962 175.94H189.235L199.32 165.881H213.591V167.864H200.119L190.06 177.923H130.786L112.702 196.02H86.6976L49.0236 158.32H33.0266L24.9766 166.396H-18.8926V164.412H24.1394L32.2281 156.336Z" fill="white"/>
<path d="M55.0002 161.088H120.044L149.939 190.969H184.534V192.953H149.127L119.233 163.059H55.8246L41.8626 177.02H-17.5657V175.037H41.0641L55.0002 161.088Z" fill="white"/>
<path d="M191.589 154.148H213.588V155.14H191.989L177.305 169.836H134.995V168.844H176.893L191.589 154.148Z" fill="white"/>
<path d="M-3.24566 113.536H72.4501L93.9211 134.994H132.548L147.747 150.18H163.061V151.172H147.334L132.149 135.999H93.5089L72.0508 114.541H-2.8335L-16.3704 128.065H-21.2004V127.073H-16.7825L-3.24566 113.536Z" fill="white"/>
<path d="M9.30092 87.1191H73.1213L79.7159 93.7137H114.415L159.636 138.961H220.649L229.755 129.855L230.463 130.563L221.061 139.953H159.237L113.99 94.7183H79.3166L72.722 88.1109H9.71309L4.75428 93.0697H-20.1943V92.0651H4.34212L9.30092 87.1191Z" fill="white"/>
<path d="M123.568 129.042H175.938V130.047H123.967L104.828 149.199H36.1386L14.3327 170.979H-19.2197V170H13.9335L35.7135 148.207H104.39L123.568 129.042Z" fill="white"/>
<path d="M84.8019 231.26C84.8019 230.166 85.6777 229.277 86.7596 229.277C87.8673 229.277 88.7432 230.166 88.7432 231.26C88.7432 232.355 87.8673 233.231 86.7596 233.231C85.6777 233.231 84.8019 232.355 84.8019 231.26Z" fill="white"/>
<path d="M161.748 226.16C161.748 225.065 162.637 224.176 163.732 224.176C164.826 224.176 165.702 225.065 165.702 226.16C165.702 227.242 164.826 228.13 163.732 228.13C162.637 228.13 161.748 227.242 161.748 226.16Z" fill="white"/>
<path d="M161.076 205.331C161.076 204.236 161.977 203.36 163.059 203.36C164.167 203.36 165.043 204.236 165.043 205.331C165.043 206.425 164.167 207.314 163.059 207.314C161.977 207.327 161.076 206.425 161.076 205.331Z" fill="white"/>
<path d="M211.268 154.651C211.268 153.556 212.157 152.667 213.239 152.667C214.347 152.667 215.222 153.556 215.222 154.651C215.222 155.745 214.347 156.621 213.239 156.621C212.17 156.621 211.268 155.745 211.268 154.651Z" fill="white"/>
<path d="M133.014 169.344C133.014 168.25 133.902 167.361 134.997 167.361C136.092 167.361 136.968 168.25 136.968 169.344C136.968 170.439 136.092 171.328 134.997 171.328C133.902 171.341 133.014 170.439 133.014 169.344Z" fill="white"/>
<path d="M160.755 150.848C160.755 149.753 161.631 148.877 162.726 148.877C163.82 148.877 164.696 149.753 164.696 150.848C164.696 151.943 163.82 152.832 162.726 152.832C161.644 152.832 160.755 151.943 160.755 150.848Z" fill="white"/>
<path d="M157.126 138.962C157.126 137.867 158.002 136.991 159.084 136.991C160.191 136.991 161.067 137.867 161.067 138.962C161.067 140.057 160.191 140.945 159.084 140.945C158.015 140.945 157.126 140.057 157.126 138.962Z" fill="white"/>
<path d="M71.1857 156.298C71.1857 155.203 72.0615 154.327 73.1434 154.327C74.2511 154.327 75.127 155.203 75.127 156.298C75.127 157.393 74.2511 158.281 73.1434 158.281C72.0744 158.281 71.1857 157.393 71.1857 156.298Z" fill="white"/>
<path d="M46.4196 188.007C46.4196 186.913 47.2954 186.024 48.4031 186.024C49.485 186.024 50.3866 186.913 50.3866 188.007C50.3866 189.102 49.485 189.978 48.4031 189.978C47.2954 189.978 46.4196 189.102 46.4196 188.007Z" fill="white"/>
<path d="M126.404 211.783C126.404 210.676 127.28 209.8 128.387 209.8C129.469 209.8 130.345 210.676 130.345 211.783C130.345 212.865 129.469 213.754 128.387 213.754C127.293 213.767 126.404 212.865 126.404 211.783Z" fill="white"/>
<path d="M98.1851 175.451C98.1851 174.356 99.0609 173.468 100.143 173.468C101.25 173.468 102.126 174.356 102.126 175.451C102.126 176.546 101.25 177.435 100.143 177.435C99.0609 177.435 98.1851 176.546 98.1851 175.451Z" fill="white"/>
<path d="M91.4996 135.572C91.4996 134.478 92.3755 133.589 93.4832 133.589C94.5522 133.589 95.4409 134.478 95.4409 135.572C95.4409 136.667 94.5522 137.556 93.4832 137.556C92.3755 137.569 91.4996 136.667 91.4996 135.572Z" fill="white"/>
<path d="M70.2612 114.542C70.2612 113.434 71.15 112.558 72.2448 112.558C73.3524 112.558 74.2283 113.434 74.2283 114.542C74.2283 115.624 73.3524 116.512 72.2448 116.512C71.15 116.512 70.2612 115.624 70.2612 114.542Z" fill="white"/>
<path d="M228.62 130.047C228.62 128.952 229.496 128.077 230.591 128.077C231.686 128.077 232.561 128.952 232.561 130.047C232.561 131.142 231.686 132.031 230.591 132.031C229.496 132.031 228.62 131.142 228.62 130.047Z" fill="white"/>
<path d="M173.635 129.714C173.635 128.619 174.511 127.743 175.605 127.743C176.7 127.743 177.576 128.619 177.576 129.714C177.576 130.809 176.7 131.697 175.605 131.697C174.523 131.71 173.635 130.809 173.635 129.714Z" fill="white"/>
<path d="M37.25 138.805C37.25 137.685 38.1387 136.822 39.2335 136.822C40.3283 136.822 41.2042 137.685 41.2042 138.805C41.2042 139.874 40.3283 140.763 39.2335 140.763C38.1387 140.776 37.25 139.874 37.25 138.805Z" fill="white"/>
<path d="M102.644 148.685C102.644 147.59 103.52 146.702 104.601 146.702C105.709 146.702 106.585 147.59 106.585 148.685C106.585 149.78 105.709 150.656 104.601 150.656C103.52 150.656 102.644 149.78 102.644 148.685Z" fill="white"/>
<path d="M99.0715 223.094C99.0715 221.999 99.9603 221.11 101.055 221.11C102.15 221.11 103.039 221.999 103.039 223.094C103.039 224.189 102.15 225.065 101.055 225.065C99.9603 225.065 99.0715 224.189 99.0715 223.094Z" fill="white"/>
<path d="M55.4883 244.627C55.4883 243.533 56.377 242.657 57.4718 242.657C58.5666 242.657 59.4553 243.533 59.4553 244.627C59.4553 245.722 58.5666 246.611 57.4718 246.611C56.377 246.611 55.4883 245.722 55.4883 244.627Z" fill="white"/>
<path d="M20.6841 250.451C20.6841 249.356 21.5729 248.48 22.6677 248.48C23.7496 248.48 24.6383 249.356 24.6383 250.451C24.6383 251.546 23.7496 252.435 22.6677 252.435C21.5857 252.448 20.6841 251.546 20.6841 250.451Z" fill="white"/>
<path d="M-3.87396 241.049C-3.87396 239.955 -2.97236 239.066 -1.89044 239.066C-0.782762 239.066 0.0930777 239.955 0.0930777 241.049C0.0930777 242.144 -0.782762 243.02 -1.89044 243.02C-2.95948 243.02 -3.87396 242.144 -3.87396 241.049Z" fill="white"/>
<path d="M27.2126 229.65C27.2126 228.556 28.1014 227.68 29.1962 227.68C30.291 227.68 31.1668 228.556 31.1668 229.65C31.1668 230.745 30.291 231.634 29.1962 231.634C28.1014 231.634 27.2126 230.745 27.2126 229.65Z" fill="white"/>
<path d="M64.6578 211.783C64.6578 210.676 65.5337 209.8 66.6414 209.8C67.7233 209.8 68.6249 210.676 68.6249 211.783C68.6249 212.865 67.7233 213.754 66.6414 213.754C65.5337 213.767 64.6578 212.865 64.6578 211.783Z" fill="white"/>
<path d="M203.841 205.176C203.841 204.082 204.73 203.193 205.825 203.193C206.933 203.193 207.808 204.082 207.808 205.176C207.808 206.271 206.933 207.147 205.825 207.147C204.743 207.147 203.841 206.271 203.841 205.176Z" fill="white"/>
<path d="M181.571 191.961C181.571 190.402 182.821 189.14 184.379 189.14C185.925 189.14 187.174 190.402 187.174 191.961C187.174 193.506 185.925 194.769 184.379 194.769C182.808 194.769 181.571 193.506 181.571 191.961Z" fill="white"/>
<path d="M103.914 204.108C103.914 202.562 105.176 201.3 106.709 201.3C108.267 201.3 109.529 202.562 109.529 204.108C109.529 205.653 108.267 206.903 106.709 206.903C105.176 206.89 103.914 205.653 103.914 204.108Z" fill="white"/>
<path d="M48.4446 203.979C48.4446 202.42 49.6939 201.171 51.2524 201.171C52.798 201.171 54.0474 202.42 54.0474 203.979C54.0474 205.524 52.798 206.787 51.2524 206.787C49.6811 206.787 48.4446 205.524 48.4446 203.979Z" fill="white"/>
<path d="M211.117 166.691C211.117 165.145 212.38 163.896 213.938 163.896C215.471 163.896 216.733 165.145 216.733 166.691C216.733 168.249 215.471 169.499 213.938 169.499C212.367 169.499 211.117 168.262 211.117 166.691Z" fill="white"/>
</g>
<path d="M75.1686 223.029H89.182V223.892H75.5163L64.0016 235.716H38.3447L33.4374 240.623H11.1421L-1.93109 227.512L-1.33861 226.906L11.5285 239.748H33.051L37.9583 234.84H63.6152L75.1686 223.029Z" fill="white"/>
<path d="M-1.05646 205.228H22.3851L38.9102 221.727H55.6928L71.4193 206.014H125.683L138.382 218.701H156.376V219.576H138.009L125.322 206.89H71.7671L56.0792 222.59H38.5367L22.0374 206.091H-1.05646V205.228Z" fill="white"/>
<path d="M123.597 193.766H160.447L166.913 200.258H193.549V201.108H166.565L160.074 194.629H123.971L101.83 216.757H68.0202L52.6286 232.149H11.7217L4.85667 225.283H-1.93109V224.421H5.23019L12.0952 231.286H52.2808L67.6724 215.894H101.482L123.597 193.766Z" fill="white"/>
<path d="M46.5074 141.872H61.5255L76.9558 157.289H96.572L140.094 200.824H156.065V201.687H139.746L96.2242 158.152H76.5951L61.1778 142.735H46.5074V141.872Z" fill="white"/>
<path d="M28.002 190.159H49.8851L58.6951 198.943H106.763V200.682H57.9867L49.1767 191.885H28.7104L17.5306 203.065H-1.93109V201.339H16.8093L28.002 190.159Z" fill="white"/>
<path d="M66.2388 174.021H101.002V174.872H66.5865L55.7673 185.691H18.132L11.1381 192.685H-3.37762V191.822H10.7904L17.7842 184.828H55.4196L66.2388 174.021Z" fill="white"/>
<path d="M41.5352 158.051H56.9268L89.8352 190.946H111.087L126.891 175.168H178.63L187.427 166.371H199.882V168.11H188.135L179.351 176.894H127.586L111.821 192.685H89.101L56.1926 159.777H42.2565L35.2111 166.822H-3.09399V165.083H34.4898L41.5352 158.051Z" fill="white"/>
<path d="M61.4385 162.195H118.239L144.321 188.277H174.538V190.016H143.613L117.505 163.921H62.1598L49.9624 176.106H-1.93109V174.367H49.254L61.4385 162.195Z" fill="white"/>
<path d="M180.692 156.129H199.883V156.992H181.052L168.224 169.834H131.284V168.958H167.863L180.692 156.129Z" fill="white"/>
<path d="M10.5868 120.672H76.6741L95.4145 139.412H129.147L142.414 152.679H155.796V153.542H142.053L128.799 140.288H95.0667L76.3263 121.548H10.9475L-0.876373 133.359H-5.10101V132.496H-1.23701L10.5868 120.672Z" fill="white"/>
<path d="M21.5337 97.603H77.2526L83.0099 103.36H113.304L152.794 142.876H206.053L214 134.929L214.618 135.535L206.413 143.739H152.446L112.93 104.236H82.6622L76.9048 98.4789H21.8814L17.5538 102.794H-4.22632V101.931H17.206L21.5337 97.603Z" fill="white"/>
<path d="M121.301 134.222H167.038V135.085H121.649L104.917 151.816H44.9481L25.9373 170.84H-3.37762V169.977H25.5766L44.6004 150.953H104.57L121.301 134.222Z" fill="white"/>
<path d="M87.443 223.466C87.443 222.513 88.2287 221.728 89.1818 221.728C90.1349 221.728 90.9206 222.513 90.9206 223.466C90.9206 224.419 90.1349 225.192 89.1818 225.192C88.2287 225.192 87.443 224.419 87.443 223.466Z" fill="white"/>
<path d="M154.635 218.998C154.635 218.044 155.408 217.259 156.374 217.259C157.327 217.259 158.087 218.032 158.087 218.998C158.087 219.938 157.327 220.723 156.374 220.723C155.408 220.723 154.635 219.938 154.635 218.998Z" fill="white"/>
<path d="M154.057 200.822C154.057 199.869 154.842 199.096 155.796 199.096C156.749 199.096 157.534 199.869 157.534 200.822C157.534 201.775 156.749 202.561 155.796 202.561C154.83 202.561 154.057 201.775 154.057 200.822Z" fill="white"/>
<path d="M197.872 156.569C197.872 155.616 198.658 154.831 199.611 154.831C200.564 154.831 201.337 155.616 201.337 156.569C201.337 157.522 200.577 158.295 199.611 158.295C198.658 158.295 197.872 157.535 197.872 156.569Z" fill="white"/>
<path d="M129.561 169.396C129.561 168.443 130.333 167.657 131.299 167.657C132.253 167.657 133.013 168.443 133.013 169.396C133.013 170.349 132.253 171.135 131.299 171.135C130.333 171.135 129.561 170.362 129.561 169.396Z" fill="white"/>
<path d="M153.774 153.245C153.774 152.292 154.533 151.52 155.487 151.52C156.44 151.52 157.225 152.292 157.225 153.245C157.225 154.199 156.44 154.984 155.487 154.984C154.533 154.984 153.774 154.211 153.774 153.245Z" fill="white"/>
<path d="M150.579 142.878C150.579 141.925 151.365 141.152 152.318 141.152C153.271 141.152 154.056 141.925 154.056 142.878C154.056 143.831 153.271 144.617 152.318 144.617C151.365 144.604 150.579 143.831 150.579 142.878Z" fill="white"/>
<path d="M75.569 158.009C75.569 157.056 76.3289 156.283 77.282 156.283C78.2351 156.283 79.0208 157.056 79.0208 158.009C79.0208 158.962 78.2351 159.735 77.282 159.735C76.3289 159.735 75.569 158.962 75.569 158.009Z" fill="white"/>
<path d="M53.9412 185.691C53.9412 184.738 54.7268 183.952 55.68 183.952C56.6331 183.952 57.4188 184.738 57.4188 185.691C57.4188 186.644 56.6331 187.417 55.68 187.417C54.714 187.417 53.9412 186.644 53.9412 185.691Z" fill="white"/>
<path d="M123.788 206.451C123.788 205.485 124.548 204.712 125.501 204.712C126.454 204.712 127.24 205.485 127.24 206.451C127.24 207.391 126.454 208.177 125.501 208.177C124.548 208.177 123.788 207.404 123.788 206.451Z" fill="white"/>
<path d="M99.134 174.729C99.134 173.776 99.894 172.99 100.847 172.99C101.8 172.99 102.586 173.776 102.586 174.729C102.586 175.682 101.8 176.468 100.847 176.468C99.894 176.468 99.134 175.695 99.134 174.729Z" fill="white"/>
<path d="M93.3048 139.913C93.3048 138.96 94.0647 138.174 95.0178 138.174C95.971 138.174 96.7567 138.96 96.7567 139.913C96.7567 140.866 95.971 141.651 95.0178 141.651C94.0647 141.651 93.3048 140.879 93.3048 139.913Z" fill="white"/>
<path d="M74.7701 121.549C74.7701 120.583 75.5558 119.81 76.5089 119.81C77.4621 119.81 78.2477 120.583 78.2477 121.549C78.2477 122.489 77.4621 123.275 76.5089 123.275C75.5429 123.262 74.7701 122.489 74.7701 121.549Z" fill="white"/>
<path d="M213.023 135.083C213.023 134.13 213.783 133.357 214.749 133.357C215.702 133.357 216.475 134.13 216.475 135.083C216.475 136.036 215.715 136.822 214.749 136.822C213.796 136.822 213.023 136.049 213.023 135.083Z" fill="white"/>
<path d="M165.031 134.8C165.031 133.847 165.791 133.074 166.744 133.074C167.697 133.074 168.483 133.847 168.483 134.8C168.483 135.753 167.697 136.538 166.744 136.538C165.791 136.538 165.031 135.753 165.031 134.8Z" fill="white"/>
<path d="M45.929 142.733C45.929 141.767 46.7146 140.995 47.6678 140.995C48.6209 140.995 49.3808 141.755 49.3808 142.733C49.3808 143.674 48.6209 144.459 47.6678 144.459C46.7146 144.459 45.929 143.674 45.929 142.733Z" fill="white"/>
<path d="M9.10645 192.323C9.10645 191.369 9.89213 190.597 10.8452 190.597C11.7984 190.597 12.5583 191.357 12.5583 192.323C12.5583 193.276 11.7984 194.061 10.8452 194.061C9.89213 194.061 9.10645 193.276 9.10645 192.323Z" fill="white"/>
<path d="M103.015 151.365C103.015 150.412 103.801 149.626 104.754 149.626C105.707 149.626 106.493 150.412 106.493 151.365C106.493 152.318 105.707 153.091 104.754 153.091C103.801 153.091 103.015 152.318 103.015 151.365Z" fill="white"/>
<path d="M99.9202 216.331C99.9202 215.378 100.706 214.592 101.659 214.592C102.612 214.592 103.398 215.378 103.398 216.331C103.398 217.284 102.612 218.057 101.659 218.057C100.706 218.057 99.9202 217.284 99.9202 216.331Z" fill="white"/>
<path d="M61.8657 235.136C61.8657 234.182 62.6514 233.41 63.6045 233.41C64.5576 233.41 65.3433 234.17 65.3433 235.136C65.3433 236.089 64.5576 236.874 63.6045 236.874C62.6514 236.874 61.8657 236.089 61.8657 235.136Z" fill="white"/>
<path d="M31.4641 240.21C31.4641 239.257 32.2498 238.484 33.2029 238.484C34.156 238.484 34.9417 239.257 34.9417 240.21C34.9417 241.163 34.156 241.949 33.2029 241.949C32.2498 241.949 31.4641 241.176 31.4641 240.21Z" fill="white"/>
<path d="M9.60962 240.21C9.60962 239.257 10.3953 238.484 11.3484 238.484C12.3015 238.484 13.0615 239.257 13.0615 240.21C13.0615 241.163 12.3015 241.949 11.3484 241.949C10.3953 241.949 9.60962 241.176 9.60962 240.21Z" fill="white"/>
<path d="M10.0309 232.007C10.0309 231.054 10.8166 230.268 11.7697 230.268C12.7228 230.268 13.5085 231.054 13.5085 232.007C13.5085 232.96 12.7228 233.733 11.7697 233.733C10.8166 233.72 10.0309 232.96 10.0309 232.007Z" fill="white"/>
<path d="M37.1868 222.051C37.1868 221.097 37.9724 220.325 38.9256 220.325C39.8787 220.325 40.6386 221.097 40.6386 222.051C40.6386 223.004 39.8787 223.789 38.9256 223.789C37.9596 223.789 37.1868 223.017 37.1868 222.051Z" fill="white"/>
<path d="M69.8591 206.451C69.8591 205.485 70.6448 204.712 71.5979 204.712C72.5511 204.712 73.3367 205.485 73.3367 206.451C73.3367 207.391 72.5511 208.177 71.5979 208.177C70.6319 208.177 69.8591 207.404 69.8591 206.451Z" fill="white"/>
<path d="M191.382 200.681C191.382 199.728 192.168 198.942 193.121 198.942C194.074 198.942 194.86 199.728 194.86 200.681C194.86 201.634 194.087 202.407 193.121 202.407C192.168 202.407 191.382 201.634 191.382 200.681Z" fill="white"/>
<path d="M171.949 189.154C171.949 187.802 173.031 186.707 174.383 186.707C175.736 186.707 176.818 187.802 176.818 189.154C176.818 190.52 175.736 191.614 174.383 191.614C173.031 191.601 171.949 190.507 171.949 189.154Z" fill="white"/>
<path d="M104.147 199.754C104.147 198.402 105.229 197.307 106.581 197.307C107.934 197.307 109.041 198.402 109.041 199.754C109.041 201.107 107.934 202.189 106.581 202.189C105.229 202.189 104.147 201.094 104.147 199.754Z" fill="white"/>
<path d="M55.6959 199.638C55.6959 198.273 56.8036 197.191 58.156 197.191C59.4955 197.191 60.5903 198.286 60.5903 199.638C60.5903 200.978 59.4826 202.085 58.156 202.085C56.8036 202.085 55.6959 200.978 55.6959 199.638Z" fill="white"/>
<path d="M197.734 167.092C197.734 165.752 198.842 164.657 200.194 164.657C201.534 164.657 202.629 165.752 202.629 167.092C202.629 168.444 201.534 169.539 200.194 169.539C198.842 169.539 197.734 168.444 197.734 167.092Z" fill="white"/>
</g>
</svg>
