<svg xmlns="http://www.w3.org/2000/svg" xmlns:xlink="http://www.w3.org/1999/xlink" viewBox="0 0 418.92 424.69">
    <defs>
        <style>
            .cls-1 {
            fill: url(#_Безымянный_градиент_3-2);
            }

            .cls-2 {
            fill: url(#_Безымянный_градиент_2);
            }

            .cls-3 {
            fill: url(#_Безымянный_градиент_2-2);
            }

            .cls-4 {
            fill: url(#_Безымянный_градиент_3);
            }
        </style>
        <linearGradient id="_Безымянный_градиент_2" data-name="Безымянный градиент 2" x1="132.97" y1="454.63" x2="15.97" y2="327.63" gradientTransform="translate(0 484.43) scale(1 -1)" gradientUnits="userSpaceOnUse">
            <stop offset="0" stop-color="#333"/>
            <stop offset="1" stop-color="#ffdd2d"/>
        </linearGradient>
        <linearGradient id="_Безымянный_градиент_2-2" data-name="Безымянный градиент 2" x1="422.74" y1="355.81" x2="127.74" y2="496.31" xlink:href="#_Безымянный_градиент_2"/>
        <linearGradient id="_Безымянный_градиент_3" data-name="Безымянный градиент 3" x1="353.87" y1="244.89" x2="236.87" y2="117.89" gradientTransform="translate(0 484.43) scale(1 -1)" gradientUnits="userSpaceOnUse">
            <stop offset="0" stop-color="#ffdd2d"/>
            <stop offset="1" stop-color="#ffdd2d"/>
        </linearGradient>
        <linearGradient id="_Безымянный_градиент_3-2" data-name="Безымянный градиент 3" x1="21.37" y1="346.88" x2="70.5" y2="72.7" xlink:href="#_Безымянный_градиент_3"/>
    </defs>
    <path class="cls-2" d="m7.49,158.28c10.52-41.13,33.25-78.1,65.2-106.05C104.64,24.29,144.31,6.68,186.48,1.73l1.54,13.1c-39.51,4.63-76.69,21.14-106.64,47.33-29.95,26.19-51.25,60.84-61.11,99.39l-12.78-3.27Z"/>
    <path class="cls-3" d="m187.95,1.01c51.08-5.03,102.23,8.81,143.8,38.92,41.56,30.11,70.66,74.4,81.8,124.51l-12.88,2.86c-10.43-46.96-37.71-88.47-76.66-116.69-38.95-28.22-86.9-41.2-134.77-36.48l-1.29-13.13Z"/>
    <path class="cls-4" d="m413.42,166.91c9.45,40.45,6.69,82.78-7.92,121.66-14.61,38.88-40.43,72.55-74.18,96.76-33.75,24.21-73.92,37.86-115.43,39.24-41.51,1.38-82.5-9.59-117.78-31.51l6.96-11.2c33.06,20.54,71.48,30.82,110.38,29.53,38.9-1.29,76.55-14.09,108.18-36.77,31.63-22.69,55.82-54.24,69.52-90.68,13.7-36.44,16.28-76.12,7.43-114.02l12.84-3Z"/>
    <path class="cls-1" d="m96.18,391.05c-37.13-23.95-65.76-58.99-81.82-100.15C-1.69,249.75-4.36,204.57,6.74,161.81l12.77,3.31c-10.4,40.08-7.9,82.41,7.15,120.99,15.05,38.57,41.88,71.42,76.68,93.86l-7.15,11.08Z"/>
</svg>

