<svg width="21" height="21" viewBox="0 0 21 21" fill="none" xmlns="http://www.w3.org/2000/svg">
<path d="M1.31264 3.71681C0.687806 3.09197 0.687807 2.0789 1.31265 1.45406C1.93748 0.829225 2.95055 0.829225 3.57539 1.45406L10.7525 8.6312L17.6822 1.70155C18.268 1.11576 19.2177 1.11576 19.8035 1.70155C20.3893 2.28734 20.3893 3.23708 19.8035 3.82287L12.8738 10.7525L20.1217 18.0004C20.7465 18.6252 20.7465 19.6383 20.1217 20.2631C19.4968 20.8879 18.4838 20.8879 17.8589 20.2631L10.6111 13.0153L3.68145 19.9449C3.09567 20.5307 2.14592 20.5307 1.56013 19.9449C0.974346 19.3591 0.974346 18.4094 1.56013 17.8236L8.48978 10.8939L1.31264 3.71681Z" fill="#FFDD2D"/>
</svg>
