<svg xmlns="http://www.w3.org/2000/svg" xmlns:xlink="http://www.w3.org/1999/xlink" x="0px" y="0px"
     viewBox="0 0 1271 476.5" preserveAspectRatio="none" style="enable-background:new 0 0 1271 476.5;" xml:space="preserve">
<style type="text/css">
	.st0{fill:url(#SVGID_1_);}
	.st1{fill:none;stroke:#FFFFFF;stroke-opacity:0.2;}
</style>
  <linearGradient id="SVGID_1_" gradientUnits="userSpaceOnUse" x1="635.5" y1="500.461" x2="635.5" y2="24.461" gradientTransform="matrix(1 0 0 -1 0 500.922)">
	<stop  offset="0" style="stop-color:#081C2A"/>
    <stop  offset="0.5427" style="stop-color:#07345E"/>
    <stop  offset="1" style="stop-color:#055DB6"/>
</linearGradient>
  <path class="st0" d="M730,0.5c8.4,0,12.6,0,15.8,1.6c2.8,1.4,5.1,3.7,6.6,6.6c1.6,3.2,1.6,7.4,1.6,15.8v3.7c0,8.4,0,12.6,1.6,15.8
	c1.4,2.8,3.7,5.1,6.6,6.6c3.2,1.6,7.4,1.6,15.8,1.6h469c8.4,0,12.6,0,15.8,1.6c2.8,1.4,5.1,3.7,6.6,6.6c1.6,3.2,1.6,7.4,1.6,15.8
	v376.3c0,8.4,0,12.6-1.6,15.8c-1.4,2.8-3.7,5.1-6.6,6.6c-3.2,1.6-7.4,1.6-15.8,1.6H514c-8.4,0-12.6,0-15.8-1.6
	c-2.8-1.4-5.1-3.7-6.6-6.6c-1.6-3.2-1.6-7.4-1.6-15.8v-13.6c0-8.4,0-12.6-1.6-15.8c-1.4-2.8-3.7-5.1-6.6-6.6
	c-3.2-1.6-7.4-1.6-15.8-1.6H24c-8.4,0-12.6,0-15.8-1.6c-2.8-1.4-5.1-3.7-6.6-6.6C0,403.5,0,399.3,0,390.9V24.5
	c0-8.4,0-12.6,1.6-15.8c1.4-2.8,3.7-5.1,6.6-6.6c3.2-1.6,7.4-1.6,15.8-1.6H730z"/>
  <path class="st1" d="M-133.5-130.2v-48.4h314.5v48.4 M-133.5-130.2L17-73.5 M-133.5-130.2h72 M181.1-130.2h-22.6 M181.1-130.2
	l0.8,74.1 M63.3-56.1v-27.2 M63.3-56.1l-16.6-6.3 M63.3-56.1H33.6 M17-56.1v-17.4 M17-56.1h-3.5l0.3,24 M17-56.1h16.6 M17-73.5
	l29.7,11.2 M63.3-83.3l-16.6-5 M63.3-83.3l72.5,27.2v-17.4 M46.7-88.4v26 M46.7-88.4l-108.2-41.8 M-61.5-130.2h50.8 M-10.7-130.2
	l146.5,56.6 M-10.7-130.2h67.9 M135.8-73.5v-56.6 M135.8-130.2h-20.1 M135.8-130.2h22.6 M57.3-130.2h15.1 M57.3-130.2l85.6,36.6
	 M72.4-130.2l108.7,46.9v6l-38.2-16.3 M72.4-130.2h43.3 M181.1-100.9l-65.4-29.2 M181.1-114l-22.6-16.1 M202.2,329.8l-4-4.5v-8.1
	 M202.2,329.8l4-2.8 M202.2,329.8c-3,4-8,6.1-12.6,7.2 M259.6,290l8.1-11.1 M259.6,290c4.3,1.3,8.1,2.3,11.6,2.9 M259.6,290v45.8
	h-30.7v-24.6 M259.6,290l-30.7,21.3 M267.6,278.9l5-23.7 M267.6,278.9l-8.1,4.4 M267.6,278.9c0.6,0,1.5-0.2,2.5-0.6 M272.7,255.3
	l-13.1,6.8 M272.7,255.3l29.7-20.2 M198.2,317.2V294l61.4-32 M198.2,317.2l61.4-33.9 M259.6,262.1v21.3 M288.3,87H242 M288.3,87
	v116.4 M288.3,87h14.1 M242,87v139.6c0.7,3.2-0.5,10.8-10.6,15.6l-33.2,15.6 M242,87c-0.5-8.2,1.6-25.1,14.1-26.7H321 M198.2,257.8
	v25.6l72-31.6l18.1-16.6v-20.2 M198.2,257.8v-18.6 M381.9-135.2v-43.3H198.2v43.3 M381.9-135.2h-77 M381.9-135.2H290 M381.9-135.2
	v82.6h-30.7 M198.2-135.2h20.6 M198.2-135.2v8.6 M290-135.2h14.8 M290-135.2v45.8 M290-135.2h-45.9 M290,36.1h14.8 M290,36.1v-66.5
	 M290,36.1c-21.7-3.4-65.1,1.8-64.7,49.4l-2,113.4 M304.9,36.1v-66.5 M304.9,36.1H321 M304.9-135.2v55.9 M304.9-52.6v22.2
	 M304.9-52.6v-26.7 M304.9-52.6h34.7 M304.9-30.4H324 M412.6-30.4v-22.2 M412.6-30.4h-16.1 M412.6-30.4v23.7 M412.6-135.2H393
	 M412.6-135.2v28.2 M412.6-135.2h9.6 M393-135.2v45.8 M393-135.2V-172c-0.7-2.2,0.5-6.5,10.6-6.5c10.1,0,467.5,0,695,0v43.3
	 M412.6-52.6H393v-36.8 M412.6-52.6V-107 M393-89.4l19.6-17.6 M304.9-79.3l34.7,26.7 M339.6-52.6l42.3-48.4v17.1l-30.7,31.2
	 M339.6-52.6h11.6 M1098.6,637.2v39.3h-70.5c1.3-10.1,13.3-29.7,50.3-27.7v-11.6H1098.6z M1098.6,637.2V486.5 M1098.6-135.2h-6.6
	 M1098.6-135.2v7.6 M142.8-93.6l1,20.5 M182-43.5l-0.1-12.6 M182-43.5L155.4-50 M182-43.5l0,3.5 M143.8-73.1l1,20.5l10.6,2.6
	 M143.8-73.1l38.1,17 M17,262.1l138.4-43.4 M17,262.1l-1.8-159.5 M17,262.1l-152.5,47.6v24.2l79-27.8 M184.8,209.4l-29.4,9.2
	 M184.8,209.4L183,45.2 M184.8,209.4L185,223 M155.4,218.6V56.7 M155.4-50v13.5 M155.4-50H67.3l-4,2 M155.4-36.5l26.7-3.5
	 M155.4-36.5v4.4 M182.1-40l0.1,11.6 M155.4-30.4l26.8,2 M155.4-30.4v21.2 M155.4-30.4v-1.7 M182.2-28.4l0.2,21.7 M155.4-9.3l27,2.5
	 M155.4-9.3v6.6 M182.4-6.7l0.1,9.6 M155.4-2.7l27.1,5.5 M155.4-2.7v26.2 M182.6,2.8l0.2,16.6 M182.7,19.5l0.3,25.7 M182.7,19.5
	l-9.6,20.7 M167,53.2l-11.6,3.5 M167,53.2l16-8.1 M167,53.2l6.1-13.1 M155.4,56.7V23.5 M173.1,40.1l-17.7-16.6 M13.8-32.1h19.9
	 M13.8-32.1L15.2,95 M155.4-32.1H33.6 M33.6-56.1v24 M15.2,95h-150.6v7.6H15.2 M15.2,95l0.1,7.6 M-41.4,300.8v24.5l56.6-22.7
	 M-41.4,300.8l56.6-19.9 M-41.4,300.8l-15.1,5.3 M15.2,280.9l31.5-11V290l-31.5,12.6 M15.2,280.9v21.7 M-56.5,306.1v27.8l-79,29.7
	 M185,223l-18,6.2 M185,223l0.2,14.6 M167,229.2v13l18.2-4.5 M167,229.2l-11.6,4 M185.1,237.6l0.1,9.1 M155.4,233.2v13.5l-41.3,15.4
	v-14.8 M155.4,233.2l-41.3,14.2 M114.1,247.3l-8.1,2.8 M106.1,250.1l-50.3,17.3l3,18.6l47.3-18.6V250.1z M185.2,246.7l-320.7,129.5
	v27.7l26.7-11.6 M185.2,246.7l0.2,15.4 M-108.8,392.3c2.3-8.1,11.6-21.8,29.7-12.1 M-108.8,392.3c19.3-12.5,34.7,15.1,29.7,26.7
	 M-79.1,380.2c6.2,3.7,15.1,13.6,15.6,29.2 M-79.1,380.2L90,304.7 M185.4,262.1l0.3,27.9 M185.4,262.1L90,304.7 M-135.5,451.7
	l42.8-24.9 M-79.1,419c1.7,1.2,2,6.4-6.6,18.1 M-79.1,419l-13.6,7.9 M-68.5,433.1l-24.2,12.5 M-68.5,433.1l254.4-132.3 M-68.5,433.1
	c2-4.5,3.3-8.7,4.1-12.6 M-135.5,467.9l42.8-22.2 M-92.7,445.7c2.8-3.2,5.1-6,7-8.5 M-85.7,437.1l-7-10.2 M185.8,300.8l0.3,24.5
	L-139,508.2v20.7l114.2-68.2 M185.8,300.8l-0.1-10.8 M185.7,290l-91.5,43.8 M-63.5,409.4l157.7-75.6 M-63.5,409.4
	c0.1,3.4-0.2,7.1-1,11.1 M90,304.7c18.1,0,25.2,24.1,4.3,29.2 M-64.5,420.5c25.1-12.4,76.6-38.7,81.5-44.8 M244-125.1l46,35.8
	 M290-89.4v25.7 M290-63.7l-46.6-32.7l0.6-38.8 M290-63.7v6 M244.1-135.2h-16.2 M227.9-135.2l9.1,6.5v26.2
	c-6.2-2.4-18.5-12.2-18.1-32.7 M227.9-135.2h-9.1 M198.2-126.6l22.6,16.6 M198.2-126.6v8.6 M198.2-118.1L290-57.6 M198.2-118.1v29.7
	 M290-57.6v7.6 M198.2-88.4v22.2 M198.2-88.4l32.2,19.1 M262.6-50.1H290 M262.6-50.1h-27.7 M262.6-50.1l-32.2-19.1 M290-50.1v19.6
	 M198.2-50.1v-16.1 M198.2-50.1h32.2 M198.2-50.1v19.6 M198.2-66.2l32.2,16.1 M230.4-50.1h4.5 M234.9-50.1c-1.8,0-5.3-3.8-4.5-19.1
	 M198.2-30.4h25.2 M198.2-30.4v269.5 M290-30.4h-22.9 M267.1-30.4v66.5 M267.1-30.4H252 M252-30.4v70.5 M252-30.4H240 M240-30.4
	v78.1 M240-30.4h-16.6 M223.4-30.4v90.7 M223.4,198.8c4.7,4,24.3,10.6,64.9,4.5 M223.4,198.8c0.2,3,0.1,6.7-0.3,10.6 M288.3,203.4
	v11.6 M198.2,239.1c17.3,0.9,23.5-15.7,24.9-29.7 M223.1,209.4c10.2,2.9,37.4,8,65.2,5.5 M321,60.3h13.1 M321,60.3v-9.6 M321,36.1
	V13.4h3 M321,36.1v14.6 M321,36.1l6.5-3.5l4,3.5 M324,13.4v-43.8 M324,13.4h11.1 M324-30.4h11.1 M335.1,13.4v-43.8 M335.1,13.4h8.6
	 M335.1-30.4h8.6 M343.6,13.4v-43.8 M343.6,13.4h9.6 M343.6-30.4h9.6 M353.2-30.4v43.8 M353.2-30.4h7 M353.2,13.4h50.3l3.3-6.5
	 M396.5-30.4v43.8 M396.5-30.4h-12.1 M384.4-30.4h-24.2 M384.4-30.4v26.7 M384.4,6.9V-3.7 M360.2-30.4l24.2,26.7 M412.6-6.7v2
	l-5.8,11.6 M412.6-6.7h11.6 M424.2-6.7V6.9 M424.2-6.7l1.5-104.8l-3.5-23.7 M424.2,6.9h-17.4 M424.2,6.9c1,5-0.5,17.4-14.6,26.7
	 M409.6,33.6h-75.5l-2.5,2.5 M409.6,33.6l13.1,0 M331.6,36.1v14.6 M331.6,50.7l2.5,9.6 M331.6,50.7H321 M331.6,50.7h565.7
	 M334.1,60.3h543 M897.2,60.3v-9.6 M897.2,60.3h-20.1 M897.2,60.3V87 M897.2,50.7V35.1 M897.2,35.1L877.1,35 M897.2,35.1v-65.5
	 M877.1,35v25.3 M877.1,35l2-9l-14.6-15.6v-40.8 M877.1,35L867,35 M422.7,33.6c4.5-3.5,13.7-14.7,14.1-30.8v-33.3 M422.7,33.6
	l58.4,0.2 M436.7-135.2h-14.6 M436.7-135.2H474 M436.7-135.2v9.6 M436.7-135.2l14.1,23.7 M436.7-114h-4.5 M436.7-114v61.5
	 M436.7-114v-11.6 M436.7-52.6v22.2 M436.7-52.6H474 M897.2-52.6v22.2 M897.2-52.6h-32.7 M897.2-52.6v-27.7 M897.2-30.4h-32.7
	 M436.7-30.4H481 M897.2-117.6l-10.1-17.6 M897.2-117.6l12.1-10.1 M897.2-117.6h10.1 M897.2-117.6v12.6 M887.2-135.2h-88.1
	 M887.2-135.2h25.7 M897.2-105l-57.9,52.4 M897.2-105v24.7 M839.4-52.6h25.2 M839.4-52.6h-9.1 M864.5-52.6l32.7-27.7 M830.3-52.6
	h-12.1 M830.3-52.6v-25.7 M818.2-97.4c10.1,0.4,12.2,10.2,12.1,15.1v4 M818.2-97.4c-0.3-11.3-4.6-34.6-19.1-37.8 M818.2-97.4V-75
	 M818.2-52.6h-11.1 M818.2-52.6V-75 M799.1-135.2h-8.6 M830.3-78.3c8.4,3,27.5,11.6,36.7,21.7 M830.3-78.3L818.2-75 M807.2-52.6
	l1.5-50.9 M807.2-52.6h-44.3 M808.7-103.5c-1.5-3.8-3.7-9-6.1-14.1 M808.7-103.5c-7.7-5-28.8-13-50.9-4.5 M790.6-135.2h-21.6
	 M790.6-135.2c2.8,0,7.7,8.6,12,17.6 M768.9-135.2c0.7,1.6,0.4,5.7-2.7,12.6 M768.9-135.2h-50.8 M722.1-52.6
	c3.4-7.2,14.1-26.9,30.2-47.9c1.2-1.6,2.3-3.1,3.4-4.5 M722.1-52.6h33.6 M722.1-52.6h-37.2 M755.7-105v52.4 M755.7-105
	c0.7-1,1.5-2,2.1-3 M755.7-52.6h7.2 M757.8-108c6.6-1.5,5.5,53,5.1,55.4 M757.8-108c4-5.8,6.7-10.7,8.4-14.6 M766.2-122.6
	c6.9-1.5,23.8-2.6,36.3,5 M729.2-133.7l-33.2,72.6 M701.5-135.2l2.5,12.6l-12.7,27.2 M701.5-135.2h16.6 M701.5-135.2h-24.7
	 M671.3-52.6h9.1 M671.3-52.6h-22.1 M671.3-52.6l8.2-17.6 M680.3-52.6l37.7-82.6 M680.3-52.6h4.5 M684.9-52.6l13.6-25.2
	 M676.8-135.2h-5.5 M676.8-135.2L666-103 M649.1-52.6h-30.2 M649.1-52.6l9.3-27.7 M649.1-52.6c-0.6-5.9-5.5-17.9-20.1-25.9
	 M618.9-82.8v30.2 M618.9-82.8v-52.4 M618.9-82.8c3.8,1.2,7.1,2.7,10.1,4.3 M618.9-82.8l-14.6-11.1 M618.9-52.6h-14.6 M618.9-135.2
	h6.5 M618.9-135.2h-14.6 M671.3-135.2l-9.1,27.2 M671.3-135.2h-45.8 M625.5-135.2v14.6 M625.5-120.6L666-103 M625.5-120.6v19.6
	L662-90.9 M666-103L662-90.9 M666-103l25.3,7.6 M662-90.9l-3.5,10.6 M662-90.9l22.9,9.2 M631-93.4l27.4,13.1 M658.4-80.3l21.1,10.1
	 M629-78.5c0.5,1.3-0.2,4-7,4.8 M604.3-135.2h-11.1 M604.3-135.2v41.3 M604.3-52.6h-11.1 M604.3-52.6v-41.3 M593.3-52.6v-35.8
	 M593.3-52.6h-31.2 M593.3-135.2h-9.1 M593.3-135.2v9.6 M604.3-93.9l-11.1,5.5 M593.3-88.4v-37.3 M593.3-88.4l-9.1,5.5 M584.2-135.2
	l9.1,9.6 M584.2-135.2h-33.7 M580.2-130.7v13.1 M580.2-117.6l6-3 M580.2-117.6l-23.7,9.6 M580.2-117.6l2,14.6 M556.5-108l-6-27.2
	 M556.5-108l4.6,14.1 M550.5-135.2h-35.7 M582.2-99.4l-20.1,8.6l-1-3 M582.2-99.4v-3.5 M582.2-99.4l2,16.6 M582.2-103l-21.1,9.1
	 M584.2-82.8l1,29.2 M584.2-82.8l-22.1,24.2 M584.2-82.8l-12.6,2.5 M562.1-58.6v6 M562.1-58.6l-4.3-19.9 M562.1-52.6h-22.1
	 M546.5-130.7l6,27.7 M557.8-78.5l-24.4,8.3 M557.8-78.5l-2.7-12.4 M533.4-70.2l6.5,17.6 M533.4-70.2l-2.9-10.1 M514.8-135.2
	l12.7,44.3 M514.8-135.2h-10.1 M539.9-52.6h-9.4 M530.5-80.3l24.6-10.6 M530.5-80.3l-3-10.6 M555.1-90.9l-2.6-12.1 M527.5-90.9
	l25-12.1 M504.7-135.2l25.8,82.6 M504.7-135.2H483 M530.5-52.6h-10.2 M520.3-52.6l-10.1-16.6 M520.3-52.6h-8.1 M512.2-52.6
	L483-135.2 M512.2-52.6h-9.6 M483-135.2H474 M502.7-52.6L474-135.2 M502.7-52.6H474 M474-52.6l-37.2-73.1 M481-53.6L469-78.5
	 M481-30.4v64.2 M481-30.4h29.2 M481,33.8l29.2,0.1 M510.2-30.4v64.3 M510.2-30.4h8.1 M510.2,33.9l8.1,0 M518.3-30.4v64.3
	 M518.3-30.4h24.2 M518.3,33.9l8.1,0 M526.3-29.9v63.8 M526.3,33.9l7,0 M533.4,34l-2.9-46.2 M533.4,34l9.1,0 M530.5-12.3l11.9-9.6
	c0,3.6,0,7.9,0,12.6 M530.5-12.3l11.9,3 M542.4,34c0-2.3,0-25.2,0-43.2 M542.4,34l7.7,0 M542.4-30.4c3.9,7.4,12,26.3,15,43.8
	 M542.4-30.4h18.7 M557.8,34V15.4c-0.1-0.7-0.2-1.3-0.3-2 M557.8,34l-7.7,0 M557.8,34l7.3,0 M557.4,13.4c-2.6,1.3-7.7,7.2-7.3,20.6
	 M565.1,34.1v-8l6.5-3.5 M565.1,34.1l65.9,0.2 M571.6,22.5H622 M571.6,22.5l12.6-19.6 M622,22.5L631,26 M622,22.5L604.3,2.8 M631,26
	v8.2 M631,26h4.8 M631,34.3l9.6,0 M640.6,34.3V26h-4.8 M640.6,34.3l24.1,0.1 M604.3,2.8h-20.1 M604.3,2.8h21.1 M584.2,2.8h-19.1
	 M565.1,2.8l-4-33.3 M565.1,2.8c0-10.1,6.4-14.3,9.6-15.1 M561.1-30.4h8.5 M569.6-30.4l5,18.1 M569.6-30.4h21.1 M574.6-12.3h44.3
	 M633-12.3l-7.5,15.1 M633-12.3l7.5-18.1 M633-12.3h-14.1 M625.5,2.8h17.6 M643.1,2.8c-2.2,2-6.7,9.5-7.3,23.2 M643.1,2.8l12.6-33.3
	 M643.1,2.8l-3.5-11.1c0.5-14.5,0.9-20.8,1-22.2 M643.1,2.8l5.3,14.1 M655.7-30.4h-15.1 M655.7-30.4h13.1 M640.6-30.4h-21.6
	 M590.8-30.4v11.1 M590.8-30.4h28.2 M590.8-19.3h28.2 M590.8-19.3l13.6-5.5h14.6 M618.9-19.3v7.1 M618.9-19.3v-5.5 M618.9-30.4v5.5
	 M668.8-30.4l11.6,0.5c-1.1,2.9-2.6,6.6-4.4,10.6 M668.8-30.4l-20.4,47.4 M668.8-30.4h16.1 M648.4,16.9l0.8,2c0,9.4,1.3,22.6,6.5,0
	c-0.2-4.2,0.9-13.3,6.5-16.1c0.8-0.4,1.6-1.1,2.4-2 M664.6,0.8v33.5 M664.6,0.8c3.6-4,7.9-12.4,11.3-20.2 M664.6,34.4l11.7,0
	 M676.3,34.4L676-19.3 M676.3,34.4l8.6,0 M684.9-30.4v64.8 M684.9-30.4h10.3 M684.9,34.4l10.3,0 M695.1,34.5l14.9,0 M695.1,34.5v-14
	 M695.1-30.4H710 M695.1-30.4v50.9 M710-30.4V19 M710-30.4h12.1 M710,34.5V19 M710,34.5l12.1,0 M695.1,20.5L710,19 M722.1-30.4h33.6
	 M722.1-30.4v45.8 M722.1,34.5l33.6,0.1 M722.1,34.5V15.4 M755.7-30.4v45.8 M755.7-30.4h51.5 M755.7,34.6V15.4 M755.7,34.6l51.5,0.2
	 M755.7,15.4h-33.6 M755.7,15.4l51.5,1.5 M807.2,16.9v-47.4 M807.2,16.9v17.9 M807.2-30.4h11.1 M807.2,34.8l11.1,0 M818.2-30.4v65.3
	 M818.2-30.4h12.1 M818.2,34.8l19.6,0.1 M830.3-30.4v64.7 M830.3-30.4h7.5 M837.9-30.4v65.3 M837.9-30.4h10.6 M837.9,34.9l15.1,0
	 M848.4-30.4c-0.8,1.7-1.1,5.6,4.5,8.1v57.3 M848.4-30.4h16.1 M853,34.9l14.1,0 M861.5,19c0.3,5.3,1.9,16,5.5,16 M691.3-95.4
	l-6.4,13.7 M684.9-81.7l-5.4,11.5 M912.8-135.2l-0.2,17.6 M912.8-135.2h16.6 M907.8,441.2l2.5-13.1l-4.5-1l1-76.3 M907.8,441.2h53.3
	 M907.8,441.2c-0.8,6.4-1.9,24.1-0.2,45.3 M907.8,441.2c-4.8,6-18.5,2.5-24.7,0 M1098.6,441.2H995.4 M1098.6,441.2V414
	 M1098.6,441.2v45.3 M912.6-117.6l16.8-17.6 M912.6-117.6l-0.2,16.6 M929.5-135.2h19.1 M912.4-100.9l36.2-34.3 M912.4-100.9
	l-0.2,12.6 M948.6-135.2h13.1 M912.3-88.4l13.7-10.3 M912.3-88.4l-0.4,30.2 M961.7-135.2c1.6,6.4-0.7,10.1-2,11.1l-33.7,25.5
	 M961.7-135.2h23.1 M925.9-98.7l58.9-36.5 M984.8-135.2h20.1 M986.3-115.6c6.2-3.2,18.6-11.6,18.6-19.6 M1004.9-135.2h21.6
	 M911.9-58.1l17.6-11.2 M911.9-58.1l-0.1,8.6 M1026.6-135.2c-6.2,7.7-22,24-35.7,27.2c-13.7,3.2-23.5,12.4-26.7,16.6l-34.7,22.1
	 M1026.6-135.2h20.6 M929.5-69.3c38.4-19.3,115.7-59.5,117.8-65.9 M1047.2-135.2h44.8 M939.5-49.6l75-32.7 M1014.5-82.3
	c22.8-13.6,70.3-43.2,77.5-52.9 M1014.5-82.3l30.3-16.4 M1098.6-127.7l-53.7,29 M1098.6-127.7v36.3 M1044.8-98.7V-75l-60,25.4h16.6
	l40.8-17.6 M1098.6-91.4l-56.4,24.3 M1098.6-91.4v24.3 M1042.2-67.1l5,14.5 M1098.6-67.1l-43.3,17.6 M1098.6-67.1v17.6 M1055.3-49.6
	H911.8 M1055.3-49.6h43.3 M911.8-49.6l-0.2,19.1 M1098.6-49.6v19.1 M911.5-30.4h32.5 M911.5-30.4l-0.8,65.5 M1098.6-30.4H944.1
	 M1098.6-30.4v164.8 M944.1-30.4c0.7,0.6,1.6,1.3,2.5,2.3 M956.6,35v-18c-4.4-2.5-3.4-6.4-1.6-9.1 M956.6,35l-10.1,0 M956.6,35
	l6.6,0 M910.7,35.1l35.9-0.1 M910.7,35.1l-0.3,25.2 M946.6,35v-63.1 M946.6-28.1c4.7,5.2,10.7,16.4,10.1,33.9
	c-0.5,0.5-1.1,1.2-1.6,2 M955,7.9c10.9-2,33.7-4.3,37.4,2.5 M992.4,10.4v-32.2 M992.4,10.4v24.7 M992.4,35.1L963.2,35 M992.4,35.1
	c12.2,0.8,36.2,12.1,34.2,50.4 M963.2,35c-1.5-7.7-1.9-23,8.5-22.6 M1026.6,85.5v119.9 M1026.6,85.5h-17.1 M1026.6,205.4l-17.1-7.3
	 M1026.6,205.4l40.3,22.2 M1026.6,205.4l28.7,10.1v-43.3l11.6-6.5 M948.6,172.1H909 M948.6,172.1l9.6,4.1 M948.6,172.1V158
	 M909,172.1l0.2-14.1 M909,172.1l-0.3,21.2 M948.6,85.5h-36.2h-2.3 M948.6,85.5h9.6 M948.6,85.5V158 M910.1,85.5l0.3-25.2
	 M910.1,85.5l-0.9,72.6 M910.4,60.3c34.5-7.1,102.7-11.9,99.1,25.2 M1009.5,85.5v112.6 M1009.5,85.5h-42.8 M1009.5,198.1l-42.8-18.2
	 M958.1,85.5v90.7 M958.1,85.5h8.6 M958.1,176.2l8.6,3.6 M966.7,85.5v94.4 M909.2,158h39.4 M908.7,193.3H955 M908.7,193.3l-0.2,12.1
	 M955,193.3l-4.9,6l12.6,9.1 M955,193.3l54.5,18.6 M1055.3,227.5h11.6 M1055.3,227.5l-6-2.1 M1055.3,227.5c2.2,0.6,6.4,5.8,6,21.8
	 M1066.8,227.5l31.7,9.1 M1098.6,236.6v-66.5 M1098.6,236.6v9.6 M1066.8,165.6l31.7,4.5 M1066.8,165.6c-18.1-8.5-10.6-24.4-4.5-31.2
	 M1066.8,165.6c-7.2,3.7-21.6,6.3-21.6-12.6c0-18.9,11.4-20.3,17.1-18.6 M1098.6,170.1v-35.8 M1098.6,134.3h-36.2 M908.6,205.4
	c8.3-1.3,27.9-2.6,40,3 M908.6,205.4l-0.1,10.1 M948.6,208.4v24.7 M948.6,208.4l10.6,5.3 M948.6,233.1l-40.1-17.6 M948.6,233.1
	l10.6,4.3 M908.5,215.5l-0.2,17.6 M969.7,219v22.7 M969.7,219l-10.6-5.3 M969.7,219l5.5,3v22.7 M969.7,241.7l-10.6-4.3 M969.7,241.7
	l5.5,3 M959.2,237.4v-23.7 M975.2,244.7l9.6,3.5 M984.8,248.2V225l15.6,8.1v20.2 M984.8,248.2l15.6,5 M1000.4,253.2l7.5,4.5
	 M1008,257.8l1.5-24.7l17.1,8.6 M1008,257.8l16.1,7.1 M1026.6,241.7l-2.5,23.2 M1026.6,241.7l24.2,11.6v24.7 M1024.1,264.8
	l26.7,13.1 M1050.8,277.9l8.1,4 M1058.8,282v-26.7l11.6,5.5 M1058.8,282l11.6,4 M1070.4,260.8V286 M1070.4,260.8l28.2,11.6
	 M1070.4,286l28.2,12.1 M1098.6,298.1v-25.7 M1098.6,298.1v21.7 M1098.6,272.4v-7.6 M1098.6,264.8l-27.9-11.6 M1098.6,264.8v-18.6
	 M962.7,208.4v-6.5 M962.7,208.4l22.1,9.2 M984.8,217.6c0.3-2.7,2.1-8.1,6.5-7.7c4.4,0.4,8.6,9.9,10.1,14.6 M984.8,217.6l16.6,6.9
	 M1001.4,224.5l8.1,3.3 M1009.5,211.9v15.9 M1009.5,211.9l15.6,5.3 M1009.5,227.8l15.6,6.5 M1025.1,217.2v17.1 M1025.1,217.2
	l24.2,8.3 M1025.1,234.3l24.2,10 M1049.2,225.5v18.9 M1049.2,244.3l12.1,5 M1061.3,249.4l9.3,3.9 M1070.7,253.2
	c0.2-10.9-4.8-17.2-7.3-18.9l35.2,11.9 M908.2,233.1h5.6l122.4,57.4 M908.2,233.1l-0.2,17.6 M1098.6,319.7l-54.4-25.5 M1098.6,319.7
	v22.7 M1098.6,361.1l-72-38.8c-1.7-7.6-0.5-23.8,17.6-28 M1098.6,361.1v13.6 M1098.6,361.1v-18.6 M1044.2,294.2l-7.9-3.7
	 M1036.3,290.5c-7.1,3.3-17.2,10.5-19.6,20.2 M1021.6,328.3l77,46.4 M1021.6,328.3c-5.1-6.4-6.2-12.4-4.9-17.6 M1021.6,328.3
	l-113.7-67.5 M1098.6,374.7v26.7 M908,250.7l108.7,60 M908,250.7l-0.1,10.1 M907.9,260.8l-0.3,21.7 M907.6,282.5l38.4,28.5
	 M907.6,282.5l-0.4,28.5 M984.8,441.2h-23.7 M984.8,441.2l1.2-80.6 M984.8,441.2h10.6 M961.2,441.2l1.5-80.6 M962.7,360.6H986
	 M962.7,360.6h-52.3 M986,360.6l0.2-9.8 M986.2,350.7l0.1-9.8l-25.2-18.7 M986.2,350.7h-25 M906.8,350.7h54.4 M906.8,350.7l0.4-31.5
	 M961.2,350.7v-28.5 M961.2,322.2l-4-3 M957.1,319.2h-50 M957.1,319.2l-11.1-8.2 M907.2,319.2l0.1-8.2 M946.1,311h-38.8
	 M995.4,441.2v-98.8 M995.4,342.4l103.2,71.5 M995.4,342.4l-44.3-36.3l147.5,95.2 M1098.6,414v-12.6 M1039.2,313.2l59.4,29.2
	 M907.8,488.5v46.4 M907.8,488.5c-0.1-0.7-0.1-1.3-0.2-2 M907.8,488.5h-14.4 M907.8,534.9l53.3,70.6 M907.8,534.9l-63.3-93.7
	 M982.8,634.1l2-147.6 M982.8,634.1l-21.6-28.6 M982.8,634.1v40.3 M984.8,486.5h-23.7 M984.8,486.5h10.6 M961.2,486.5v119
	 M961.2,486.5h-53.5 M995.4,486.5v174.3l10.1,15.6l-16.6-19.6 M995.4,486.5h103.2 M897.2,87l-2.4,106.3 M897.2,87H867 M883.2,441.2
	c0.8-16.5,4.7-16.3,6.5-14.1l1.7-76.3 M883.2,441.2c0.2,11.3-0.8,36.1-6,45.3l15.1,23.2c0.6-4.9,1.2-12.7,1.2-21.2 M883.2,441.2
	h-38.6 M889.7,458.3c2.8,8.4,3.7,19.8,3.7,30.2 M740.7,287.5h87.6 M740.7,287.5l15.9,23.5 M740.7,287.5l-10.6-17.1 M740.7,287.5
	c5.6,13.2,12.5,29.2,20,46.4 M892.8,287.5h-54.4 M892.8,287.5l-0.7,31.7 M892.8,287.5l0.4-17.1 M828.3,287.5l0.2,23.5 M828.3,287.5
	h10.1 M829.2,418.5l-0.5-65.5 M829.2,418.5L785,353 M829.2,418.5l9.2,13.6 M828.8,353H785 M828.8,353l-0.2-32.7 M785,353l-28.4-42
	 M828.5,320.2h-54.1 M828.5,320.2l-0.1-9.2 M828.5,311h-71.9 M838.4,287.5V311 M838.4,287.5c10.3,17.3,35.5,52.1,53.3,52.9
	 M838.4,432.1l6.2,9.1 M838.4,432.1v-72.3 M838.4,359.8h48.8v-4.3 M838.4,359.8v-9 M838.4,350.7V311 M838.4,350.7h38.2 M891.4,350.7
	h-14.8 M891.4,350.7l0.2-10.3 M838.4,311c5.9,13.2,21.7,39.7,38.2,39.7 M891.6,340.4l0.5-21.2 M892.1,319.2l-30.6-4.5 M689.9,205.4
	l33.4,53.9 M689.9,205.4h16.7 M689.9,205.4h-9.1 M881.6,205.4l12.8,8.1 M881.6,205.4v39.5 M881.6,205.4l-10.1,8.1 M881.6,205.4H852
	 M894.4,213.4l-0.9,38.8 M894.4,213.4l0.4-20.2 M893.2,270.4H868 M893.2,270.4l-88-65 M893.2,270.4l0.4-18.1 M730.1,270.4h26.5
	 M730.1,270.4l-6.9-11.1 M756.6,270.4v-15.9 M756.6,270.4h5.8 M756.6,205.4h-33.4 M756.6,205.4v19.1 M756.6,205.4h5.8 M723.3,205.4
	v19.1 M723.3,205.4h-16.7 M723.3,259.3v-4.5 M723.3,224.5h33.4 M723.3,224.5v14.1 M756.6,224.5v14.1 M756.6,238.6h-33.4
	 M756.6,238.6v15.9 M723.3,238.6v16.1 M723.3,254.8l33.4-0.3 M706.6,205.4v15.1l5,9.6 M762.4,205.4v19.1 M762.4,205.4h10.6
	 M762.4,270.4v-15.9 M762.4,270.4h54.4 M762.4,254.5h49.3 M762.4,254.5v-15.9 M762.4,238.6h59.9 M762.4,238.6v-14.1 M762.4,224.5
	h49.3 M772.9,205.4l43.8,65 M772.9,205.4h13.6 M816.7,270.4h2.5 M819.2,270.4c1-8.6,3-28.6,3-40.3l-35.7-24.7 M819.2,270.4h12.6
	 M786.5,205.4h18.6 M831.8,236.6v33.8 M831.8,270.4h11.1 M842.9,270.4v-24.2l25.1,24.2 M842.9,270.4H868 M805.1,205.4h38.2
	 M843.4,205.4c-1.8,2.4-4.5,8.3-0.5,13.1c3.1,3.8,23,16.6,38.8,26.4 M843.4,205.4h8.6 M893.6,252.2c-3.3-2-7.5-4.6-11.9-7.3
	 M871.6,213.4c0.7,4.1,1.6,13.6,0,18.1 M871.6,213.4l-19.6-8.1 M894.9,193.3h-76.7 M353.2,193.3V87 M353.2,193.3h31.2 M353.2,193.3
	v21.7 M353.2,87h31.2 M353.2,87h-9.6 M384.4,87v106.3 M384.4,87H399 M384.4,193.3h92.1 M399,87v67.5h72.5c2.3-1.5,7-5.5,7-9.6
	c0-4-1.3-40-2-57.4L481,87 M399,87h82 M481,87l0.7,23.2 M481,87h31.7 M483,152.5c1.5,2.4,3.6,8.4,0,13.6v27.2 M483,152.5l-1.3-42.3
	 M483,152.5l29.7-0.8 M483,193.3h-6.5 M483,193.3h29.7 M476.5,193.3v-27.2h-80 M481.7,110.2h31 M512.7,110.2V87 M512.7,110.2v41.6
	 M512.7,87h13.6 M512.7,193.3v-41.6 M512.7,193.3h13.6 M302.4,87v148.1 M302.4,87h21.1 M302.4,235.1l21.1-5.9 M323.5,87v142.2
	 M323.5,87h10.6 M323.5,229.2l0,4 M334.1,87v128 M334.1,87h9.6 M334.1,233.2v-18.2 M334.1,233.2l19.1-18.2 M334.1,233.2l0.5,22.1
	 M334.1,214.9l8.1,3.7L343.6,87 M353.2,214.9c8.9-9.3,22.5-10.2,28.2-9.6h4.5 M526.3,87v21.2 M526.3,87h7 M526.3,193.3h3.5
	 M526.3,193.3v-17.6 M529.9,193.3l15.1-35.8 M529.9,193.3h15.6 M526.3,175.7v-67.5 M526.3,175.7c1.9-3.4,4.3-7.5,7-11.9 M559,135.3
	c-2.2-0.5-5.4,1.8-9,5.5 M526.3,108.1h23.8 M646.1,108.1v25.2 M646.1,108.1h-8.1 M646.1,108.1h10.1 M638.1,108.1v55.9 M638.1,108.1
	h-70 M638.1,193.3v-22.7 M638.1,193.3h-25.2 M638.1,193.3h8.3 M638.1,164.1h-71.5 M638.1,164.1v6.5 M566.6,164.1l-1.5,6.5H589
	 M566.6,164.1v-23.2 M638.1,170.6h-25.2 M612.9,170.6v22.7 M612.9,170.6H589 M612.9,193.3H589 M589,170.6v22.7 M589,193.3h-27.9
	 M565.1,172.1l-4,21.2 M561.1,193.3v-52.4 M561.1,193.3h-11 M561.1,140.9h5.5 M561.1,140.9v-18.6 M566.6,140.9l0.9-18.6
	 M568.1,108.1h-7 M568.1,108.1l-0.7,14.1 M561.1,108.1v14.1 M561.1,108.1h-11 M561.1,122.2h6.4 M550.1,108.1l0,32.7 M550.1,140.9
	c-1.1,1.2-2.3,2.6-3.5,4 M546.6,144.9v-31.7h-13.2v50.6 M546.6,144.9c-4.4,5.4-9.1,12.3-13.2,18.9 M545.5,193.3v-26.7 M545.5,193.3
	h4.6 M550.1,193.3v-29.5 M550.1,157.5l4.4-8.1 M550.1,157.5h4.4v6.3h-4.4 M550.1,157.5v6.3 M533.4,87v16.1 M533.4,87h12.1 M545.5,87
	v16.1 M545.5,87h6 M551.5,87v16.1 M551.5,87h9.6 M561.1,87v16.1h7 M561.1,87h7 M568.1,87v16.1 M568.1,87h71.5 M568.1,103.1h71.5
	 M639.6,103.1V87 M639.6,103.1h7 M639.6,87h7 M646.6,103.1V87 M646.6,103.1l22.1,4h19.6 M646.6,87h20.6 M696.9,107.1V87
	 M696.9,107.1l10.6,0.4 M696.9,107.1h-8.6 M696.9,107.1v6 M696.9,87h10.6 M696.9,87h-11.6 M722.1,108.1V87 M722.1,108.1l-14.6-0.6
	 M722.1,108.1v47.4 M722.1,87h-14.6 M722.1,87h34.5 M707.5,107.6V87 M707.5,107.6v85.7 M685.4,87l1.1,7.6 M685.4,87h-10.1
	 M688.4,107.1l-1.9-12.6 M686.5,94.5l-3.6,4 M675.3,87v14.6 M675.3,87h-8.1 M667.2,87v14.6 M722.1,193.3h-14.6 M722.1,193.3h34.5
	 M722.1,193.3v-26.2 M707.5,193.3h-10.6 M696.9,193.3h-10.4 M696.9,193.3v-80.1 M686.5,193.3l-10.2-20.7 M686.5,193.3h-15.2
	 M676.3,172.6v-62.5 M676.3,172.6l-20.1-26.2 M676.3,172.6c-0.3,6.9-1.8,20.7-5,20.7 M676.3,110.2h9.1 M676.3,110.2h-9.1
	 M685.4,110.2l-0.5,68 M685.4,110.2l11.6,3 M667.2,110.2v45.3l-11.1-9.1 M667.2,110.2l-11.1-2 M656.2,146.4v-38.3 M656.2,146.4
	l-10.1-8.6l0.3,55.4 M671.3,193.3h-4 M667.2,193.3v-10.6l-7.5-15.6c-1.5,0.1-3.9,2.7-4.8,11.1 M667.2,193.3h-12.6 M654.7,193.3
	c-0.4-6.4-0.2-11.3,0.2-15.1 M654.7,193.3h-8.3 M654.9,178.2l-0.2-27.2c-0.8,4.4-3.1,13.1-5.5,13.1 M756.6,87v68.5 M756.6,87h7.8
	 M756.6,193.3v-26.2 M756.6,193.3h61.6 M722.1,155.5h34.5 M722.1,155.5v11.6 M756.6,155.5v11.6 M756.6,167.1h-34.5 M764.4,87h42.8
	 M764.4,87v68.5 M818.2,87v71h-13.1v7.1h-40.8v-9.6 M818.2,87h-11.1 M818.2,87h19.6 M807.2,87v59.5 M764.4,155.5h40.8 M837.9,87
	v74.6 M837.9,87H852 M837.9,176.7v-15.1 M837.9,161.5h-19.6v31.7 M822.3,168.6c4.9,2.2,13.6,9.3,9.6,20.2 M852,87l1,91.2 M852,87
	H867 M849.4,180.2l12.1,8.6 M879.1,88.5v26.2 M867,87v24.7 M867,158v9.1c0,25,8.1,24.9,12.1,21.7V158 M867,158h12.1 M867,158v-46.4
	 M879.1,158v-43.3 M867,111.7l12.1,3 M1118.2-135.2v-43.3H1397v43.3h-39.8 M1118.2-135.2v36.5 M1118.2-135.2h89.6 M1118.2,674.4
	v-25.7 M1118.2,634.1h110.2 M1118.2,634.1V486.5 M1118.2,634.1v14.6 M1395,634.1h-95.6 M1241.5,634.1V507.7 M1241.5,634.1h-13.1
	 M1241.5,634.1h44.8 M1228.4,634.1V498.6 M1118.2,426.6V414 M1118.2,426.6v16.6 M1118.2,426.6l19.6,12.6 M1118.2,414l193.3,118.2
	 M1118.2,414v-31.2 M1118.2,486.5v-43.3 M1118.2,486.5c3.7,0.2,8.2,0.3,13.1,0.3 M1197.2,477.2l-59.4-38 M1197.2,477.2
	c-11.5,7.8-43.5,9.6-65.9,9.6 M1197.2,477.2l96.4,61.7 M1118.2,443.2c2.4,0.3,6.3,0.5,10.1,0 M1137.8,439.1
	c-2.2,2.4-5.8,3.5-9.5,4.1 M1128.3,443.2c5.3,5,13.4,20.8,3,43.6 M1304.4,489.5c-5.9,6.5-16.3,25.6-10.8,49.4 M1304.4,489.5
	l-186.2-106.8 M1304.4,489.5l7,4.1 M1293.6,538.9l28.5,18.2 M1311.4,532.2l83.6,51.1v20.7l-73-46.8 M1311.4,532.2
	c5.2,17.9,9.2,24.1,10.6,25 M1118.2,648.7h110.2 M1395,648.7h-153.5 M1286.3,634.1c5,2.9,15.7,14.9,18.1,40.3 M1286.3,634.1h13.1
	 M1299.4,634.1c5,6,14.8,22.2,13.6,38.3 M1228.4,648.7v23.7 M1228.4,648.7h13.1 M1241.5,648.7v23.7 M1118.2,382.7v-12.1 M1322,486.5
	l73,37.8v18.1l-61.4-35.9 M1322,486.5l11.6,20.1 M1322,486.5c-5.2-20.8-3.2-58.6,46.3-43.3 M1333.6,506.6l-22.2-12.9 M1368.3,443.2
	l26.7,14.1 M1368.3,443.2c-0.6-8.1-6.5-20.9-24.8-16.6 M1311.4,493.6c-1-2.6-2.1-6.5-2.8-11.2 M1343.5,426.6c-3,0.7-6.3,1.8-9.9,3.5
	c-25.3,11.7-27.4,36.5-25,52.4 M1343.5,426.6l-225.3-99.3 M1118.2,327.3V349 M1118.2,327.3v-21.2 M1118.2,370.6l117.8,64
	 M1118.2,370.6V349 M1235.9,434.6c20.5,8.7,62.5,28.2,66.9,36.3 M1235.9,434.6l72.7,47.9 M1333.6,465.9l61.4,30.7 M1118.2,349
	l190.4,94.2 M1118.2,306.1l41.7,18.1 M1118.2,306.1v-27.7 M1118.2,246.2v9.1 M1118.2,246.2l110.7,33.1 M1118.2,246.2v-73.1
	 M1118.2,255.3l40.3,12.5 M1118.2,255.3v15.3 M1395,340.9v-12.1l-154-46 M1395,340.9v25.7 M1395,340.9l-24.2-7.5 M1395,366.6
	l-24.2-8.1v-25.1 M1395,366.6v11.6 M1370.8,333.4l-9.1-2.8 M1395,378.2l-21.6-6v33.8l21.6,8.6 M1395,378.2v36.3 M1395,414.5v12.1
	l-101.7-44.2 M1363.8,402.9l-2-36.3l-68.5-25.7v41.4 M1293.3,382.3l-11.6-5 M1293.3,309.4v24l68.5,22.6v-25.4 M1293.3,309.4
	l68.5,21.2 M1293.3,309.4l-11.6-3.6 M1281.8,305.9v22.9l-52.8-17.1v-21.2v-1 M1281.8,305.9l-41.3-12.8 M1228.9,289.5l11.6,3.6
	 M1228.9,289.5l-15.1-4.7 M1240.5,293.1v21.1 M1228.9,354.3v-34.6l11.6,4.5 M1228.9,354.3l11.6,5 M1228.9,354.3l-14.1-6.1
	 M1240.5,324.3v35.1 M1240.5,324.3l41.3,13.6v39.4 M1240.5,359.3l41.3,18 M1213.8,284.8v22.3l-46.3-17.6v-19 M1213.8,284.8
	l-46.3-14.3 M1167.5,270.5l-9.1-2.8 M1169,328.3v-30.7l45.8,18.1v32.5 M1169,328.3l45.8,19.9 M1169,328.3l-9.1-4 M1159.9,324.3
	v-29.7l-41.7-16.1 M1118.2,278.4v-7.9 M1158.4,267.7V287l-40.3-16.5 M1118.2-98.7l89.6-36.5 M1118.2-98.7V-75 M1207.8-135.2h71
	 M1118.2-75l160.5-60.2 M1118.2-75v12.8 M1278.7-135.2h78.5 M1118.2-62.2v10.6 M1118.2-62.2l71-21.7 M1357.2-135.2L1241-99.7
	 M1118.2-51.6h67.9l0.3-3 M1118.2-51.6v21.2 M1189.2-83.8l-2.7,29.2 M1189.2-83.8l44.3-13.5 M1186.4-54.6h47 M1233.4-54.6v-42.8
	 M1233.4-54.6v24.2 M1233.4-97.4l7.5-2.3 M1233.4,13.9h7.5 M1233.4,13.9v-44.3 M1233.4,13.9c-29.4,2.8-39.4,31.1-40.8,44.8
	 M1241,13.9V-99.7 M1241,13.9h33.7 M1118.2-30.4h115.3 M1118.2-30.4v166.3 M1210.8-49.1v14.1 M1223.4-45v10.1 M1241,58.8
	c3.6,0.8,4.9-2.4,5-4 M1241,58.8c-2.7,0-5-0.3-7-0.9 M1241,58.8v4.5 M1241,142.4c3.5,1.8,8.5,7.3,0,14.1 M1241,142.4V79.9
	 M1241,142.4l-7,2.5 M1241,156.5v126.3 M1241,156.5l-12.1-1.5 M1241,282.8l-12.1-3.6 M1228.9,279.2V155 M1228.9,155h-6.6
	c-1,9.7-12.2,28.2-48.8,24.2 M1173.6,179.2c-19.3-8.9-16.1-34.3-1.5-40.6 M1173.6,179.2c-1.7,1.2-4.9,2.8-8.6,3.8 M1146.9,175.7
	c-0.3,1.7,0.8,5.5,8.1,7.6c3.3,0.9,6.9,0.6,10.1-0.2 M1146.9,175.7l-28.7-2.5 M1146.9,175.7c-11.7-16.5-2.5-33.4,3.5-39.8
	 M1118.2,173.1v-37.3 M1118.2,135.8h32.2 M1150.4,135.8c3.3-2.4,12.2-5,21.7,2.7 M1186.1,139.9h-12.6c-0.5-0.5-1-0.9-1.5-1.3
	 M1186.1,139.9c0.6-1.3,1.6-4.9,1.8-11.1 M1186.1,139.9c-0.3,8.1,1.5,24.8,11.6,27.2 M1191.2,95.5c-4,4-4,14.8-3.5,19.6
	c0.4,5.5,0.5,10,0.3,13.6 M1191.2,95.5V83.5 M1191.2,95.5l1.5,25.2c3.9,6,15.5,18.3,31.2,19.1 M1191.2,83.5
	c-3.7-3.5-8.6-13.4,1.5-24.7 M1191.2,83.5c10.8,2.2,31.2,4.8,42.8,1 M1192.7,58.8c2.8,18.1,29,18,41.8,15.6l6.5-11.1 M1274.7,13.9
	c0-4.7,3.2-12,15.6-5.4 M1274.7,13.9c-2,11-2.5,33.7,11.6,36.8l1.7,1 M1382.9,52.7l12.1,0.5l-0.1-5.5 M1382.9,52.7
	c-1.5,1.8-7,4.5-16.6,0.5l-74,1.5 M1382.9,52.7l-2.5,0.5c-9.7-1.2-12.1-23.3-12.1-34.3 M1292.3,54.7c-1.5,2.2-6.3,5.2-13.6,0H1246
	 M1292.3,54.7c-1.7-0.9-3.1-1.9-4.3-3 M1246,54.7c-7.7,0-10.9-15.1-11.6-22.7 M1389.9,0c-2.5-0.9-4.8-2.3-6-3.2
	c-8.8-2-14.1,3.5-15.6,6.6l-6,0.5 M1389.9,0c1.4,0.5,2.8,0.8,4,0.8l0.9,46.9 M1389.9,0c-13.3,10.7-31,35.2,4.9,47.7 M1362.3,3.8
	l-70.5,5.6c-0.5-0.3-1-0.6-1.5-0.8 M1362.3,3.8c-4.7,10.9-11.9,34.3-3,40.3 M1290.3,8.5c-6.1,10.4-14,32.3-2.3,43.2 M1224.4,51.7
	c1,1.7,4,4.7,9.6,6.2 M1233.9,57.9v9.9 M1241,63.3v16.6 M1241,79.9c-1.4,2.1-3.9,3.5-7,4.5 M1233.9,84.5v60.4 M1233.9,144.9l-7,1
	 M1188,128.8c5.9,7.4,20.2,21.9,29.9,20.7 M1154.9,143.9c-3.4,8.7-6,28.8,10.1,39.1 M338.6,421c0.2,6.4-10.7,4.7-16.1,3 M338.6,421
	l-3.2-134 M338.6,421c1.4,5.4,3.4,16.6,0.5,20.2 M330.1,501.6c0-10.6,4-56.4,8.6-60c0.2-0.1,0.4-0.3,0.5-0.5 M330.1,501.6
	L226.4,674.4h-10.1 M330.1,501.6l38.4-60.5 M216.3,674.4c3.4-2.7,10.1-10.8,10.1-21.7c0-10.9-9.7-8.2-14.6-5.5 M216.3,674.4
	c1.6-9.3-2.3-13.3-4.5-14.1 M211.8,647.2v13.1 M211.8,647.2v-17.1 M211.8,660.3c-4.4,6.9-15.8,17.6-26.7,5.5 M185.1,665.9
	c-1.5-0.8-4.8-0.3-6,8.6 M185.1,665.9c4-0.8,4.7-4,4.5-5.5v-30.2 M211.8,630.1L209.1,486 M211.8,630.1l47.8-68.4 M322.5,424l0.7-137
	 M322.5,424l-3.1,17.6 M323.5,233.2c-10.4,5.9-31.6,18.5-33.2,22.1 M323.5,233.2l-0.1,11 M323.4,244.2
	c-11.2,8.2-31.2,22.1-44.2,29.6 M323.4,244.2l-0.2,42.8 M285.3,252.7c0.1,1.1,0.4,2.9,0.8,5 M297.8,278.9
	c-7-2.3-10.4-13.8-11.8-21.2 M297.8,278.9l4.5-8.1 M297.8,278.9c0.5,2.5,0.3,5.4-1.2,8.1 M279.2,273.8c2.6,5.6,9.2,16.6,14.9,16.2
	 M279.2,273.8c-3.7,2.1-6.8,3.7-9.1,4.5 M294.2,290c-3.3,2.8-9,4.6-18.5,3.5 M294.2,290c1.1-0.9,1.9-1.9,2.5-3 M270.2,278.3
	c0,5,1.1,15,5.5,15.2 M275.7,293.5c-1.4-0.2-2.9-0.4-4.5-0.7 M286,257.8c-1.4,2.2-5.2,6.6-8.8,6.6 M302.4,264.3v6.5 M302.4,270.9
	h17.1 M323.2,287h-13.3 M296.6,287h13.3 M309.9,287v47.4 M309.9,441.7h9.5 M309.9,441.7h-50.3 M309.9,441.7V347 M319.4,441.7
	l-7.7,44.3 M208.3,441.7l3-17.6l-5-0.5 M208.3,441.7h20.6 M208.3,441.7l0.8,44.3 M208.3,441.7l-18.6,8.1 M206.2,423.5v-30.7
	 M206.2,423.5l-16.6,3.5 M206.2,327v35 M206.2,327l22.6-15.7 M206.2,362.1l17.1-15.1 M206.2,362.1v30.7 M206.2,392.8l10.6-7.6
	 M228.9,441.7V347h30.7v94.7 M228.9,441.7h30.7 M271.2,441.2V347h38.8 M309.9,347v-12.6 M309.9,334.4h-34.2
	c-0.8,0.5-2.7,0.3-3.5-4.5c-0.8-4.8-1-26.6-1-36.9 M209.1,486h20.3 M311.7,486l-0.3,1.5l-40.3,57.6 M311.7,486h-40.5 M271.2,486
	v59.1 M271.2,486h-11.6 M271.2,545.1l-11.6,16.6 M259.6,486v75.7 M259.6,486h-30.2 M229.4,486v119.9 M189.6,337
	c-3.4,0.8-6.5,1-8.6,0.9L162,349.3 M189.6,337v34.2 M189.6,427.1c-3.8,2.6-8.6,8.1-7,14.1 M189.6,427.1v-55.9 M189.6,449.7
	c-4.2-2.8-6.3-5.8-7-8.6 M189.6,449.7V486 M162,349.3L8,441.2 M162,349.3v45.9 M162,441.2h20.6 M162,441.2l-126.3,0.5l-4-0.1
	 M162,441.2v-45.9 M8,441.2l-32.7,19.5 M8,441.2l23.7,0.4 M162,395.2l27.7-24.1 M-24.8,460.7c11.1,9.1,38.7,26.9,60.4,25.3
	 M35.6,486c-25.4-6-13.3-32.1-4-44.4 M35.6,486h49.8 M189.6,486h-24.2 M189.6,486v128 M165.5,486v128 M165.5,486h-39.3 M165.5,614
	h24.2 M165.5,614l-192.3-1.7 M189.6,614v16.1 M189.6,630.1h-24.2 M165.5,630.1v44.3 M165.5,630.1H4.9 M-124.4,630.1l-11.1,44.8
	l48.8-44.8 M-124.4,630.1l5-18.6l55.9,0.5 M-124.4,630.1h37.7 M-135.5,605.4h16.1l-5,6h-11.1 M-63.5,612L85.5,486 M-63.5,612
	l18.1,0.2 M85.5,486h16.6 M102.1,486L-45.4,612.1 M102.1,486h24.2 M-45.4,612.1l18.6,0.2 M-26.8,612.3l153-126.3 M-86.7,630.1h30.2
	 M-56.5,630.1l-46.8,44.8 M-56.5,630.1h51.8 M-4.6,630.1l-8.1,44.8 M-4.6,630.1h9.6 M4.9,630.1l-8.1,46.4 M518.3,205.4h-55.4
	 M518.3,205.4L505.2,226 M518.3,205.4h8.1 M475,205.9V226 M475,269.4h-12.1 M475,269.4h2.6 M475,269.4v-15.9 M462.9,269.4v-15.9
	 M462.9,269.4h-65.4 M462.9,205.4h-46.3 M462.9,205.4V226 M477.6,269.4l10.1-15.9 M477.6,269.4L466.4,287 M335,269.4l-0.3-14.1
	 M335,269.4l39.9-34.3v34.3 M335,269.4h39.9 M335,269.4l0.4,17.6 M334.6,255.3l52.8-42.3c1.4-2.5,2.9-7.5-1.5-7.6 M385.9,205.4h30.7
	 M374.8,269.4h9.6 M384.4,269.4v-40.2l12.1-10.5 M384.4,269.4h13.1 M394.5,261.8v-24.2 M394.5,226l22.1-20.7 M394.5,226h68.4
	 M394.5,226v11.6 M462.9,226v11.6 M394.5,237.6h68.4 M462.9,237.6v15.9 M462.9,253.5h-41.8c-3.2,0.9-9.2,1.3-7.5-4.8 M413.6,248.7
	l25.2-31.2 M413.6,248.7c-5,5.7-15.3,17.8-16.1,20.7 M475,253.5h12.7 M475,253.5v-15.4 M487.7,253.5l9.8-15.4 M487.7,253.5
	L472,292.9 M475,238.1h22.5 M475,238.1V226 M497.5,238.1l7.7-12.1 M475,226h30.2 M335.4,287h6.8 M466.4,287h-75 M466.4,287
	l-19.5,30.7 M466.4,287c6.8,1.6,6.5,4.6,5.6,5.9 M342.1,287l8.6,26.2 M342.1,287h39.3 M350.7,313.2l30.7-2.5V287 M350.7,313.2v4.5
	 M381.4,287h4.5 M385.9,287c-0.3,8.1-0.3,24.9,2.5,27.7 M385.9,287h5.5 M388.4,314.7c3.5,3.5,6-24.1,3-27.7 M388.4,314.7l58.5,3
	 M388.4,314.7l0.8,35.8 M446.9,317.7l-20.8,32.7 M390.6,406.4l-1.3-55.9 M390.6,406.4l35.5-55.9 M390.6,406.4l-9.3,14.6
	 M389.3,350.5h36.8 M350.7,441.2h17.8 M350.7,441.2h-11.6 M350.7,441.2v-90.7 M368.5,441.2l12.8-20.2 M350.7,317.7h30.7l0,32.7
	 M350.7,317.7v32.7 M381.3,421l0.1-70.5 M381.4,350.5h-30.7 M245,674.4l227-381.5 M526.3,205.4c-0.5,6.2-3.9,22.7-13.6,38.8
	c-12.1,20.2-42.8,68-46.3,78.1c-2.8,8.1-10.2,22.8-13.6,29.2 M526.3,205.4h17.1 M455.9,336.4c-14.1,28.4-41.4,83.3-50,100.3
	 M277.2,674.4c0.6-3.8,9.1-20.6,21.6-44.3 M298.8,630.1v44.3 M298.8,630.1c3.1-5.9,6.5-12.2,10.1-18.8 M308.9,611.3v63.2
	 M308.9,611.3c4.4-8.2,9.2-17,14.1-26 M323.1,585.3v80.6 M323.1,585.3c7.4-13.5,15.2-27.6,23.1-41.8 M323.1,665.9l-3.6,8.6
	 M323.1,665.9l18.4-41.3 M483,306.1L373.2,553 M346.1,543.4l-4.7,81.1 M346.1,543.4c6.6-11.8,13.2-23.7,19.7-35.3 M341.4,624.6
	l18.1-40.7 M365.8,508.2v27.2c-2.3,10.5-6.8,34.9-6.3,48.5 M365.8,508.2c5-9,9.9-17.8,14.7-26.2 M359.5,583.9l13.7-30.8
	 M369.8,537.4c0.1,5,1,15.2,3.4,15.6 M380.5,482c8.4-15,16.3-28.9,23.1-40.8c0.4-0.8,1.2-2.3,2.3-4.5 M380.5,482
	c-2.2,15.5-6.1,46.9-4.1,48.9c2,2,3.6,0.8,4.1,0 M386.9,492.6l-3.5,12.1 M405.9,436.6c-2.6,12.1-6.8,38.4-2.3,46.9 M469,323.3
	l29.7-48.9 M526.8,205.9c0.3,13.6-0.9,42.4-8.6,48.9 M518.3,254.8h35.2 M518.3,254.8l-10.8,24.7 M534.4,205.9
	c-1.5,8.2-4.5,27.1-4.5,36.8c0,9.7,0,7.4,0,5 M543.4,205.4c-0.7,16.5-2.8,49.4-6,49.4L405.9,676.5 M543.4,205.4h7.5 M551,205.4
	c-1.7,10.2-4.9,32.9-4.5,41.3 M551,205.4h34.2 M560.6,205.9c-2.7,13.9-7.9,43-7,47.6 M553.5,253.5v1.3 M553.5,253.5
	c5.2-7.1,17.2-16.3,23.7,4.3 M553.5,254.8c0.3,4,0.2,13.8-3,20.7c-0.4,0.9-1.1,2.8-2,5.5 M405.9,676.5h-71.8l29.7-68 M405.9,676.5
	c7.4,0.8,21.8,0.1,25.9-7.6 M449.3,647.2c-4.9,1.8-15,8.2-16.6,18.6c-0.2,1.1-0.5,2.1-1,3 M449.3,647.2
	c19.2-11.1,31.5-26.6,38.4-38.8 M449.3,647.2c14.9-8.7,48.3-15.8,62.4,25.7l6.5,1.5c8.6-10,25.2-35.8,29.6-66 M507.5,279.4l41,1.5
	 M507.5,279.4l-9.2,21.2 M548.5,280.9c-1.5,4.6-3.6,11.5-6,19.7 M498.3,300.6h44.2 M498.3,300.6l-10.5,24.1 M542.5,300.6
	c-2.1,7.3-4.5,15.6-6.8,24.1 M487.7,324.7h47.9 M487.7,324.7l-15.7,36 M535.6,324.7c-1.5,5.3-2.9,10.8-4.4,16.2 M472,360.8h54.2
	 M472,360.8l-14.2,32.5 M526.1,360.8c-3.4,13.6-5.9,24.8-6.3,29.5c-0.1,1-0.2,2-0.3,3 M526.1,360.8c0.6-2.5,1.3-5.1,2-7.8
	 M457.8,393.3h61.7 M457.8,393.3l-17.6,40.3 M519.5,393.3c-1.3,12.8-3.4,31.5-4.3,41.8 M440.2,433.6l75,1.5 M440.2,433.6L423,472.9
	 M515.2,435.1c-0.3,3-0.4,5.3-0.4,6.6c0,0.5-0.1,2.1-0.4,4.5 M515.2,435.1c7.5-9.6,25.5-21.7,37.9,6.6 M423,472.9h88 M423,472.9
	l-22.7,51.9 M511,472.9c-2,15.1-4.5,33.9-6.9,51.9 M511,472.9c1.5-11.7,2.7-21.3,3.4-26.7 M400.3,524.8h103.7 M400.3,524.8l-2,4.5
	 M504.1,524.8c-0.2,1.5-0.4,3-0.6,4.5 M398.3,529.3h105.1 M398.3,529.3l-32.1,73.6 M503.4,529.3c-4.1,30.4-7.9,57.7-8.3,61
	c-0.3,2.3-1.7,6.9-4.5,12.6 M366.2,602.9h124.4 M366.2,602.9l-2.4,5.5 M490.6,602.9c-0.8,1.7-1.8,3.6-2.9,5.5 M363.8,608.4h123.9
	 M431.7,668.9c13.4-10.4,44.5-24.2,61.4,4 M577.2,257.8c0.2-0.6,0.4-1.3,0.6-2 M577.2,257.8c-1.3,6.2-2.9,14.4-4.7,23.1
	 M585.2,205.4c0.4,17-4.5,39.5-7.5,50.4 M585.2,205.4h28.2 M531.3,340.9c4.2-4.7,14.4-11.3,21.2,0 M531.3,340.9
	c-1.1,4.1-2.2,8.2-3.2,12.1 M528.1,353c7.1-7.2,23.1-17,30.4,1.5 M558.5,354.5c2.4-10.6,4.6-21.3,5.1-25.7c0.1-1.1,0.4-3,0.8-5.5
	 M558.5,354.5c-0.5,2.1-1,4.2-1.4,6.2 M514.3,446.2c6.2-9.7,22.7-24.3,38.8-4.5 M553.1,441.7c0-1.4,0.1-2.7,0.1-4 M553.1,441.7
	c-0.2,9.4-0.5,20-0.8,31.2 M577.7,255.8h16 M613.4,255.8v-50.4 M613.4,255.8c5-8.4,17.7-20.4,28.2-1 M613.4,255.8h-15.1
	 M613.4,255.8l0.8,25.2 M613.4,205.4h24.7 M622,571.2c-5.9,5.4-16.2,19-10.6,30.7 M622,571.2c11.1-6,37.7-13,55.9,7.6 M622,571.2
	c0-11.1-0.1-24.9-0.1-39.8 M611.4,601.9l-62.8,1 M611.4,601.9c1.1,1.3,2.7,3.8,3.6,6.5 M677.8,611l-7,65.5h-71
	c4.7-18.6,14.4-57.1,15.6-62c0.3-1.2,0.3-2.3,0.2-3.5 M677.8,611c-7-53.9-60.4-45.3-62.2,0 M677.8,611c0.4-0.9,0.8-1.9,1.1-3
	 M677.8,578.7l-6.1-48.4 M677.8,578.7c4.7,6.6,4.3,16.2,2.7,23.7 M649.6,354.5c-18.5-25-29.8-7.7-33.1,4 M649.6,354.5
	c-1.6-13.2-3.9-33.4-5.6-52.4 M649.6,354.5l0.8,6.2 M641.6,254.8c1.6-13.3-1.7-38.5-3.5-49.4 M641.6,254.8c7.2,1.6,11.7-0.7,13.1-2
	 M641.6,254.8c-0.5,4.5-0.2,14.2,0.7,26.2 M638.1,205.4h8.3 M616.2,347.5c4.8-7.9,17.2-19.6,28.9-3.5 M616.2,347.5l0.3,11.1
	 M616.2,347.5l-0.7-24.2 M616.6,358.5l0.1,2.2 M615.6,611c-0.1-0.9-0.3-1.7-0.6-2.5 M593.8,255.8l-16.6,418.7h10.6l10.6-418.7
	 M593.8,255.8h4.5 M572.5,280.9h41.7 M572.5,280.9c-1.4,7-2.9,14.4-4.2,21.2 M614.2,280.9l0.7,21.2 M568.3,302.1h46.5 M568.3,302.1
	c-1.6,8.4-3,16-3.9,21.2 M614.8,302.1l0.7,21.2 M564.4,323.3h51.1 M557,360.8c-1.3,5.7-2.6,11-3.5,14.9v19.1 M557,360.8h59.6
	 M616.6,360.8l0.3,8.9c1.2,5.1,3.1,15,4.2,25.2 M553.5,394.8V424c-0.1,4.1-0.2,8.7-0.3,13.6 M553.5,394.8h67.6 M621.1,394.8
	c0.6,5.5,1,11.2,0.8,16.1c-0.1,3.5-0.2,12.3-0.2,24.2 M553.2,437.6l68.6-2.5 M621.8,435.1c0,10.6,0,23.7,0,37.8 M552.3,472.9h69.4
	 M552.3,472.9c-0.4,17.3-0.9,36-1.4,53.9 M621.7,472.9c0,17.3,0,36.2,0.1,53.9 M551,526.8h70.8 M551,526.8c0,1.5-0.1,3-0.1,4.5
	 M621.8,526.8c0,1.5,0,3,0,4.5 M550.9,531.4c-0.7,26.7-1.4,51.1-1.9,65.5c-0.1,2-0.2,4-0.4,6 M550.9,531.4h71 M548.6,602.9
	c-0.2,1.9-0.4,3.7-0.7,5.5 M547.9,608.4h66h1.1 M646.4,205.4c1.9,15.1,6.3,45.7,8.3,47.4 M646.4,205.4h21.4 M654.7,252.7
	c2.3,1.9,8.9-10.5,15.1-10.8 M654.7,252.7c2.2,6.6,5.7,17.2,9.3,28.2 M682.3,254.8c1.6,0,5.7,0.7,7.5,1 M682.3,254.8
	c-1,0-2.1-2.6-3.8-5.5 M682.3,254.8l12.1,43.8l49.8,64 M689.9,255.8c-3.9-8.4-10.1-27-3.4-33.8 M689.9,255.8l54.4,106.8 M686.5,222
	l-5.7-16.6 M686.5,222l43.6,92.7 M686.5,222l121.7,229.7 M680.8,205.4h-4 M678.5,249.2c-1.7-2.9-4-6-7.2-7.1c-0.5-0.2-1-0.2-1.5-0.2
	 M678.5,249.2l-1.7-42.8v-1 M667.8,205.4l2,36.6 M667.8,205.4h9.1 M665.2,302.1c-2.3,6.9,3.1,41.9,6,58.6l79,313.7h42.8
	c-2.5-16.7-6.5-45.3-9-66.5 M665.2,302.1h5.7 M665.2,302.1H644 M670.9,302.1c1.9,5.7,3.5,11,4.9,15.1c5.5,17.5,24.5,32.1,32.6,43.5
	 M670.9,302.1c-2.2-6.7-4.6-14-6.9-21.2 M644,302.1c-0.7-7.4-1.3-14.6-1.8-21.2 M642.2,281H664 M650.4,360.8h57.9 M650.4,360.8
	l4.1,32.5 M708.4,360.8c1.5,2.1,2.6,4,3.2,5.8c0.8,2.5,4.3,12.4,9.2,26.7 M654.5,393.3h66.3 M654.5,393.3l5.3,42.3 M720.8,393.3
	c4.1,11.7,9.1,26.4,14.6,42.3 M659.8,435.6h75.6 M659.8,435.6l4.8,37.8 M735.4,435.6c2.3,6.7,4.7,13.6,7.1,20.7 M664.6,473.4
	l84.6,2.5 M664.6,473.4l6.6,52.6 M749.1,475.9c5.9,17.3,11.6,34.6,16.7,50.1 M749.1,475.9c-2.2-6.6-4.5-13.2-6.7-19.6 M671.2,526.1
	h94.6 M671.2,526.1l0.5,4.3 M765.8,526.1c0.5,1.4,0.9,2.9,1.4,4.3 M671.7,530.3h95.5 M767.2,530.3c8.8,27.2,15,48.1,14.8,52.4
	c-0.1,3.4,0.5,10.5,1.5,19.6 M680.5,602.4h103 M680.5,602.4c-0.4,2-1,3.9-1.5,5.5 M783.5,602.4c0.2,1.8,0.4,3.6,0.6,5.5 M679,607.9
	h105.1 M808.2,451.7l16.6,74.3 M808.2,451.7l23.9,42.8 M914.9,674.4L898.8,617l33.7,57.4l-75.1-134.5 M857.4,539.9l5.6,60l35.7,74.6
	 M857.4,539.9l-13.2-23.7 M844.2,516.2l-1.8,60.5 M844.2,516.2l-12.1-21.7 M842.4,576.7l11.1,36.8 M842.4,576.7l-60.5-132
	 M853.5,613.5l11.1,64 M853.5,613.5l38.8,64 M744.2,362.6l32.6,71 M742.5,456.3c2.2-11.3,12.2-31.5,34.3-22.7 M742.5,456.3
	c13.1-24.2,31.7-17.8,39.4-11.6 M776.8,433.6l5.1,11.1 M832.1,494.6v45.3 M760.8,333.9c31.2,70.8,74.1,162.4,88.7,172l107.7,171.6
	l16.6-3L760.8,333.9z"/>
</svg>
