<svg width="2560" height="1525" viewBox="0 0 1440 858" preserveAspectRatio="none" fill="none" xmlns="http://www.w3.org/2000/svg">
<path d="M-48.464 49.3673V1H266.084V49.3673M-48.464 49.3673L102.016 106.003M-48.464 49.3673H23.5046M266.084 49.3673H243.436M266.084 49.3673L266.902 123.43M148.317 123.43V96.2231M148.317 123.43L131.709 117.179M148.317 123.43H118.624M102.016 123.43V106.003M102.016 123.43H98.4928L98.7586 147.434M102.016 123.43H118.624M102.016 106.003L131.709 117.179M148.317 96.2231L131.709 91.1848M148.317 96.2231L220.789 123.43V106.003M131.709 91.1848V117.179M131.709 91.1848L23.5046 49.3673M23.5046 49.3673H74.3355M74.3355 49.3673L220.789 106.003M74.3355 49.3673H142.278M220.789 106.003V49.3673M220.789 49.3673H200.658M220.789 49.3673H243.436M142.278 49.3673H157.376M142.278 49.3673L227.835 85.9254M157.376 49.3673L266.084 96.2231V102.269L227.835 85.9254M157.376 49.3673H200.658M266.084 78.5892L200.658 49.3673M266.084 65.4897L243.436 49.3673M287.221 509.36L283.195 504.826V496.765M287.221 509.36L291.248 506.567M287.221 509.36C284.196 513.321 279.231 515.453 274.64 516.514M344.595 469.558L352.647 458.474M344.595 469.558C348.891 470.874 352.735 471.811 356.17 472.429M344.595 469.558V515.406H313.895V490.856M344.595 469.558L313.895 490.856M352.647 458.474L357.68 434.794M352.647 458.474L344.595 462.913M352.647 458.474C353.257 458.474 354.108 458.266 355.164 457.881M357.68 434.794L344.595 441.609M357.68 434.794L387.374 414.641M283.195 496.765V473.589L344.595 441.609M283.195 496.765L344.595 462.913M344.595 441.609V462.913M373.282 266.516H326.98M373.282 266.516V382.9M373.282 266.516H387.374M326.98 266.516V406.076C327.651 409.267 326.477 416.858 316.412 421.695L283.195 437.313M326.98 266.516C326.477 258.287 328.591 241.426 341.072 239.813H405.995M283.195 437.313V462.913L355.164 431.267L373.282 414.641V394.488M283.195 437.313V418.672M466.891 44.329V1H283.195V44.329M466.891 44.329H389.89M466.891 44.329H375.043M466.891 44.329V126.956H436.191M283.195 44.329H303.83M283.195 44.329V52.8941M375.043 44.329H389.89M375.043 44.329V90.1772M375.043 44.329H329.119M375.043 215.63H389.89M375.043 215.63V149.125M375.043 215.63C353.318 212.271 309.97 217.444 310.372 265.005L308.359 378.366M389.89 215.63V149.125M389.89 215.63H405.995M389.89 44.329V100.254M389.89 126.956V149.125M389.89 126.956V100.254M389.89 126.956H424.616M389.89 149.125H409.014M497.591 149.125V126.956M497.591 149.125H481.486M497.591 149.125V172.805M497.591 44.329H477.963M497.591 44.329V72.5433M497.591 44.329H507.153M477.963 44.329V90.1772M477.963 44.329V7.54974C477.292 5.36649 478.467 1 488.532 1C498.598 1 956.076 1 1183.56 1V44.329M497.591 126.956H477.963V90.1772M497.591 126.956V72.5433M477.963 90.1772L497.591 72.5433M389.89 100.254L424.616 126.956M424.616 126.956L466.891 78.5892V95.7192L436.191 126.956M424.616 126.956H436.191M1183.56 816.694V855.992H1113.1C1114.44 845.916 1126.38 826.267 1163.43 828.282V816.694H1183.56ZM1183.56 816.694V666.05M1183.56 44.329H1177.01M1183.56 44.329V51.8864M227.835 85.9254L228.841 106.441M267.041 136.025L266.902 123.43M267.041 136.025L240.417 129.533M267.041 136.025L267.08 139.552M228.841 106.441L229.848 126.956L240.417 129.533M228.841 106.441L266.902 123.43M102.016 441.609L240.417 398.178M102.016 441.609L100.25 282.135M102.016 441.609L-50.4771 489.207V513.391L28.5374 485.64M269.836 388.946L240.417 398.178M269.836 388.946L268.021 224.699M269.836 388.946L269.986 402.549M240.417 398.178V236.287M240.417 129.533V143.079M240.417 129.533H152.343L148.317 131.491M240.417 143.079L267.08 139.552M240.417 143.079V147.434M267.08 139.552L267.208 151.14M240.417 149.125L267.208 151.14M240.417 149.125V170.285M240.417 149.125V147.434M267.208 151.14L267.448 172.805M240.417 170.285L267.448 172.805M240.417 170.285V176.835M267.448 172.805L267.554 182.377M240.417 176.835L267.554 182.377M240.417 176.835V203.034M267.554 182.377L267.737 199.004M267.737 199.004L268.021 224.699M267.737 199.004L258.102 219.66M251.992 232.76L240.417 236.287M251.992 232.76L268.021 224.699M251.992 232.76L258.102 219.66M240.417 236.287V203.034M258.102 219.66L240.417 203.034M98.7586 147.434H118.624M98.7586 147.434L100.166 274.577M240.417 147.434H118.624M118.624 123.43V147.434M100.166 274.577H-50.4771V282.135H100.25M100.166 274.577L100.25 282.135M43.6356 480.337V504.826L100.25 482.155M43.6356 480.337L100.25 460.454M43.6356 480.337L28.5374 485.64M100.25 460.454L131.709 449.405V469.558L100.25 482.155M100.25 460.454V482.155M28.5374 485.64V513.391L-50.4771 543.117M269.986 402.549L251.992 408.723M269.986 402.549L270.148 417.16M251.992 408.723V421.695L270.148 417.16M251.992 408.723L240.417 412.695M270.148 417.16L270.248 426.229M240.417 412.695V426.229L199.148 441.609V426.855M240.417 412.695L199.148 426.855M199.148 426.855L191.096 429.618M191.096 429.618L140.768 446.886L143.788 465.527L191.096 446.886V429.618ZM270.248 426.229L-50.4771 555.712V583.423L-23.8034 571.835M270.248 426.229L270.418 441.609M-23.8034 571.835C-21.4548 563.773 -12.228 550.069 5.88991 559.743M-23.8034 571.835C-4.47759 559.34 10.9227 586.949 5.88991 598.537M5.88991 559.743C12.0751 563.481 21.0043 573.38 21.5292 588.965M5.88991 559.743L174.991 484.225M270.418 441.609L270.727 469.558M270.418 441.609L174.991 484.225M-50.4771 631.286L-7.69856 606.432M5.88991 598.537C7.54537 599.753 7.90755 604.974 -0.748185 616.675M5.88991 598.537L-7.69856 606.432M16.4587 612.645L-7.69856 625.191M16.4587 612.645L270.846 480.337M16.4587 612.645C18.4118 608.184 19.7342 603.984 20.5412 600.049M-50.4771 647.408L-7.69856 625.191M-7.69856 625.191C-4.90897 622.033 -2.61813 619.203 -0.748185 616.675M-0.748185 616.675L-7.69856 606.432M270.846 480.337L271.117 504.826L-54 687.715V708.371L60.2438 640.218M270.846 480.337L270.727 469.558M270.727 469.558L179.249 513.391M21.5292 588.965L179.249 513.391M21.5292 588.965C21.6445 592.387 21.3545 596.083 20.5412 600.049M174.991 484.225C193.109 484.225 200.155 508.353 179.249 513.391M20.5412 600.049C45.6863 587.67 97.1843 561.371 102.016 555.208M328.993 54.4055L375.043 90.1772M375.043 90.1772V115.872M375.043 115.872L328.49 83.1236L329.119 44.329M375.043 115.872V121.918M329.119 44.329H312.889M312.889 44.329L321.948 50.8788V77.0777C315.74 74.7265 303.427 64.8851 303.83 44.329M312.889 44.329H303.83M283.195 52.8941L305.843 69.5203M283.195 52.8941V61.4591M283.195 61.4591L375.043 121.918M283.195 61.4591V91.1848M375.043 121.918V129.476M283.195 91.1848V113.353M283.195 91.1848L315.405 110.33M347.615 129.476H375.043M347.615 129.476H319.934M347.615 129.476L315.405 110.33M375.043 129.476V149.125M283.195 129.476V113.353M283.195 129.476H315.405M283.195 129.476V149.125M283.195 113.353L315.405 129.476M315.405 129.476H319.934M319.934 129.476C318.089 129.476 314.6 125.646 315.405 110.33M283.195 149.125H308.359M283.195 149.125V418.672M375.043 149.125H352.144M352.144 149.125V215.63M352.144 149.125H337.046M337.046 149.125V219.66M337.046 149.125H324.967M324.967 149.125V227.218M324.967 149.125H308.359M308.359 149.125V239.813M308.359 378.366C313.056 382.396 332.617 388.946 373.282 382.9M308.359 378.366C308.541 381.394 308.502 385.065 308.101 388.946M373.282 382.9V394.488M283.195 418.672C300.529 419.618 306.658 402.928 308.101 388.946M308.101 388.946C318.253 391.801 345.501 396.906 373.282 394.488M405.995 239.813H419.08M405.995 239.813V230.241M405.995 215.63V192.958H409.014M405.995 215.63V230.241M405.995 215.63L412.537 212.103L416.564 215.63M409.014 192.958V149.125M409.014 192.958H420.086M409.014 149.125H420.086M420.086 192.958V149.125M420.086 192.958H428.642M420.086 149.125H428.642M428.642 192.958V149.125M428.642 192.958H438.204M428.642 149.125H438.204M438.204 149.125V192.958M438.204 149.125H445.25M438.204 192.958H488.532L491.803 186.408M481.486 149.125V192.958M481.486 149.125H469.408M469.408 149.125H445.25M469.408 149.125V175.828M469.408 186.408V175.828M445.25 149.125L469.408 175.828M497.591 172.805V174.82L491.803 186.408M497.591 172.805H509.166M509.166 172.805V186.408M509.166 172.805L510.676 68.0088L507.153 44.329M509.166 186.408H491.803M509.166 186.408C510.173 191.446 508.663 203.84 494.571 213.111M494.571 213.111H419.08L416.564 215.63M494.571 213.111L507.657 213.151M416.564 215.63V230.241M416.564 230.241L419.08 239.813M416.564 230.241H405.995M416.564 230.241H982.246M419.08 239.813H962.115M982.246 239.813V230.241M982.246 239.813H962.115M982.246 239.813V266.516M982.246 230.241V214.622M982.246 214.622L962.115 214.56M982.246 214.622V149.125M962.115 214.56V239.813M962.115 214.56L964.128 205.553L949.533 189.935V149.125M962.115 214.56L952.05 214.529M507.657 213.151C512.186 209.611 521.346 198.5 521.748 182.377V149.125M507.657 213.151L566.037 213.332M521.748 44.329H507.153M521.748 44.329H558.991M521.748 44.329V53.9017M521.748 44.329L535.84 68.0088M521.748 65.4897H517.219M521.748 65.4897V126.956M521.748 65.4897V53.9017M521.748 126.956V149.125M521.748 126.956H558.991M982.246 126.956V149.125M982.246 126.956H949.533M982.246 126.956V99.246M982.246 149.125H949.533M521.748 149.125H566.037M982.246 61.9629L972.181 44.329M982.246 61.9629L994.325 51.8864M982.246 61.9629H992.312M982.246 61.9629V74.5586M972.181 44.329H884.107M972.181 44.329H997.848M982.246 74.5586L924.37 126.956M982.246 74.5586V99.246M924.37 126.956H949.533M924.37 126.956H915.311M949.533 126.956L982.246 99.246M915.311 126.956H903.232M915.311 126.956V101.261M903.232 82.116C913.297 82.519 915.478 92.3604 915.311 97.2307V101.261M903.232 82.116C902.896 70.8638 898.602 47.5535 884.107 44.329M903.232 82.116V104.536M903.232 126.956H892.16M903.232 126.956V104.536M884.107 44.329H875.552M915.311 101.261C923.699 104.284 942.789 112.849 952.05 122.926M915.311 101.261L903.232 104.536M892.16 126.956L893.67 76.07M892.16 126.956H847.872M893.67 76.07C892.155 72.2492 889.949 67.0485 887.54 61.9629M893.67 76.07C885.927 71.0318 864.913 63.0713 842.8 71.5356M875.552 44.329H853.911M875.552 44.329C878.381 44.329 883.279 52.9659 887.54 61.9629M853.911 44.329C854.564 45.9162 854.335 50.0051 851.236 56.9247M853.911 44.329H803.08M807.106 126.956C810.461 119.735 821.198 100.052 837.303 79.093C838.507 77.5258 839.631 76.0146 840.678 74.5586M807.106 126.956H840.678M807.106 126.956H769.864M840.678 74.5586V126.956M840.678 74.5586C841.423 73.5231 842.13 72.5156 842.8 71.5356M840.678 126.956H847.872M842.8 71.5356C849.381 70.0241 848.274 124.538 847.872 126.956M842.8 71.5356C846.784 65.7096 849.474 60.8595 851.236 56.9247M851.236 56.9247C858.107 55.4132 874.987 54.3048 887.54 61.9629M814.152 45.8405L780.936 118.391M786.472 44.329L788.988 56.9247L776.28 84.1313M786.472 44.329H803.08M786.472 44.329H761.811M756.275 126.956H765.334M756.275 126.956H734.131M756.275 126.956L764.512 109.323M765.334 126.956L803.08 44.329M765.334 126.956H769.864M769.864 126.956L783.452 101.765M761.811 44.329H756.275M761.811 44.329L751.009 76.5739M734.131 126.956H703.934M734.131 126.956L743.414 99.246M734.131 126.956C733.572 121.085 728.643 109.068 714 101.021M703.934 96.7269V126.956M703.934 96.7269V44.329M703.934 96.7269C707.712 97.9425 711.053 99.4013 714 101.021M703.934 96.7269L689.339 85.6427M703.934 126.956H689.339M703.934 44.329H710.477M703.934 44.329H689.339M756.275 44.329L747.216 71.5356M756.275 44.329H710.477M710.477 44.329V58.94M710.477 58.94L751.009 76.5739M710.477 58.94V78.5892L746.958 88.6657M751.009 76.5739L746.958 88.6657M751.009 76.5739L776.28 84.1313M746.958 88.6657L743.414 99.246M746.958 88.6657L769.864 97.8663M716.013 86.1466L743.414 99.246M743.414 99.246L764.512 109.323M714 101.021C714.503 102.277 713.799 104.99 706.954 105.796M689.339 44.329H678.267M689.339 44.329V85.6427M689.339 126.956H678.267M689.339 126.956V85.6427M678.267 126.956V91.1848M678.267 126.956H647.064M678.267 44.329H669.208M678.267 44.329V53.9017M689.339 85.6427L678.267 91.1848M678.267 91.1848V53.9017M678.267 91.1848L669.208 96.7269M669.208 44.329L678.267 53.9017M669.208 44.329H635.489M665.182 48.8634V61.9629M665.182 61.9629L671.221 58.94M665.182 61.9629L641.528 71.5356M665.182 61.9629L667.195 76.5739M641.528 71.5356L635.489 44.329M641.528 71.5356L646.087 85.6427M635.489 44.329H599.756M667.195 80.1006L647.064 88.6657L646.087 85.6427M667.195 80.1006V76.5739M667.195 80.1006L669.208 96.7269M667.195 76.5739L646.087 85.6427M669.208 96.7269L670.215 125.949M669.208 96.7269L647.064 120.911M669.208 96.7269L656.626 99.246M647.064 120.911V126.956M647.064 120.911L642.757 101.021M647.064 126.956H624.92M631.463 48.8634L637.463 76.5739M642.757 101.021L618.377 109.323M642.757 101.021L640.082 88.6657M618.377 109.323L624.92 126.956M618.377 109.323L615.49 99.246M599.756 44.329L612.459 88.6657M599.756 44.329H589.691M624.92 126.956H615.49M615.49 99.246L640.082 88.6657M615.49 99.246L612.459 88.6657M640.082 88.6657L637.463 76.5739M612.459 88.6657L637.463 76.5739M589.691 44.329L615.49 126.956M589.691 44.329H568.05M615.49 126.956H605.292M605.292 126.956L595.227 110.33M605.292 126.956H597.24M597.24 126.956L568.05 44.329M597.24 126.956H587.678M568.05 44.329H558.991M587.678 126.956L558.991 44.329M587.678 126.956H558.991M558.991 126.956L521.748 53.9017M566.037 125.949L553.958 101.021M566.037 149.125V213.332M566.037 149.125H595.227M566.037 213.332L595.227 213.423M595.227 149.125V213.423M595.227 149.125H603.279M595.227 213.423L603.279 213.448M603.279 149.125V213.448M603.279 149.125H627.436M603.279 213.448L611.332 213.473M611.332 149.629V213.473M611.332 213.473L618.377 213.494M618.377 213.494L615.49 167.263M618.377 213.494L627.436 213.522M615.49 167.263L627.436 157.69C627.436 161.269 627.436 165.615 627.436 170.285M615.49 167.263L627.436 170.285M627.436 213.522C627.436 211.223 627.436 188.328 627.436 170.285M627.436 213.522L635.097 213.546M627.436 149.125C631.286 156.565 639.46 175.377 642.438 192.958M627.436 149.125H646.087M642.757 213.57V194.973C642.659 194.303 642.552 193.631 642.438 192.958M642.757 213.57L635.097 213.546M642.757 213.57L650.084 213.593M642.438 192.958C639.86 194.256 634.783 200.191 635.097 213.546M650.084 213.593V205.553L656.626 202.026M650.084 213.593L716.013 213.797M656.626 202.026H706.954M656.626 202.026L669.208 182.377M706.954 202.026L716.013 205.553M706.954 202.026L689.339 182.377M716.013 205.553V213.797M716.013 205.553H720.794M716.013 213.797L725.575 213.827M725.575 213.827V205.553H720.794M725.575 213.827L749.644 213.901M689.339 182.377H669.208M689.339 182.377H710.477M669.208 182.377H650.084M650.084 182.377L646.087 149.125M650.084 182.377C650.084 172.301 656.459 168.102 659.646 167.263M646.087 149.125H654.613M654.613 149.125L659.646 167.263M654.613 149.125H675.751M659.646 167.263H703.934M718.026 167.263L710.477 182.377M718.026 167.263L725.575 149.125M718.026 167.263H703.934M710.477 182.377H728.092M728.092 182.377C725.911 184.393 721.398 191.849 720.794 205.553M728.092 182.377L740.674 149.125M728.092 182.377L724.569 171.293C725.096 156.783 725.459 150.468 725.575 149.125M728.092 182.377L733.376 196.484M740.674 149.125H725.575M740.674 149.125H753.759M725.575 149.125H703.934M675.751 149.125V160.209M675.751 149.125H703.934M675.751 160.209H703.934M675.751 160.209L689.339 154.667H703.934M703.934 160.209V167.263M703.934 160.209V154.667M703.934 149.125V154.667M753.759 149.125L765.334 149.629C764.25 152.489 762.727 156.251 760.972 160.209M753.759 149.125L733.376 196.484M753.759 149.125H769.864M733.376 196.484L734.131 198.5C734.131 207.904 735.44 221.071 740.674 198.5C740.506 194.301 741.58 185.199 747.216 182.377C747.975 181.998 748.791 181.303 749.644 180.362M749.644 180.362V213.901M749.644 180.362C753.266 176.364 757.556 167.914 760.972 160.209M749.644 213.901L761.308 213.937M761.308 213.937L760.972 160.209M761.308 213.937L769.864 213.964M769.864 149.125V213.964M769.864 149.125H780.117M769.864 213.964L780.117 213.996M780.117 213.996L795.028 214.042M780.117 213.996V200.011M780.117 149.125H795.028M780.117 149.125V200.011M795.028 149.125V198.5M795.028 149.125H807.106M795.028 214.042V198.5M795.028 214.042L807.106 214.079M780.117 200.011L795.028 198.5M807.106 149.125H840.678M807.106 149.125V194.973M807.106 214.079L840.678 214.183M807.106 214.079V194.973M840.678 149.125V194.973M840.678 149.125H892.16M840.678 214.183V194.973M840.678 214.183L892.16 214.343M840.678 194.973H807.106M840.678 194.973L892.16 196.484M892.16 196.484V149.125M892.16 196.484V214.343M892.16 149.125H903.232M892.16 214.343L903.232 214.377M903.232 149.125V214.377M903.232 149.125H915.311M903.232 214.377L922.86 214.438M915.311 149.125V213.797M915.311 149.125H922.86M922.86 149.125V214.438M922.86 149.125H933.429M922.86 214.438L937.958 214.485M933.429 149.125C932.59 150.804 932.321 154.768 937.958 157.186V214.485M933.429 149.125H949.533M937.958 214.485L952.05 214.529M946.514 198.5C946.849 203.838 948.426 214.517 952.05 214.529M776.28 84.1313L769.864 97.8663M769.864 97.8663L764.512 109.323M997.848 44.329L997.627 61.9629M997.848 44.329H1014.46M992.815 620.706L995.332 607.606L990.802 606.599L991.759 530.269M992.815 620.706H1046.16M992.815 620.706C992.002 627.056 990.873 644.773 992.64 666.05M992.815 620.706C987.984 626.752 974.362 623.225 968.155 620.706M1183.56 620.706H1080.39M1183.56 620.706V593.499M1183.56 620.706V666.05M997.627 61.9629L1014.46 44.329M997.627 61.9629L997.419 78.5892M1014.46 44.329H1033.58M997.419 78.5892L1033.58 44.329M997.419 78.5892L997.261 91.1848M1033.58 44.329H1046.67M997.261 91.1848L1010.93 80.8648M997.261 91.1848L996.882 121.414M1046.67 44.329C1048.28 50.778 1045.99 54.4055 1044.65 55.4132L1010.93 80.8648M1046.67 44.329H1069.82M1010.93 80.8648L1069.82 44.329M1069.82 44.329H1089.95M1071.33 63.9782C1077.53 60.7873 1089.95 52.3902 1089.95 44.329M1089.95 44.329H1111.59M996.882 121.414L1014.46 110.241M996.882 121.414L996.775 129.979M1111.59 44.329C1105.38 52.0543 1089.54 68.3111 1075.86 71.5356C1062.17 74.7601 1052.37 83.9633 1049.18 88.1619L1014.46 110.241M1111.59 44.329H1132.22M1014.46 110.241C1052.87 90.9572 1130.21 50.778 1132.22 44.329M1132.22 44.329H1177.01M1024.52 129.979L1099.51 97.2307M1099.51 97.2307C1122.33 83.6274 1169.77 54.0025 1177.01 44.329M1099.51 97.2307L1129.84 80.8648M1183.56 51.8864L1129.84 80.8648M1183.56 51.8864V88.1619M1129.84 80.8648V104.536L1069.82 129.979H1086.42L1127.19 112.429M1183.56 88.1619L1127.19 112.429M1183.56 88.1619V112.429M1127.19 112.429L1132.22 126.956M1183.56 112.429L1140.28 129.979M1183.56 112.429V129.979M1140.28 129.979H996.775M1140.28 129.979H1183.56M996.775 129.979L996.535 149.125M1183.56 129.979V149.125M996.535 149.125H1029.05M996.535 149.125L995.714 214.622M1183.56 149.125H1029.05M1183.56 149.125V313.876M1029.05 149.125C1029.79 149.676 1030.65 150.458 1031.57 151.473M1041.63 214.529V196.484C1037.27 193.989 1038.25 190.125 1040.01 187.416M1041.63 214.529L1031.57 214.549M1041.63 214.529L1048.18 214.546M995.714 214.622L1031.57 214.549M995.714 214.622L995.398 239.813M1031.57 214.549V151.473M1031.57 151.473C1036.23 156.648 1042.31 167.879 1041.63 185.4C1041.1 185.932 1040.52 186.624 1040.01 187.416M1040.01 187.416C1050.95 185.4 1073.74 183.083 1077.37 189.935M1077.37 189.935V157.69M1077.37 189.935V214.622M1077.37 214.622L1048.18 214.546M1077.37 214.622C1089.61 215.462 1113.6 226.714 1111.59 265.005M1048.18 214.546C1046.67 206.846 1046.26 191.547 1056.73 191.95M1111.59 265.005V384.915M1111.59 265.005H1094.48M1111.59 384.915L1094.48 377.621M1111.59 384.915L1151.85 407.084M1111.59 384.915L1140.28 394.992V351.663L1151.85 345.113M1033.58 351.663H993.997M1033.58 351.663L1043.14 355.739M1033.58 351.663V337.556M993.997 351.663L994.173 337.556M993.997 351.663L993.731 372.823M1033.58 265.005H997.419H995.083M1033.58 265.005H1043.14M1033.58 265.005V337.556M995.083 265.005L995.398 239.813M995.083 265.005L994.173 337.556M995.398 239.813C1029.93 232.76 1098.1 227.923 1094.48 265.005M1094.48 265.005V377.621M1094.48 265.005H1051.7M1094.48 377.621L1051.7 359.386M1043.14 265.005V355.739M1043.14 265.005H1051.7M1043.14 355.739L1051.7 359.386M1051.7 265.005V359.386M994.173 337.556H1033.58M993.731 372.823H1040.01M993.731 372.823L993.58 384.915M1040.01 372.823L1035.09 378.869L1047.67 387.938M1040.01 372.823L1094.48 391.435M1140.28 407.084H1151.85M1140.28 407.084L1134.24 405.02M1140.28 407.084C1142.46 407.689 1146.72 412.901 1146.31 428.901M1151.85 407.084L1183.56 416.152M1183.56 416.152V349.647M1183.56 416.152V425.725M1151.85 345.113L1183.56 349.647M1151.85 345.113C1133.73 336.649 1141.28 320.761 1147.32 313.876M1151.85 345.113C1144.64 348.808 1130.21 351.461 1130.21 332.517C1130.21 313.574 1141.62 312.196 1147.32 313.876M1183.56 349.647V313.876M1183.56 313.876H1147.32M993.58 384.915C1001.88 383.572 1021.5 382.295 1033.58 387.938M993.58 384.915L993.454 394.992M1033.58 387.938V412.626M1033.58 387.938L1044.15 393.228M1033.58 412.626L993.454 394.992M1033.58 412.626L1044.15 416.908M993.454 394.992L993.233 412.626M1054.72 398.519V421.191M1054.72 398.519L1044.15 393.228M1054.72 398.519L1060.25 401.541V424.214M1054.72 421.191L1044.15 416.908M1054.72 421.191L1060.25 424.214M1044.15 416.908V393.228M1060.25 424.214L1069.82 427.74M1069.82 427.74V404.564L1085.42 412.626V432.779M1069.82 427.74L1085.42 432.779M1085.42 432.779L1092.97 437.313M1092.97 437.313L1094.48 412.626L1111.59 421.191M1092.97 437.313L1109.07 444.367M1111.59 421.191L1109.07 444.367M1111.59 421.191L1135.75 432.779V457.466M1109.07 444.367L1135.75 457.466M1135.75 457.466L1143.8 461.497M1143.8 461.497V434.794L1155.37 440.336M1143.8 461.497L1155.37 465.527M1155.37 440.336V465.527M1155.37 440.336L1183.56 451.924M1155.37 465.527L1183.56 477.619M1183.56 477.619V451.924M1183.56 477.619V499.284M1183.56 451.924V444.367M1183.56 444.367L1155.65 432.779M1183.56 444.367V425.725M1047.67 387.938V381.388M1047.67 387.938L1069.82 397.134M1069.82 397.134C1070.15 394.405 1071.93 389.047 1076.36 389.45C1080.79 389.853 1084.91 399.338 1086.42 404.031M1069.82 397.134L1086.42 404.031M1086.42 404.031L1094.48 407.375M1094.48 391.435V407.375M1094.48 391.435L1110.08 396.766M1094.48 407.375L1110.08 413.853M1110.08 396.766V413.853M1110.08 396.766L1134.24 405.02M1110.08 413.853L1134.24 423.885M1134.24 405.02V423.885M1134.24 423.885L1146.31 428.901M1146.31 428.901L1155.65 432.779M1155.65 432.779C1155.87 421.896 1150.86 415.627 1148.33 413.853L1183.56 425.725M993.233 412.626H998.854L1121.27 470.062M993.233 412.626L993.012 430.26M1183.56 499.284L1129.2 473.782M1183.56 499.284V521.956M1183.56 540.597L1111.59 501.803C1109.91 494.207 1111.09 477.968 1129.2 473.782M1183.56 540.597V554.201M1183.56 540.597V521.956M1129.2 473.782L1121.27 470.062M1121.27 470.062C1114.19 473.32 1104.05 480.583 1101.69 490.215M1106.56 507.849L1183.56 554.201M1106.56 507.849C1101.44 501.442 1100.4 495.475 1101.69 490.215M1106.56 507.849L992.885 440.336M1183.56 554.201V580.903M993.012 430.26L1101.69 490.215M993.012 430.26L992.885 440.336M992.885 440.336L992.614 462.001M992.614 462.001L1031.06 490.55M992.614 462.001L992.256 490.55M1069.82 620.706H1046.16M1069.82 620.706L1071.03 540.094M1069.82 620.706H1080.39M1046.16 620.706L1047.67 540.094M1047.67 540.094H1071.03M1047.67 540.094H995.332M1071.03 540.094L1071.18 530.269M1071.18 530.269L1071.33 520.444L1046.16 501.76M1071.18 530.269H1046.16M991.759 530.269H1046.16M991.759 530.269L992.153 498.771M1046.16 530.269V501.76M1046.16 501.76L1042.14 498.771M1042.14 498.771H992.153M1042.14 498.771L1031.06 490.55M992.153 498.771L992.256 490.55M1031.06 490.55H992.256M1080.39 620.706V521.956M1080.39 521.956L1183.56 593.499M1080.39 521.956L1036.1 485.68L1183.56 580.903M1183.56 593.499V580.903M1124.17 492.734L1183.56 521.956M992.815 668.065V714.417M992.815 668.065C992.754 667.39 992.695 666.718 992.64 666.05M992.815 668.065H978.397M992.815 714.417L1046.16 785.027M992.815 714.417L929.519 620.706M1067.8 813.671L1069.82 666.05M1067.8 813.671L1046.16 785.027M1067.8 813.671V853.977M1069.82 666.05H1046.16M1069.82 666.05H1080.39M1046.16 666.05V785.027M1046.16 666.05H992.64M1080.39 666.05V840.374L1090.45 855.992L1073.84 836.343M1080.39 666.05H1183.56M982.246 266.516L979.887 372.823M982.246 266.516H952.05M968.155 620.706C968.96 604.18 972.852 604.415 974.697 606.599L976.392 530.269M968.155 620.706C968.322 631.958 967.349 656.78 962.115 666.05L977.214 689.226C977.801 684.371 978.392 676.567 978.397 668.065M968.155 620.706H929.519M974.697 637.836C977.531 646.199 978.403 657.655 978.397 668.065M825.727 467.039H913.297M825.727 467.039L841.607 490.55M825.727 467.039L815.125 449.909M825.727 467.039C831.328 480.281 838.194 496.221 845.753 513.391M977.795 467.039H923.363M977.795 467.039L977.091 498.771M977.795 467.039L978.175 449.909M913.297 467.039L913.46 490.55M913.297 467.039H923.363M914.206 598.034L913.752 532.536M914.206 598.034L869.966 532.536M914.206 598.034L923.363 611.591M913.752 532.536H869.966M913.752 532.536L913.525 499.788M869.966 532.536L841.607 490.55M913.525 499.788H859.447M913.525 499.788L913.46 490.55M913.46 490.55H841.607M923.363 467.039V490.55M923.363 467.039C933.704 484.337 958.834 519.134 976.621 519.941M923.363 611.591L929.519 620.706M923.363 611.591V539.315M923.363 539.315H972.181V535.055M923.363 539.315V530.269M923.363 530.269V490.55M923.363 530.269H961.612M976.392 530.269H961.612M976.392 530.269L976.621 519.941M923.363 490.55C929.235 503.79 945.105 530.269 961.612 530.269M976.621 519.941L977.091 498.771M977.091 498.771L946.514 494.245M774.896 384.915L808.252 438.805M774.896 384.915H791.574M774.896 384.915H765.837M966.645 384.915L979.439 392.976M966.645 384.915V424.428M966.645 384.915L956.579 392.976M966.645 384.915H936.951M979.439 392.976L978.578 431.771M979.439 392.976L979.887 372.823M978.175 449.909H953.034M978.175 449.909L890.147 384.915M978.175 449.909L978.578 431.771M815.125 449.909H841.607M815.125 449.909L808.252 438.805M841.607 449.909V434.038M841.607 449.909H847.368M841.607 384.915H808.252M841.607 384.915V404.061M841.607 384.915H847.368M808.252 384.915V404.061M808.252 384.915H791.574M808.252 438.805V434.29M808.252 404.061H841.607M808.252 404.061V418.168M841.607 404.061V418.168M841.607 418.168H808.252M841.607 418.168V434.038M808.252 418.168V434.29M808.252 434.29L841.607 434.038M791.574 384.915V400.03L796.537 409.603M847.368 384.915V404.061M847.368 384.915H857.937M847.368 449.909V434.038M847.368 449.909H901.722M847.368 434.038H896.689M847.368 434.038V418.168M847.368 418.168H907.258M847.368 418.168V404.061M847.368 404.061H896.689M857.937 384.915L901.722 449.909M857.937 384.915H871.526M901.722 449.909H904.239M904.239 449.909C905.245 441.344 907.258 421.291 907.258 409.603L871.526 384.915M904.239 449.909H916.82M871.526 384.915H890.147M916.82 416.152V449.909M916.82 449.909H927.893M927.893 449.909V425.725L953.034 449.909M927.893 449.909H953.034M890.147 384.915H928.396M928.396 384.915C926.55 387.266 923.866 393.178 927.893 398.015C931.033 401.787 950.854 414.593 966.645 424.428M928.396 384.915H936.951M978.578 431.771C975.231 429.739 971.098 427.202 966.645 424.428M956.579 392.976C957.25 397.124 958.19 406.559 956.579 411.114M956.579 392.976L936.951 384.915M979.887 372.823H903.232M438.204 372.823V266.516M438.204 372.823H469.408M438.204 372.823V394.488M438.204 266.516H469.408M438.204 266.516H428.642M469.408 266.516V372.823M469.408 266.516H484.003M469.408 372.823H561.507M484.003 266.516V334.029H556.474C558.823 332.517 563.52 328.487 563.52 324.456C563.52 320.426 562.178 284.486 561.507 267.02L566.037 266.516M484.003 266.516H566.037M566.037 266.516L566.749 289.692M566.037 266.516H597.743M568.05 332.014C569.56 334.365 571.673 340.377 568.05 345.617V372.823M568.05 332.014L566.749 289.692M568.05 332.014L597.743 331.258M568.05 372.823H561.507M568.05 372.823H597.743M561.507 372.823V345.617H481.486M566.749 289.692H597.743M597.743 289.692V266.516M597.743 289.692V331.258M597.743 266.516H611.332M597.743 372.823V331.258M597.743 372.823H611.332M387.374 266.516V414.641M387.374 266.516H408.511M387.374 414.641L408.511 408.723M408.511 266.516V408.723M408.511 266.516H419.08M408.511 408.723L408.491 412.695M419.08 266.516V394.488M419.08 266.516H428.642M419.08 412.695V394.488M419.08 412.695L438.204 394.488M419.08 412.695L419.613 434.794M419.08 394.488L427.132 398.178L428.642 266.516M438.204 394.488C447.062 385.218 460.684 384.243 466.388 384.915H470.917M611.332 266.516V287.677M611.332 266.516H618.377M611.332 372.823H614.855M611.332 372.823V355.19M614.855 372.823L629.953 337.052M614.855 372.823H630.456M611.332 355.19V287.677M611.332 355.19C613.217 351.816 615.657 347.659 618.377 343.308M644.045 314.883C641.828 314.39 638.646 316.649 635.07 320.426M611.332 287.677H635.097M731.111 287.677V312.868M731.111 287.677H723.059M731.111 287.677H741.177M723.059 287.677V343.602M723.059 287.677H653.104M723.059 372.823V350.151M723.059 372.823H697.895M723.059 372.823H731.363M723.059 343.602H651.594M723.059 343.602V350.151M651.594 343.602L650.084 350.151H673.989M651.594 343.602V320.426M723.059 350.151H697.895M697.895 350.151V372.823M697.895 350.151H673.989M697.895 372.823H673.989M673.989 350.151V372.823M673.989 372.823H646.058M650.084 351.663L646.058 372.823M646.058 372.823V320.426M646.058 372.823H635.097M646.058 320.426H651.594M646.058 320.426V301.784M651.594 320.426L652.453 301.784M653.104 287.677H646.058M653.104 287.677L652.453 301.784M646.058 287.677V301.784M646.058 287.677H635.097M646.058 301.784H652.453M635.097 287.677L635.07 320.426M635.07 320.426C633.931 321.628 632.752 322.985 631.552 324.456M631.552 324.456V292.715H618.377V343.308M631.552 324.456C627.144 329.858 622.447 336.8 618.377 343.308M630.456 372.823V346.121M630.456 372.823H635.097M635.097 372.823V343.308M635.097 337.052L639.515 328.991M635.097 337.052H639.515V343.308H635.097M635.097 337.052V343.308M618.377 266.516V282.639M618.377 266.516H630.456M630.456 266.516V282.639M630.456 266.516H636.495M636.495 266.516V282.639M636.495 266.516H646.058M646.058 266.516V282.639H653.104M646.058 266.516H653.104M653.104 266.516V282.639M653.104 266.516H724.569M653.104 282.639H724.569M724.569 282.639V266.516M724.569 282.639H731.615M724.569 266.516H731.615M731.615 282.639V266.516M731.615 282.639L753.759 286.669H773.387M731.615 266.516H752.249M781.942 286.669V266.516M781.942 286.669L792.511 287.092M781.942 286.669H773.387M781.942 286.669V292.715M781.942 266.516H792.511M781.942 266.516H770.367M807.106 287.677V266.516M807.106 287.677L792.511 287.092M807.106 287.677V335.036M807.106 266.516H792.511M807.106 266.516H841.607M792.511 287.092V266.516M792.511 287.092V372.823M770.367 266.516L771.499 274.074M770.367 266.516H760.301M773.387 286.669L771.499 274.074M771.499 274.074L767.851 278.104M760.301 266.516V281.127M760.301 266.516H752.249M752.249 266.516V281.127M807.106 372.823H792.511M807.106 372.823H841.607M807.106 372.823V346.624M792.511 372.823H781.942M781.942 372.823H771.499M781.942 372.823V292.715M771.499 372.823L761.308 352.167M771.499 372.823H756.275M761.308 352.167V289.692M761.308 352.167L741.177 325.968M761.308 352.167C760.972 359.052 759.496 372.823 756.275 372.823M761.308 289.692H770.367M761.308 289.692H752.249M770.367 289.692L769.864 357.709M770.367 289.692L781.942 292.715M752.249 289.692V335.036L741.177 325.968M752.249 289.692L741.177 287.677M741.177 325.968V287.677M741.177 325.968L731.111 317.403L731.363 372.823M756.275 372.823H752.249M752.249 372.823V362.243L744.7 346.624C743.198 346.74 740.806 349.371 739.856 357.709M752.249 372.823H739.667M739.667 372.823C739.291 366.42 739.426 361.481 739.856 357.709M739.667 372.823H731.363M739.856 357.709L739.667 330.502C738.828 334.869 736.547 343.602 734.131 343.602M841.607 266.516V335.036M841.607 266.516H849.381M841.607 372.823V346.624M841.607 372.823H903.232M807.106 335.036H841.607M807.106 335.036V346.624M841.607 335.036V346.624M841.607 346.624H807.106M849.381 266.516H892.16M849.381 266.516V335.036M903.232 266.516V337.556H890.147V344.609H849.381V335.036M903.232 266.516H892.16M903.232 266.516H922.86M892.16 266.516V325.968M849.381 335.036H890.147M922.86 266.516V341.082M922.86 266.516H936.951M922.86 356.197V341.082M922.86 341.082H903.232V372.823M907.258 348.136C912.123 350.319 920.847 357.406 916.82 368.289M936.951 266.516L937.958 357.709M936.951 266.516H952.05M934.435 359.724L946.514 368.289M964.128 268.028V294.227M952.05 266.516V291.204M952.05 337.556V346.624C952.05 371.614 960.102 371.48 964.128 368.289V337.556M952.05 337.556H964.128M952.05 337.556V291.204M964.128 337.556V294.227M952.05 291.204L964.128 294.227M1203.18 44.329V1H1482V44.329H1442.24M1203.18 44.329V80.8648M1203.18 44.329H1292.77M1203.18 853.977V828.282M1203.18 813.671H1313.4M1203.18 813.671V666.05M1203.18 813.671V828.282M1479.99 813.671H1384.36M1326.49 813.671V687.211M1326.49 813.671H1313.4M1326.49 813.671H1371.28M1313.4 813.671V678.142M1203.18 606.095V593.499M1203.18 606.095V622.721M1203.18 606.095L1222.81 618.67M1203.18 593.499L1396.44 711.691M1203.18 593.499V562.262M1203.18 666.05V622.721M1203.18 666.05C1206.87 666.2 1211.34 666.301 1216.27 666.309M1282.2 656.719L1222.81 618.67M1282.2 656.719C1270.65 664.477 1238.69 666.346 1216.27 666.309M1282.2 656.719L1378.55 718.448M1203.18 622.721C1205.58 623.057 1209.48 623.25 1213.32 622.721M1222.81 618.67C1220.64 621.034 1217.01 622.212 1213.32 622.721M1213.32 622.721C1218.66 627.764 1226.74 643.541 1216.27 666.309M1389.4 669.073C1383.5 675.623 1373.08 694.667 1378.55 718.448M1389.4 669.073L1203.18 562.262M1389.4 669.073L1396.44 673.188M1378.55 718.448L1407.01 736.686M1396.44 711.691L1479.99 762.785V783.441L1407.01 736.686M1396.44 711.691C1401.68 729.624 1405.67 735.827 1407.01 736.686M1203.18 828.282H1313.4M1479.99 828.282H1326.49M1371.28 813.671C1376.31 816.526 1386.98 828.584 1389.4 853.977M1371.28 813.671H1384.36M1384.36 813.671C1389.4 819.717 1399.16 835.839 1397.95 851.962M1313.4 828.282V851.962M1313.4 828.282H1326.49M1326.49 828.282V851.962M1203.18 562.262V550.17M1407.01 666.05L1479.99 703.837V721.975L1418.59 686.119M1407.01 666.05L1418.59 686.119M1407.01 666.05C1401.81 645.225 1403.79 607.405 1453.31 622.721M1418.59 686.119L1396.44 673.188M1453.31 622.721L1479.99 636.828M1453.31 622.721C1452.74 614.629 1446.82 601.812 1428.51 606.095M1396.44 673.188C1395.42 670.585 1394.32 666.68 1393.6 662.019M1428.51 606.095C1425.54 606.789 1422.24 607.934 1418.59 609.622C1393.28 621.317 1391.16 646.082 1393.6 662.019M1428.51 606.095L1203.18 506.841M1203.18 506.841V528.506M1203.18 506.841V485.68M1203.18 550.17L1320.95 614.156M1203.18 550.17V528.506M1320.95 614.156C1341.43 622.889 1383.49 642.37 1387.89 650.431M1320.95 614.156L1393.6 662.019M1418.59 645.393L1479.99 676.127M1203.18 528.506L1393.6 622.721M1203.18 485.68L1244.88 503.818M1203.18 485.68V457.97M1203.18 425.725V434.794M1203.18 425.725L1313.91 458.776M1203.18 425.725V352.67M1203.18 434.794L1243.45 447.252M1203.18 434.794V450.055M1479.99 520.444V508.353L1325.98 462.382M1479.99 520.444V546.139M1479.99 520.444L1455.83 512.969M1479.99 546.139L1455.83 538.078V512.969M1479.99 546.139V557.727M1455.83 512.969L1446.77 510.166M1479.99 557.727L1458.35 551.682V585.438L1479.99 594.003M1479.99 557.727V594.003M1479.99 594.003V606.095L1378.32 561.87M1448.78 582.415L1446.77 546.139L1378.32 520.444V561.87M1378.32 561.87L1366.75 556.834M1378.32 488.987V512.969L1446.77 535.559V510.166M1378.32 488.987L1446.77 510.166M1378.32 488.987L1366.75 485.406M1366.75 485.406V508.353L1313.91 491.222V470.062V469.054M1366.75 485.406L1325.48 472.636M1313.91 469.054L1325.48 472.636M1313.91 469.054L1298.81 464.382M1325.48 472.636V493.742M1313.91 533.846V499.284L1325.48 503.818M1313.91 533.846L1325.48 538.882M1313.91 533.846L1299.81 527.716M1325.48 503.818V538.882M1325.48 503.818L1366.75 517.421V556.834M1325.48 538.882L1366.75 556.834M1298.81 464.382V486.688L1252.51 469.054V450.055M1298.81 464.382L1252.51 450.055M1252.51 450.055L1243.45 447.252M1254.02 507.793V477.115L1299.81 495.253V527.716M1254.02 507.793L1299.81 527.716M1254.02 507.793L1244.88 503.818M1244.88 503.818V474.092L1203.18 457.97M1203.18 457.97V450.055M1243.45 447.252V466.535L1203.18 450.055M1203.18 80.8648L1292.77 44.329M1203.18 80.8648V104.536M1292.77 44.329H1363.73M1203.18 104.536L1363.73 44.329M1203.18 104.536V117.384M1363.73 44.329H1442.24M1203.18 117.384V127.964M1203.18 117.384L1274.15 95.698M1442.24 44.329L1325.98 79.8567M1203.18 127.964H1271.13L1271.41 124.941M1203.18 127.964V149.125M1274.15 95.698L1271.41 124.941M1274.15 95.698L1318.44 82.1637M1271.41 124.941H1318.44M1318.44 124.941V82.1637M1318.44 124.941V149.125M1318.44 82.1637L1325.98 79.8567M1318.44 193.461H1325.98M1318.44 193.461V149.125M1318.44 193.461C1289.04 196.283 1279.01 224.531 1277.67 238.302M1325.98 193.461V79.8567M1325.98 193.461H1359.7M1203.18 149.125H1318.44M1203.18 149.125V315.387M1295.79 130.483V144.59M1308.37 134.514V144.59M1325.98 238.302C1329.61 239.108 1330.85 235.951 1331.02 234.271M1325.98 238.302C1323.29 238.302 1320.95 237.966 1318.94 237.429M1325.98 238.302V242.836M1325.98 321.937C1329.51 323.784 1334.44 329.192 1325.98 336.044M1325.98 321.937V259.463M1325.98 321.937L1318.94 324.456M1325.98 336.044V462.382M1325.98 336.044L1313.91 334.533M1325.98 462.382L1313.91 458.776M1313.91 458.776V334.533M1313.91 334.533H1307.36C1306.36 344.273 1295.18 362.747 1258.55 358.716M1258.55 358.716C1239.22 349.849 1242.44 324.456 1257.04 318.112M1258.55 358.716C1256.83 359.89 1253.67 361.55 1249.99 362.52M1231.87 355.19C1231.54 356.869 1232.68 360.732 1239.92 362.747C1243.27 363.678 1246.82 363.354 1249.99 362.52M1231.87 355.19L1203.18 352.67M1231.87 355.19C1220.2 338.664 1229.36 321.769 1235.39 315.387M1203.18 352.67V315.387M1203.18 315.387H1235.39M1235.39 315.387C1238.74 312.994 1247.54 310.42 1257.04 318.112M1271.13 319.418H1258.55C1258.04 318.953 1257.54 318.518 1257.04 318.112M1271.13 319.418C1271.76 318.143 1272.68 314.567 1272.97 308.334M1271.13 319.418C1270.79 327.479 1272.64 344.206 1282.7 346.624M1276.16 275.081C1272.13 279.112 1272.13 289.86 1272.64 294.73C1273.08 300.206 1273.13 304.717 1272.97 308.334M1276.16 275.081V262.989M1276.16 275.081L1277.67 300.273C1281.53 306.318 1293.17 318.612 1308.87 319.418M1276.16 262.989C1272.47 259.463 1267.6 249.588 1277.67 238.302M1276.16 262.989C1286.99 265.237 1307.4 267.755 1318.94 264.006M1277.67 238.302C1280.49 256.44 1306.69 256.272 1319.44 253.921L1325.98 242.836M1359.7 193.461C1359.7 188.775 1362.87 181.446 1375.31 188.079M1359.7 193.461C1357.69 204.457 1357.19 227.205 1371.28 230.241L1373 231.248M1467.91 232.256L1479.99 232.76L1479.88 227.218M1467.91 232.256C1466.4 234.103 1460.96 236.79 1451.3 232.76L1377.32 234.271M1467.91 232.256L1465.39 232.76C1455.73 231.551 1453.31 209.416 1453.31 198.5M1377.32 234.271C1375.81 236.455 1370.98 239.511 1363.73 234.271H1331.02M1377.32 234.271C1375.65 233.398 1374.22 232.382 1373 231.248M1331.02 234.271C1323.37 234.271 1320.11 219.157 1319.44 211.599M1474.95 179.539C1472.46 178.637 1470.11 177.202 1468.91 176.331C1460.06 174.316 1454.82 179.858 1453.31 182.881L1447.27 183.358M1474.95 179.539C1476.31 180.029 1477.7 180.362 1478.98 180.362L1479.88 227.218M1474.95 179.539C1461.63 190.226 1443.96 214.723 1479.88 227.218M1447.27 183.358L1376.82 188.927C1376.3 188.622 1375.79 188.34 1375.31 188.079M1447.27 183.358C1442.58 194.283 1435.4 217.645 1444.25 223.691M1375.31 188.079C1369.23 198.527 1361.28 220.342 1373 231.248M1309.38 231.248C1310.36 232.971 1313.41 235.957 1318.94 237.429M1318.94 237.429V247.371M1325.98 242.836V259.463M1325.98 259.463C1324.53 261.521 1322.06 262.993 1318.94 264.006M1318.94 264.006V324.456M1318.94 324.456L1311.89 325.464M1272.97 308.334C1278.9 315.723 1293.17 330.2 1302.83 328.991M1239.92 323.449C1236.57 332.198 1233.88 352.262 1249.99 362.52M423.609 600.553C423.765 607.002 412.938 605.255 407.505 603.576M423.609 600.553L420.378 466.535M423.609 600.553C425.042 605.971 427.018 617.165 424.121 620.706M415.054 681.165C415.054 670.584 419.08 624.736 423.609 621.21C423.795 621.065 423.965 620.897 424.121 620.706M415.054 681.165L311.379 853.977H301.313M415.054 681.165L453.467 620.706M301.313 853.977C304.668 851.29 311.379 843.195 311.379 832.313C311.379 821.43 301.649 824.083 296.784 826.77M301.313 853.977C302.924 844.707 298.965 840.71 296.784 839.87M296.784 826.77V839.87M296.784 826.77V809.64M296.784 839.87C292.422 846.756 280.981 857.504 270.11 845.412M270.11 845.412C268.6 844.572 265.279 845.11 264.071 853.977M270.11 845.412C274.136 844.606 274.807 841.381 274.64 839.87V809.64M296.784 809.64L294.09 665.546M296.784 809.64L344.595 741.229M407.505 603.576L408.212 466.535M407.505 603.576L404.429 621.21M408.491 412.695C398.096 418.55 376.905 431.166 375.295 434.794M408.491 412.695L408.434 423.71M408.434 423.71C397.208 431.886 377.26 445.83 364.223 453.333M408.434 423.71L408.212 466.535M370.262 432.275C370.375 433.403 370.614 435.188 371.018 437.313M382.844 458.474C375.814 456.128 372.421 444.678 371.018 437.313M382.844 458.474L387.374 450.413M382.844 458.474C383.305 460.933 383.11 463.898 381.644 466.535M364.223 453.333C366.796 458.909 373.386 469.961 379.155 469.558M364.223 453.333C360.53 455.458 357.392 457.066 355.164 457.881M379.155 469.558C375.853 472.373 370.115 474.113 360.7 473.089M379.155 469.558C380.227 468.644 381.043 467.617 381.644 466.535M355.164 457.881C355.164 462.852 356.271 472.854 360.7 473.089M360.7 473.089C359.276 472.935 357.767 472.716 356.17 472.429M371.018 437.313C369.592 439.496 365.833 443.863 362.21 443.863M387.374 443.863V450.413M387.374 450.413H404.485M408.212 466.535H394.928M381.644 466.535H394.928M394.928 466.535V513.895M394.928 621.21H404.429M394.928 621.21H344.595M394.928 621.21V526.49M404.429 621.21L396.696 665.546M293.261 621.21L296.28 603.576L291.248 603.072M293.261 621.21H313.895M293.261 621.21L294.09 665.546M293.261 621.21L274.64 629.271M291.248 603.072V572.338M291.248 603.072L274.64 606.599M291.248 506.567V541.605M291.248 506.567L313.895 490.856M291.248 541.605L308.359 526.49M291.248 541.605V572.338M291.248 572.338L301.817 564.781M313.895 621.21V526.49H344.595V621.21M313.895 621.21H344.595M356.17 620.706V526.49H394.928M394.928 526.49V513.895M394.928 513.895H360.7C359.861 514.398 357.982 514.197 357.177 509.36C356.372 504.523 356.17 482.724 356.17 472.429M294.09 665.546H314.398M396.696 665.546L396.432 667.058L356.17 724.667M396.696 665.546H356.17M356.17 665.546V724.667M356.17 665.546H344.595M356.17 724.667L344.595 741.229M344.595 665.546V741.229M344.595 665.546H314.398M314.398 665.546V785.457M274.64 516.514C271.288 517.288 268.137 517.492 266.084 517.421L246.959 528.83M274.64 516.514V550.674M274.64 606.599C270.866 609.232 266.064 614.689 267.596 620.706M274.64 606.599V550.674M274.64 629.271C270.41 626.448 268.312 623.516 267.596 620.706M274.64 629.271V665.546M246.959 528.83L92.9514 620.706M246.959 528.83V574.768M246.959 620.706H267.596M246.959 620.706L120.637 621.21L116.611 621.136M246.959 620.706V574.768M92.9514 620.706L60.2438 640.218M92.9514 620.706L116.611 621.136M246.959 574.768L274.64 550.674M60.2438 640.218C71.3159 649.332 98.8954 667.158 120.637 665.546M120.637 665.546C95.2718 659.5 107.384 633.42 116.611 621.136M120.637 665.546H170.461M274.64 665.546H250.482M274.64 665.546V793.518M250.482 665.546V793.518M250.482 665.546H211.227M250.482 793.518H274.64M250.482 793.518L58.2307 791.818M274.64 793.518V809.64M274.64 809.64H250.482M250.482 809.64V853.977M250.482 809.64H89.9371M-39.405 809.64L-50.4771 854.481L-1.65924 809.64M-39.405 809.64L-34.3722 790.999L21.5292 791.493M-39.405 809.64H-1.65924M-50.4771 784.953H-34.3722L-39.405 790.999H-50.4771M21.5292 791.493L170.461 665.546M21.5292 791.493L39.6094 791.653M170.461 665.546H187.069M187.069 665.546L39.6094 791.653M187.069 665.546H211.227M39.6094 791.653L58.2307 791.818M58.2307 791.818L211.227 665.546M-1.65924 809.64H28.5374M28.5374 809.64L-18.2674 854.481M28.5374 809.64H80.3748M80.3748 809.64L72.3224 854.481M80.3748 809.64H89.9371M89.9371 809.64L81.8847 855.992M603.279 384.915H547.919M603.279 384.915L590.155 405.572M603.279 384.915H611.332M559.997 385.419V405.572M559.997 448.901H547.919M559.997 448.901H562.625M559.997 448.901V433.031M547.919 448.901V433.031M547.919 448.901H482.493M547.919 384.915H501.617M547.919 384.915V405.572M562.625 448.901L572.709 433.031M562.625 448.901L551.421 466.535M419.953 448.901L419.613 434.794M419.953 448.901L459.845 414.641V448.901M419.953 448.901H459.845M419.953 448.901L420.378 466.535M419.613 434.794L472.427 392.473C473.781 389.986 475.375 384.993 470.917 384.915M470.917 384.915H501.617M459.845 448.901H469.408M469.408 448.901V408.723L481.486 398.178M469.408 448.901H482.493M479.473 441.344V417.16M479.473 405.572L501.617 384.915M479.473 405.572H547.919M479.473 405.572V417.16M547.919 405.572V417.16M479.473 417.16H547.919M547.919 417.16V433.031M547.919 433.031H506.147C502.959 433.954 496.987 434.29 498.598 428.244M498.598 428.244L523.761 397.007M498.598 428.244C493.565 433.954 483.298 446.08 482.493 448.901M559.997 433.031H572.709M559.997 433.031V417.664M572.709 433.031L582.472 417.664M572.709 433.031L556.978 472.429M559.997 417.664H582.472M559.997 417.664V405.572M582.472 417.664L590.155 405.572M559.997 405.572H590.155M420.378 466.535H427.132M551.421 466.535H476.453M551.421 466.535L531.894 497.268M551.421 466.535C558.249 468.147 557.971 471.136 556.978 472.429M427.132 466.535L435.688 492.734M427.132 466.535H466.388M435.688 492.734L466.388 490.215V466.535M435.688 492.734V497.268M466.388 466.535H470.917M470.917 466.535C470.582 474.596 470.615 491.424 473.434 494.245M470.917 466.535H476.453M473.434 494.245C476.957 497.772 479.473 470.157 476.453 466.535M473.434 494.245L531.894 497.268M473.434 494.245L474.261 530.017M531.894 497.268L511.087 530.017M475.555 585.942L474.261 530.017M475.555 585.942L511.087 530.017M475.555 585.942L466.272 600.553M474.261 530.017H511.087M435.688 620.706H453.467M435.688 620.706H424.121M435.688 620.706V530.017M453.467 620.706L466.272 600.553M435.688 497.268H466.388L466.351 530.017M435.688 497.268V530.017M466.272 600.553L466.351 530.017M466.351 530.017H435.688M330 853.977L556.978 472.429M611.332 384.915C610.828 391.129 607.406 407.587 597.743 423.71C585.664 443.863 554.923 491.726 551.421 501.803C548.619 509.864 541.208 524.643 537.853 531.025M611.332 384.915H628.443M540.873 515.91C526.76 544.315 499.44 599.215 490.854 616.171M362.21 853.977C362.835 850.224 371.267 833.33 383.834 809.64M383.834 809.64V853.977M383.834 809.64C386.958 803.752 390.338 797.443 393.916 790.812M393.916 790.812V853.977M393.916 790.812C398.36 782.576 403.112 773.843 408.062 764.8M408.062 764.8V845.412M408.062 764.8C415.428 751.344 423.234 737.199 431.125 722.982M408.062 845.412L404.485 853.977M408.062 845.412L426.434 804.098M568.05 485.64L458.249 732.555M431.125 722.982L426.434 804.098M431.125 722.982C437.688 711.156 444.311 699.279 450.786 687.706M426.434 804.098L444.53 763.404M450.786 687.706V714.921C448.461 725.411 443.954 749.793 444.53 763.404M450.786 687.706C455.804 678.739 460.734 669.954 465.48 661.516M444.53 763.404L458.249 732.555M454.813 716.936C454.922 721.975 455.763 732.152 458.249 732.555M465.48 661.516C473.923 646.506 481.786 632.594 488.532 620.706C488.947 619.921 489.744 618.363 490.854 616.171M465.48 661.516C463.266 676.966 459.342 708.371 461.355 710.387C463.368 712.402 464.944 711.226 465.48 710.387M471.924 672.096L468.401 684.188M490.854 616.171C488.235 628.263 484.103 654.563 488.532 663.027M553.958 502.81L583.651 453.939M611.835 385.419C612.17 399.022 610.929 427.841 603.279 434.29M603.279 434.29H638.509M603.279 434.29L592.496 458.978M619.384 385.419C617.874 393.648 614.855 412.525 614.855 422.198C614.855 431.872 614.855 429.588 614.855 427.237M628.443 384.915C627.772 401.374 625.625 434.29 622.404 434.29L490.854 855.992M628.443 384.915H635.992M635.992 384.915C634.315 395.16 631.06 417.765 631.463 426.229M635.992 384.915H670.215M645.554 385.419C642.87 399.358 637.703 428.395 638.509 433.031M638.509 433.031V434.29M638.509 433.031C643.709 425.893 655.721 416.757 662.162 437.313M638.509 434.29C638.844 438.321 638.71 448.095 635.489 454.947C635.05 455.881 634.359 457.786 633.476 460.459M490.854 855.992H419.08L448.789 787.976M490.854 855.992C498.26 856.743 512.608 856.071 516.719 848.435M534.33 826.77C529.465 828.618 519.333 834.932 517.722 845.412C517.551 846.524 517.207 847.529 516.719 848.435M534.33 826.77C553.55 815.647 565.782 800.217 572.735 787.976M534.33 826.77C549.261 818.037 582.645 810.95 596.737 852.466L603.279 853.977C611.922 843.982 628.481 818.191 632.919 787.976M592.496 458.978L633.476 460.459M592.496 458.978L583.253 480.138M633.476 460.459C631.95 465.074 629.849 471.98 627.47 480.138M583.253 480.138H627.47M583.253 480.138L572.709 504.278M627.47 480.138C625.343 487.431 622.995 495.725 620.639 504.278M572.709 504.278H620.639M572.709 504.278L556.978 540.292M620.639 504.278C619.166 509.626 617.69 515.075 616.262 520.444M556.978 540.292H611.131M556.978 540.292L542.76 572.842M611.131 540.292C607.728 553.906 605.234 565.072 604.789 569.819C604.699 570.783 604.601 571.793 604.498 572.842M611.131 540.292C611.758 537.781 612.416 535.188 613.098 532.536M542.76 572.842H604.498M542.76 572.842L525.154 613.148M604.498 572.842C603.235 585.66 601.075 604.303 600.172 614.66M525.154 613.148L600.172 614.66M525.154 613.148L507.989 652.447M600.172 614.66C599.912 617.643 599.756 619.938 599.756 621.21C599.756 621.75 599.607 623.323 599.335 625.744M600.172 614.66C607.64 605.087 625.679 592.995 638.091 621.21M507.989 652.447H595.982M507.989 652.447L485.321 704.341M595.982 652.447C594.005 667.571 591.493 686.303 589.052 704.341M595.982 652.447C597.518 640.698 598.731 631.125 599.335 625.744M485.321 704.341H589.052M485.321 704.341L483.341 708.875M589.052 704.341C588.847 705.858 588.642 707.37 588.438 708.875M483.341 708.875H588.438M483.341 708.875L451.21 782.434M588.438 708.875C584.325 739.234 580.566 766.556 580.128 769.838C579.818 772.172 578.402 776.717 575.646 782.434M451.21 782.434H575.646M451.21 782.434L448.789 787.976M575.646 782.434C574.803 784.182 573.835 786.039 572.735 787.976M448.789 787.976H572.735M516.719 848.435C530.139 838.023 561.205 824.251 578.115 852.466M662.162 437.313C662.34 436.696 662.529 436.022 662.725 435.298M662.162 437.313C660.894 443.51 659.223 451.757 657.488 460.459M670.215 384.915C670.592 401.923 665.689 424.394 662.725 435.298M670.215 384.915H698.398M616.262 520.444C620.49 515.742 630.657 509.159 637.502 520.444M616.262 520.444C615.171 524.549 614.109 528.607 613.098 532.536M613.098 532.536C620.175 525.315 636.156 515.507 643.465 534.048M643.465 534.048C645.867 523.404 648.113 512.741 648.574 508.353C648.693 507.217 648.984 505.307 649.406 502.81M643.465 534.048C642.991 536.146 642.512 538.243 642.039 540.292M599.335 625.744C605.572 616.003 622.055 601.46 638.091 621.21M638.091 621.21C638.124 619.841 638.156 618.497 638.187 617.179M638.091 621.21C637.866 630.646 637.609 641.258 637.334 652.447M662.725 435.298H678.771M698.398 435.298V384.915M698.398 435.298C703.431 426.901 716.114 414.943 726.582 434.29M698.398 435.298H683.3M698.398 435.298L699.177 460.459M698.398 384.915H723.059M706.954 750.693C701.083 756.067 690.749 769.737 696.385 781.426M706.954 750.693C718.026 744.647 744.7 737.694 762.818 758.25M706.954 750.693C706.915 739.624 706.872 725.786 706.835 710.891M696.385 781.426L633.589 782.434M696.385 781.426C697.473 782.713 699.097 785.178 699.999 787.976M762.818 790.495L755.772 855.992H684.81C689.507 837.351 699.204 798.859 700.412 794.022C700.699 792.87 700.726 791.675 700.575 790.495M762.818 790.495C755.772 736.586 702.425 745.151 700.575 790.495M762.818 790.495C763.186 789.628 763.573 788.61 763.953 787.472M762.818 758.25L756.738 709.883M762.818 758.25C767.511 764.884 767.109 774.423 765.473 781.93M734.634 534.048C716.114 509.058 704.88 526.322 701.578 538.078M734.634 534.048C733.038 520.862 730.773 500.65 729.01 481.65M734.634 534.048L735.419 540.292M726.582 434.29C728.192 420.989 724.904 395.831 723.059 384.915M726.582 434.29C733.829 435.902 738.325 433.618 739.667 432.275M726.582 434.29C726.036 438.797 726.4 448.522 727.249 460.489M723.059 384.915H731.363M701.235 526.994C705.994 519.101 718.429 507.345 730.105 523.467M701.235 526.994L701.578 538.078M701.235 526.994L700.487 502.81M701.578 538.078L701.647 540.292M700.575 790.495C700.466 789.641 700.264 788.794 699.999 787.976M678.771 435.298L662.162 853.977H672.731L683.3 435.298M678.771 435.298H683.3M657.488 460.459H699.177M657.488 460.459C656.082 467.507 654.633 474.853 653.321 481.65M699.177 460.459L699.833 481.65M653.321 481.65H699.833M653.321 481.65C651.691 490.092 650.272 497.687 649.406 502.81M699.833 481.65L700.487 502.81M649.406 502.81H700.487M642.039 540.292C640.723 545.988 639.457 551.305 638.509 555.208V574.354M642.039 540.292H701.647M701.647 540.292L701.921 549.162C703.117 554.275 705.044 564.178 706.144 574.354M638.509 574.354V603.576C638.413 607.672 638.305 612.239 638.187 617.179M638.509 574.354H706.144M706.144 574.354C706.742 579.889 707.096 585.506 706.954 590.476C706.854 593.991 706.793 602.751 706.761 614.66M638.187 617.179L706.761 614.66M706.761 614.66C706.732 625.255 706.727 638.343 706.736 652.447M637.334 652.447H706.736M637.334 652.447C636.908 669.776 636.439 688.488 635.974 706.356M706.736 652.447C706.747 669.797 706.781 688.683 706.824 706.356M635.974 706.356H706.824M635.974 706.356C635.934 707.874 635.895 709.386 635.855 710.891M706.824 706.356C706.827 707.877 706.831 709.389 706.835 710.891M635.855 710.891C635.155 737.633 634.474 762.02 633.979 776.388C633.909 778.417 633.777 780.433 633.589 782.434M635.855 710.891H706.835M633.589 782.434C633.413 784.296 633.188 786.144 632.919 787.976M632.919 787.976H698.902H699.999M731.363 384.915C733.292 400.03 737.654 430.663 739.667 432.275M731.363 384.915H752.752M739.667 432.275C741.992 434.137 748.612 421.808 754.765 421.509M739.667 432.275C741.879 438.919 745.368 449.439 749.007 460.489M767.347 434.29C768.958 434.29 773.051 434.962 774.896 435.298M767.347 434.29C766.341 434.29 765.208 431.645 763.51 428.748M767.347 434.29L779.426 478.123L829.25 542.109M774.896 435.298C770.954 426.877 764.755 408.338 771.499 401.541M774.896 435.298L829.25 542.109M771.499 401.541L765.837 384.915M771.499 401.541L815.125 494.245M771.499 401.541L893.166 631.286M765.837 384.915H761.811M763.51 428.748C761.811 425.851 759.547 422.702 756.275 421.695C755.777 421.541 755.273 421.484 754.765 421.509M763.51 428.748L761.811 385.923V384.915M752.752 384.915L754.765 421.509M752.752 384.915H761.811M750.236 481.65C747.91 488.502 753.293 523.599 756.275 540.292L835.29 853.977H878.068C875.581 837.304 871.532 808.711 869.076 787.472M750.236 481.65H755.939M750.236 481.65H729.01M755.939 481.65C757.801 487.376 759.487 492.604 760.805 496.765C766.349 514.271 785.268 528.882 793.361 540.292M755.939 481.65C753.767 474.975 751.356 467.621 749.007 460.489M729.01 481.65C728.324 474.25 727.714 467.034 727.249 460.489M727.249 460.489H749.007M735.419 540.292H793.361M735.419 540.292L739.511 572.842M793.361 540.292C794.817 542.345 795.923 544.295 796.537 546.139C797.361 548.612 800.814 558.521 805.784 572.842M739.511 572.842H805.784M739.511 572.842L744.831 615.164M805.784 572.842C809.847 584.551 814.923 599.209 820.404 615.164M744.831 615.164H820.404M744.831 615.164L749.581 652.951M820.404 615.164C822.705 621.861 825.076 628.788 827.475 635.82M749.581 652.951L834.147 655.47M749.581 652.951L756.199 705.6M834.147 655.47C840.006 672.806 845.775 690.103 850.803 705.6M834.147 655.47C831.924 648.894 829.688 642.312 827.475 635.82M756.199 705.6H850.803M756.199 705.6L756.738 709.883M850.803 705.6C851.271 707.044 851.733 708.472 852.188 709.883M756.738 709.883H852.188M852.188 709.883C860.961 737.087 867.15 757.954 866.996 762.281C866.876 765.636 867.466 772.816 868.454 781.93M765.473 781.93H868.454M765.473 781.93C765.031 783.958 764.499 785.838 763.953 787.472M868.454 781.93C868.647 783.708 868.855 785.56 869.076 787.472M763.953 787.472H869.076M893.166 631.286L909.775 705.6M893.166 631.286L917.072 674.111M999.861 853.977L983.756 796.541L1017.48 853.977L942.384 719.456M942.384 719.456L948.024 779.411L983.756 853.977M942.384 719.456L929.166 695.776M929.166 695.776L927.389 756.235M929.166 695.776L917.072 674.111M927.389 756.235L938.461 793.014M927.389 756.235L866.889 624.232M938.461 793.014L949.533 857M938.461 793.014L977.214 857M829.25 542.109L861.809 613.148M827.475 635.82C829.712 624.568 839.712 604.281 861.809 613.148M827.475 635.82C840.548 611.637 859.199 618.019 866.889 624.232M861.809 613.148L866.889 624.232M917.072 674.111V719.456M845.753 513.391C876.915 584.17 919.854 675.833 934.435 685.42L1042.14 857L1058.74 853.977L845.753 513.391Z" fill="transparent" stroke="white" stroke-opacity="0.15"/>
</svg>
