<svg width="103" height="20" viewBox="0 0 103 20" fill="none" xmlns="http://www.w3.org/2000/svg">
<path d="M10.6522 6.10352e-05H11.6318C12.8113 0.0956321 14.0764 0.166052 15.0862 0.850125C15.6608 1.22486 15.9538 1.99067 15.7086 2.6408C15.3854 3.53739 14.4398 4.28937 13.4527 4.10955C12.8956 3.95362 12.4303 3.59146 11.989 3.23307C11.2709 2.64582 10.578 2.00325 9.72546 1.61091C9.05648 1.27893 8.27055 1.29779 7.55629 1.45246C6.28245 1.75678 5.27645 2.72379 4.63136 3.82787C3.83536 5.2262 3.42165 6.84334 3.45938 8.45168C3.45686 10.3945 4.00261 12.3574 5.10795 13.9645C6.2246 15.5892 7.95114 16.8128 9.89146 17.2139C11.2659 17.527 12.7535 17.4528 14.0449 16.8656C14.6171 16.6141 15.1515 16.2834 15.6596 15.9212C15.9299 16.0797 16.2053 16.228 16.4933 16.3513C15.2018 17.815 13.5281 18.9631 11.6507 19.529C9.68018 20.1187 7.49969 20.0848 5.58579 19.3026C3.4971 18.4626 1.81458 16.7461 0.901622 14.7027C0.345811 13.5131 0.0829938 12.2078 0 10.9013V10.0236C0.0855112 8.80756 0.334492 7.59533 0.833717 6.47868C1.70642 4.47172 3.25062 2.78541 5.12302 1.6625C6.78543 0.645182 8.71064 0.100661 10.6522 6.10352e-05Z" fill="#333333"/>
<path d="M31.099 0H31.1103C31.27 0.0553313 31.426 0.114432 31.5844 0.171019C31.4637 1.21977 31.3669 2.27229 31.2411 3.32104C33.0469 2.00822 34.9444 0.674017 37.1639 0.189884C37.5877 0.0905428 38.0203 0.0477856 38.4516 3.21918e-06H39.2375C40.0637 0.0704229 40.9087 0.193656 41.6494 0.588509C42.5259 1.01605 43.2112 1.78061 43.5998 2.66715C44.1669 3.92087 44.2625 5.32171 44.2725 6.67854C44.2725 9.38969 44.2738 12.0996 44.2725 14.8107C44.2675 15.3766 44.2801 15.945 44.3341 16.5084C44.4083 16.9686 44.4662 17.4641 44.7692 17.8388C45.0496 18.2035 45.486 18.4047 45.9186 18.5229C46.4819 18.675 47.0554 18.792 47.6351 18.8511C47.6464 19.0686 47.6489 19.2862 47.6489 19.5037H37.5764C37.5826 19.2899 37.5474 19.0674 37.604 18.8574C38.4679 18.7077 39.406 18.6159 40.1379 18.0878C40.8307 17.542 40.866 16.5888 40.9301 15.7815C40.9716 13.8752 40.9452 11.9663 40.9527 10.0587C40.9414 8.7685 41.0043 7.46825 40.7742 6.1919C40.5981 5.22112 40.2561 4.23021 39.538 3.52224C38.5899 2.53008 37.1425 2.222 35.8159 2.25846C35.1293 2.23206 34.4402 2.33894 33.7913 2.56403C32.9211 2.88092 32.1528 3.42542 31.4775 4.05039C31.3819 4.11955 31.4234 4.24656 31.4121 4.34465C31.4197 8.12719 31.4083 11.9097 31.4172 15.6935C31.4586 16.3311 31.4725 16.995 31.7479 17.5835C31.983 18.0714 32.4885 18.3556 32.989 18.5028C33.575 18.6675 34.1748 18.7882 34.7809 18.8536C34.7835 19.0699 34.7835 19.2874 34.7835 19.5037C31.4285 19.5037 28.0709 19.5037 24.7147 19.505C24.7223 19.2874 24.7235 19.0699 24.7286 18.8523C25.3322 18.787 25.9307 18.6612 26.5129 18.4826C27.0599 18.3091 27.5831 17.9558 27.7943 17.4012C28.1276 16.4656 28.0571 15.4571 28.0974 14.4813V5.87375C28.0861 5.30411 28.0924 4.71183 27.8383 4.18745C27.4372 3.3902 26.6827 2.85577 25.9848 2.33516C25.9835 2.19055 25.9823 2.0472 25.9798 1.90384C27.6837 1.26252 29.3964 0.645092 31.099 0Z" fill="#333333"/>
<path d="M55.5699 3.21918e-06H56.4514C56.9946 0.0578487 57.5404 0.113177 58.0672 0.260303C59.487 0.616174 60.7759 1.49894 61.5706 2.73254C62.2698 3.79638 62.5942 5.0677 62.6546 6.33023C58.4885 6.32394 54.3224 6.334 50.1576 6.3252C50.0658 7.02814 50.0281 7.73862 49.9816 8.44659C49.7917 10.4686 50.3437 12.5662 51.5597 14.2009C52.6386 15.6784 54.2922 16.7184 56.0917 17.0466C57.275 17.2541 58.525 17.2465 59.6643 16.8303C60.8916 16.3977 61.89 15.4886 62.6546 14.4562C62.8734 14.6146 63.0922 14.7743 63.3085 14.939C62.1642 16.868 60.4527 18.5003 58.3565 19.3453C55.5523 20.4896 52.1646 19.9237 49.8219 18.0249C48.5543 17.0202 47.5961 15.6508 47.0101 14.1481C46.355 12.5045 46.1789 10.6912 46.3927 8.94203C46.7133 6.04099 48.2475 3.23425 50.6896 1.59073C52.1206 0.601083 53.8421 0.0968331 55.5699 3.21918e-06ZM53.9641 1.02109C52.7506 1.25498 51.7874 2.17295 51.1775 3.20787C50.7663 3.93093 50.4129 4.71183 50.2935 5.53926C51.2441 5.4374 52.2011 5.48016 53.153 5.4022C54.96 5.3368 56.7658 5.26136 58.5715 5.17208C58.2798 3.90452 57.7768 2.6093 56.7721 1.73534C56.0176 1.06887 54.9462 0.797253 53.9641 1.02109Z" fill="#333333"/>
<path d="M96.6106 1.60959e-05H97.345C98.8942 0.100616 100.47 0.521875 101.742 1.4323C101.792 2.70488 101.819 3.98124 101.887 5.25383C101.569 5.32047 101.247 5.37203 100.929 5.43868C100.537 4.15226 100.06 2.81177 99.064 1.8611C98.0065 0.852594 96.1743 0.725588 95.0476 1.68505C94.3384 2.29745 94.0227 3.2695 94.0793 4.18872C94.0718 5.17082 94.6816 6.0322 95.4047 6.64461C96.6081 7.64809 98.0618 8.27306 99.4035 9.06402C100.491 9.70534 101.587 10.4347 102.293 11.5086C102.901 12.4215 103.103 13.5646 102.952 14.6435C102.815 15.9073 102.178 17.0931 101.243 17.9482C99.8588 19.2359 97.9587 19.8684 96.0901 19.9325C94.1535 19.9791 92.173 19.4836 90.5822 18.3519C90.4804 17.2126 90.4313 16.0695 90.3232 14.9302C90.2679 14.4763 90.3031 14.0135 90.2125 13.5621C90.5533 13.4916 90.8953 13.4124 91.2449 13.3961C91.5455 14.8963 92.173 16.3751 93.2318 17.5005C94.034 18.3317 95.1758 18.8398 96.3378 18.8159C97.2042 18.8385 98.0832 18.5116 98.7006 17.8992C99.904 16.7033 100.029 14.5693 98.927 13.2678C98.3007 12.502 97.4318 11.9864 96.5704 11.5249C95.2073 10.788 93.7436 10.1895 92.5515 9.17719C91.7567 8.52078 91.1393 7.62922 90.8991 6.61945C90.6375 5.48268 90.7029 4.24153 91.2223 3.18397C91.7089 2.17169 92.5615 1.37067 93.5449 0.845036C94.4855 0.331978 95.5455 0.079237 96.6106 1.60959e-05Z" fill="#333333"/>
<path d="M60.6211 0.422529C63.658 0.42756 66.6961 0.42756 69.7342 0.422529C69.7304 0.63756 69.7304 0.852592 69.7329 1.06762C69.167 1.10409 68.581 1.12673 68.0504 1.35182C67.7071 1.47379 67.4053 1.74164 67.311 2.10254C67.2393 2.51374 67.2971 2.93877 67.4292 3.33237C67.7197 4.23525 68.0931 5.10795 68.4327 5.99197C69.6223 9.04516 70.8332 12.0883 72.0115 15.1453C73.3646 12.0078 74.6786 8.85025 76.0179 5.70652C76.1084 5.51035 75.9739 5.31544 75.9135 5.1331C75.4897 4.12837 75.2005 3.04189 74.5466 2.15285C73.9933 1.40086 73.0125 1.21979 72.1498 1.06763C72.1523 0.852599 72.1523 0.638826 72.1536 0.423794C75.2269 0.423794 78.3027 0.433854 81.3773 0.418762C81.3773 0.633794 81.3773 0.850081 81.3785 1.06637C80.7146 1.11667 80.0305 1.16194 79.4181 1.44991C79.0245 1.63853 78.7127 2.03967 78.734 2.49111C78.7516 3.08717 78.9956 3.64675 79.1993 4.19753C80.5624 7.84802 81.9608 11.4847 83.3088 15.139C83.8696 13.9909 84.3638 12.8114 84.8882 11.6457C85.7584 9.65002 86.616 7.64557 87.3453 5.59334C87.6371 4.70806 87.9414 3.81776 88.0634 2.89099C88.1426 2.39302 87.9967 1.8196 87.5616 1.52535C86.9983 1.1657 86.3104 1.1657 85.6729 1.07013C85.6754 0.853844 85.6741 0.638816 85.6729 0.422525C88.1024 0.431327 90.5319 0.420011 92.9613 0.427557C92.9588 0.638816 92.9588 0.850075 92.96 1.06133C92.2282 1.13678 91.4812 1.33169 90.9015 1.80703C90.0012 2.52254 89.546 3.61153 89.0694 4.62381C86.7694 9.72925 84.4959 14.8472 82.1909 19.9489C82.0073 19.9439 81.8249 19.9464 81.6426 19.959H81.6074C79.8972 15.5804 78.1757 11.2055 76.4718 6.82443C74.6497 11.1942 72.8691 15.5829 71.0608 19.959H71.0281C70.8269 19.9439 70.6257 19.9414 70.4245 19.9439C68.2692 14.597 66.1188 9.24887 63.9522 3.9058C63.634 3.16639 63.3071 2.39178 62.6985 1.83848C62.1351 1.31914 61.363 1.12045 60.6173 1.06261C60.6211 0.848832 60.6211 0.636302 60.6211 0.422529Z" fill="#333333"/>
<path d="M15.7614 5.87126C16.6102 5.17461 17.6502 4.69802 18.7505 4.59993C20.3462 4.42389 22.0049 5.02245 23.1303 6.16551C24.125 7.16522 24.7072 8.56607 24.6871 9.9795C24.6997 11.1968 24.2671 12.4102 23.5013 13.3546C22.6877 14.3707 21.4931 15.0799 20.2079 15.2874C18.9341 15.4987 17.581 15.2635 16.482 14.5769C15.0924 13.7382 14.1204 12.2405 13.9443 10.6271C13.7406 9.12694 14.2323 7.57017 15.2144 6.42584C14.9189 6.8974 14.7529 7.44944 14.8284 8.00903C14.9327 8.98358 15.7577 9.82736 16.7284 9.95563C17.8765 10.1556 19.0573 9.31305 19.2648 8.17376C19.3566 7.6607 19.2925 7.10866 19.0297 6.65219C18.6348 5.92159 17.8111 5.43745 16.9762 5.48901C16.5386 5.48272 16.1374 5.67006 15.7614 5.87126Z" fill="#333333"/>
</svg>
